G04 #@! TF.GenerationSoftware,KiCad,Pcbnew,8.0.3*
G04 #@! TF.CreationDate,2024-07-10T11:58:07-07:00*
G04 #@! TF.ProjectId,maveric-board,6d617665-7269-4632-9d62-6f6172642e6b,rev?*
G04 #@! TF.SameCoordinates,Original*
G04 #@! TF.FileFunction,AssemblyDrawing,Top*
%FSLAX46Y46*%
G04 Gerber Fmt 4.6, Leading zero omitted, Abs format (unit mm)*
G04 Created by KiCad (PCBNEW 8.0.3) date 2024-07-10 11:58:07*
%MOMM*%
%LPD*%
G01*
G04 APERTURE LIST*
%ADD10C,0.060000*%
%ADD11C,0.150000*%
%ADD12C,0.120000*%
%ADD13C,0.100000*%
%ADD14C,0.127000*%
%ADD15C,0.200000*%
%ADD16C,0.025400*%
%ADD17C,0.508000*%
%ADD18C,0.300000*%
G04 APERTURE END LIST*
D10*
X46742857Y-48181927D02*
X46609524Y-47991451D01*
X46514286Y-48181927D02*
X46514286Y-47781927D01*
X46514286Y-47781927D02*
X46666667Y-47781927D01*
X46666667Y-47781927D02*
X46704762Y-47800975D01*
X46704762Y-47800975D02*
X46723809Y-47820022D01*
X46723809Y-47820022D02*
X46742857Y-47858118D01*
X46742857Y-47858118D02*
X46742857Y-47915260D01*
X46742857Y-47915260D02*
X46723809Y-47953356D01*
X46723809Y-47953356D02*
X46704762Y-47972403D01*
X46704762Y-47972403D02*
X46666667Y-47991451D01*
X46666667Y-47991451D02*
X46514286Y-47991451D01*
X46895238Y-47820022D02*
X46914286Y-47800975D01*
X46914286Y-47800975D02*
X46952381Y-47781927D01*
X46952381Y-47781927D02*
X47047619Y-47781927D01*
X47047619Y-47781927D02*
X47085714Y-47800975D01*
X47085714Y-47800975D02*
X47104762Y-47820022D01*
X47104762Y-47820022D02*
X47123809Y-47858118D01*
X47123809Y-47858118D02*
X47123809Y-47896213D01*
X47123809Y-47896213D02*
X47104762Y-47953356D01*
X47104762Y-47953356D02*
X46876190Y-48181927D01*
X46876190Y-48181927D02*
X47123809Y-48181927D01*
X47485714Y-47781927D02*
X47295238Y-47781927D01*
X47295238Y-47781927D02*
X47276190Y-47972403D01*
X47276190Y-47972403D02*
X47295238Y-47953356D01*
X47295238Y-47953356D02*
X47333333Y-47934308D01*
X47333333Y-47934308D02*
X47428571Y-47934308D01*
X47428571Y-47934308D02*
X47466666Y-47953356D01*
X47466666Y-47953356D02*
X47485714Y-47972403D01*
X47485714Y-47972403D02*
X47504761Y-48010499D01*
X47504761Y-48010499D02*
X47504761Y-48105737D01*
X47504761Y-48105737D02*
X47485714Y-48143832D01*
X47485714Y-48143832D02*
X47466666Y-48162880D01*
X47466666Y-48162880D02*
X47428571Y-48181927D01*
X47428571Y-48181927D02*
X47333333Y-48181927D01*
X47333333Y-48181927D02*
X47295238Y-48162880D01*
X47295238Y-48162880D02*
X47276190Y-48143832D01*
D11*
X65138095Y-67554819D02*
X65709523Y-67554819D01*
X65423809Y-68554819D02*
X65423809Y-67554819D01*
X66042857Y-68554819D02*
X66042857Y-67554819D01*
X66042857Y-67554819D02*
X66423809Y-67554819D01*
X66423809Y-67554819D02*
X66519047Y-67602438D01*
X66519047Y-67602438D02*
X66566666Y-67650057D01*
X66566666Y-67650057D02*
X66614285Y-67745295D01*
X66614285Y-67745295D02*
X66614285Y-67888152D01*
X66614285Y-67888152D02*
X66566666Y-67983390D01*
X66566666Y-67983390D02*
X66519047Y-68031009D01*
X66519047Y-68031009D02*
X66423809Y-68078628D01*
X66423809Y-68078628D02*
X66042857Y-68078628D01*
X67471428Y-67554819D02*
X67280952Y-67554819D01*
X67280952Y-67554819D02*
X67185714Y-67602438D01*
X67185714Y-67602438D02*
X67138095Y-67650057D01*
X67138095Y-67650057D02*
X67042857Y-67792914D01*
X67042857Y-67792914D02*
X66995238Y-67983390D01*
X66995238Y-67983390D02*
X66995238Y-68364342D01*
X66995238Y-68364342D02*
X67042857Y-68459580D01*
X67042857Y-68459580D02*
X67090476Y-68507200D01*
X67090476Y-68507200D02*
X67185714Y-68554819D01*
X67185714Y-68554819D02*
X67376190Y-68554819D01*
X67376190Y-68554819D02*
X67471428Y-68507200D01*
X67471428Y-68507200D02*
X67519047Y-68459580D01*
X67519047Y-68459580D02*
X67566666Y-68364342D01*
X67566666Y-68364342D02*
X67566666Y-68126247D01*
X67566666Y-68126247D02*
X67519047Y-68031009D01*
X67519047Y-68031009D02*
X67471428Y-67983390D01*
X67471428Y-67983390D02*
X67376190Y-67935771D01*
X67376190Y-67935771D02*
X67185714Y-67935771D01*
X67185714Y-67935771D02*
X67090476Y-67983390D01*
X67090476Y-67983390D02*
X67042857Y-68031009D01*
X67042857Y-68031009D02*
X66995238Y-68126247D01*
D12*
X48587664Y-43133332D02*
X48625760Y-43171428D01*
X48625760Y-43171428D02*
X48663855Y-43285713D01*
X48663855Y-43285713D02*
X48663855Y-43361904D01*
X48663855Y-43361904D02*
X48625760Y-43476190D01*
X48625760Y-43476190D02*
X48549569Y-43552380D01*
X48549569Y-43552380D02*
X48473379Y-43590475D01*
X48473379Y-43590475D02*
X48320998Y-43628571D01*
X48320998Y-43628571D02*
X48206712Y-43628571D01*
X48206712Y-43628571D02*
X48054331Y-43590475D01*
X48054331Y-43590475D02*
X47978140Y-43552380D01*
X47978140Y-43552380D02*
X47901950Y-43476190D01*
X47901950Y-43476190D02*
X47863855Y-43361904D01*
X47863855Y-43361904D02*
X47863855Y-43285713D01*
X47863855Y-43285713D02*
X47901950Y-43171428D01*
X47901950Y-43171428D02*
X47940045Y-43133332D01*
X47863855Y-42409523D02*
X47863855Y-42790475D01*
X47863855Y-42790475D02*
X48244807Y-42828571D01*
X48244807Y-42828571D02*
X48206712Y-42790475D01*
X48206712Y-42790475D02*
X48168617Y-42714285D01*
X48168617Y-42714285D02*
X48168617Y-42523809D01*
X48168617Y-42523809D02*
X48206712Y-42447618D01*
X48206712Y-42447618D02*
X48244807Y-42409523D01*
X48244807Y-42409523D02*
X48320998Y-42371428D01*
X48320998Y-42371428D02*
X48511474Y-42371428D01*
X48511474Y-42371428D02*
X48587664Y-42409523D01*
X48587664Y-42409523D02*
X48625760Y-42447618D01*
X48625760Y-42447618D02*
X48663855Y-42523809D01*
X48663855Y-42523809D02*
X48663855Y-42714285D01*
X48663855Y-42714285D02*
X48625760Y-42790475D01*
X48625760Y-42790475D02*
X48587664Y-42828571D01*
D11*
X104454819Y-53333333D02*
X105169104Y-53333333D01*
X105169104Y-53333333D02*
X105311961Y-53380952D01*
X105311961Y-53380952D02*
X105407200Y-53476190D01*
X105407200Y-53476190D02*
X105454819Y-53619047D01*
X105454819Y-53619047D02*
X105454819Y-53714285D01*
X104454819Y-52952380D02*
X104454819Y-52333333D01*
X104454819Y-52333333D02*
X104835771Y-52666666D01*
X104835771Y-52666666D02*
X104835771Y-52523809D01*
X104835771Y-52523809D02*
X104883390Y-52428571D01*
X104883390Y-52428571D02*
X104931009Y-52380952D01*
X104931009Y-52380952D02*
X105026247Y-52333333D01*
X105026247Y-52333333D02*
X105264342Y-52333333D01*
X105264342Y-52333333D02*
X105359580Y-52380952D01*
X105359580Y-52380952D02*
X105407200Y-52428571D01*
X105407200Y-52428571D02*
X105454819Y-52523809D01*
X105454819Y-52523809D02*
X105454819Y-52809523D01*
X105454819Y-52809523D02*
X105407200Y-52904761D01*
X105407200Y-52904761D02*
X105359580Y-52952380D01*
X133238095Y-60654819D02*
X133809523Y-60654819D01*
X133523809Y-61654819D02*
X133523809Y-60654819D01*
X134142857Y-61654819D02*
X134142857Y-60654819D01*
X134142857Y-60654819D02*
X134523809Y-60654819D01*
X134523809Y-60654819D02*
X134619047Y-60702438D01*
X134619047Y-60702438D02*
X134666666Y-60750057D01*
X134666666Y-60750057D02*
X134714285Y-60845295D01*
X134714285Y-60845295D02*
X134714285Y-60988152D01*
X134714285Y-60988152D02*
X134666666Y-61083390D01*
X134666666Y-61083390D02*
X134619047Y-61131009D01*
X134619047Y-61131009D02*
X134523809Y-61178628D01*
X134523809Y-61178628D02*
X134142857Y-61178628D01*
X135666666Y-61654819D02*
X135095238Y-61654819D01*
X135380952Y-61654819D02*
X135380952Y-60654819D01*
X135380952Y-60654819D02*
X135285714Y-60797676D01*
X135285714Y-60797676D02*
X135190476Y-60892914D01*
X135190476Y-60892914D02*
X135095238Y-60940533D01*
X66690476Y-96454819D02*
X66690476Y-97169104D01*
X66690476Y-97169104D02*
X66642857Y-97311961D01*
X66642857Y-97311961D02*
X66547619Y-97407200D01*
X66547619Y-97407200D02*
X66404762Y-97454819D01*
X66404762Y-97454819D02*
X66309524Y-97454819D01*
X67690476Y-97454819D02*
X67119048Y-97454819D01*
X67404762Y-97454819D02*
X67404762Y-96454819D01*
X67404762Y-96454819D02*
X67309524Y-96597676D01*
X67309524Y-96597676D02*
X67214286Y-96692914D01*
X67214286Y-96692914D02*
X67119048Y-96740533D01*
X68595238Y-96454819D02*
X68119048Y-96454819D01*
X68119048Y-96454819D02*
X68071429Y-96931009D01*
X68071429Y-96931009D02*
X68119048Y-96883390D01*
X68119048Y-96883390D02*
X68214286Y-96835771D01*
X68214286Y-96835771D02*
X68452381Y-96835771D01*
X68452381Y-96835771D02*
X68547619Y-96883390D01*
X68547619Y-96883390D02*
X68595238Y-96931009D01*
X68595238Y-96931009D02*
X68642857Y-97026247D01*
X68642857Y-97026247D02*
X68642857Y-97264342D01*
X68642857Y-97264342D02*
X68595238Y-97359580D01*
X68595238Y-97359580D02*
X68547619Y-97407200D01*
X68547619Y-97407200D02*
X68452381Y-97454819D01*
X68452381Y-97454819D02*
X68214286Y-97454819D01*
X68214286Y-97454819D02*
X68119048Y-97407200D01*
X68119048Y-97407200D02*
X68071429Y-97359580D01*
D12*
X51287664Y-43133332D02*
X51325760Y-43171428D01*
X51325760Y-43171428D02*
X51363855Y-43285713D01*
X51363855Y-43285713D02*
X51363855Y-43361904D01*
X51363855Y-43361904D02*
X51325760Y-43476190D01*
X51325760Y-43476190D02*
X51249569Y-43552380D01*
X51249569Y-43552380D02*
X51173379Y-43590475D01*
X51173379Y-43590475D02*
X51020998Y-43628571D01*
X51020998Y-43628571D02*
X50906712Y-43628571D01*
X50906712Y-43628571D02*
X50754331Y-43590475D01*
X50754331Y-43590475D02*
X50678140Y-43552380D01*
X50678140Y-43552380D02*
X50601950Y-43476190D01*
X50601950Y-43476190D02*
X50563855Y-43361904D01*
X50563855Y-43361904D02*
X50563855Y-43285713D01*
X50563855Y-43285713D02*
X50601950Y-43171428D01*
X50601950Y-43171428D02*
X50640045Y-43133332D01*
X50563855Y-42447618D02*
X50563855Y-42599999D01*
X50563855Y-42599999D02*
X50601950Y-42676190D01*
X50601950Y-42676190D02*
X50640045Y-42714285D01*
X50640045Y-42714285D02*
X50754331Y-42790475D01*
X50754331Y-42790475D02*
X50906712Y-42828571D01*
X50906712Y-42828571D02*
X51211474Y-42828571D01*
X51211474Y-42828571D02*
X51287664Y-42790475D01*
X51287664Y-42790475D02*
X51325760Y-42752380D01*
X51325760Y-42752380D02*
X51363855Y-42676190D01*
X51363855Y-42676190D02*
X51363855Y-42523809D01*
X51363855Y-42523809D02*
X51325760Y-42447618D01*
X51325760Y-42447618D02*
X51287664Y-42409523D01*
X51287664Y-42409523D02*
X51211474Y-42371428D01*
X51211474Y-42371428D02*
X51020998Y-42371428D01*
X51020998Y-42371428D02*
X50944807Y-42409523D01*
X50944807Y-42409523D02*
X50906712Y-42447618D01*
X50906712Y-42447618D02*
X50868617Y-42523809D01*
X50868617Y-42523809D02*
X50868617Y-42676190D01*
X50868617Y-42676190D02*
X50906712Y-42752380D01*
X50906712Y-42752380D02*
X50944807Y-42790475D01*
X50944807Y-42790475D02*
X51020998Y-42828571D01*
D10*
X76017857Y-71981927D02*
X75884524Y-71791451D01*
X75789286Y-71981927D02*
X75789286Y-71581927D01*
X75789286Y-71581927D02*
X75941667Y-71581927D01*
X75941667Y-71581927D02*
X75979762Y-71600975D01*
X75979762Y-71600975D02*
X75998809Y-71620022D01*
X75998809Y-71620022D02*
X76017857Y-71658118D01*
X76017857Y-71658118D02*
X76017857Y-71715260D01*
X76017857Y-71715260D02*
X75998809Y-71753356D01*
X75998809Y-71753356D02*
X75979762Y-71772403D01*
X75979762Y-71772403D02*
X75941667Y-71791451D01*
X75941667Y-71791451D02*
X75789286Y-71791451D01*
X76151190Y-71581927D02*
X76398809Y-71581927D01*
X76398809Y-71581927D02*
X76265476Y-71734308D01*
X76265476Y-71734308D02*
X76322619Y-71734308D01*
X76322619Y-71734308D02*
X76360714Y-71753356D01*
X76360714Y-71753356D02*
X76379762Y-71772403D01*
X76379762Y-71772403D02*
X76398809Y-71810499D01*
X76398809Y-71810499D02*
X76398809Y-71905737D01*
X76398809Y-71905737D02*
X76379762Y-71943832D01*
X76379762Y-71943832D02*
X76360714Y-71962880D01*
X76360714Y-71962880D02*
X76322619Y-71981927D01*
X76322619Y-71981927D02*
X76208333Y-71981927D01*
X76208333Y-71981927D02*
X76170238Y-71962880D01*
X76170238Y-71962880D02*
X76151190Y-71943832D01*
X76646428Y-71581927D02*
X76684523Y-71581927D01*
X76684523Y-71581927D02*
X76722619Y-71600975D01*
X76722619Y-71600975D02*
X76741666Y-71620022D01*
X76741666Y-71620022D02*
X76760714Y-71658118D01*
X76760714Y-71658118D02*
X76779761Y-71734308D01*
X76779761Y-71734308D02*
X76779761Y-71829546D01*
X76779761Y-71829546D02*
X76760714Y-71905737D01*
X76760714Y-71905737D02*
X76741666Y-71943832D01*
X76741666Y-71943832D02*
X76722619Y-71962880D01*
X76722619Y-71962880D02*
X76684523Y-71981927D01*
X76684523Y-71981927D02*
X76646428Y-71981927D01*
X76646428Y-71981927D02*
X76608333Y-71962880D01*
X76608333Y-71962880D02*
X76589285Y-71943832D01*
X76589285Y-71943832D02*
X76570238Y-71905737D01*
X76570238Y-71905737D02*
X76551190Y-71829546D01*
X76551190Y-71829546D02*
X76551190Y-71734308D01*
X76551190Y-71734308D02*
X76570238Y-71658118D01*
X76570238Y-71658118D02*
X76589285Y-71620022D01*
X76589285Y-71620022D02*
X76608333Y-71600975D01*
X76608333Y-71600975D02*
X76646428Y-71581927D01*
X110143832Y-70066666D02*
X110162880Y-70085714D01*
X110162880Y-70085714D02*
X110181927Y-70142856D01*
X110181927Y-70142856D02*
X110181927Y-70180952D01*
X110181927Y-70180952D02*
X110162880Y-70238095D01*
X110162880Y-70238095D02*
X110124784Y-70276190D01*
X110124784Y-70276190D02*
X110086689Y-70295237D01*
X110086689Y-70295237D02*
X110010499Y-70314285D01*
X110010499Y-70314285D02*
X109953356Y-70314285D01*
X109953356Y-70314285D02*
X109877165Y-70295237D01*
X109877165Y-70295237D02*
X109839070Y-70276190D01*
X109839070Y-70276190D02*
X109800975Y-70238095D01*
X109800975Y-70238095D02*
X109781927Y-70180952D01*
X109781927Y-70180952D02*
X109781927Y-70142856D01*
X109781927Y-70142856D02*
X109800975Y-70085714D01*
X109800975Y-70085714D02*
X109820022Y-70066666D01*
X109953356Y-69838095D02*
X109934308Y-69876190D01*
X109934308Y-69876190D02*
X109915260Y-69895237D01*
X109915260Y-69895237D02*
X109877165Y-69914285D01*
X109877165Y-69914285D02*
X109858118Y-69914285D01*
X109858118Y-69914285D02*
X109820022Y-69895237D01*
X109820022Y-69895237D02*
X109800975Y-69876190D01*
X109800975Y-69876190D02*
X109781927Y-69838095D01*
X109781927Y-69838095D02*
X109781927Y-69761904D01*
X109781927Y-69761904D02*
X109800975Y-69723809D01*
X109800975Y-69723809D02*
X109820022Y-69704761D01*
X109820022Y-69704761D02*
X109858118Y-69685714D01*
X109858118Y-69685714D02*
X109877165Y-69685714D01*
X109877165Y-69685714D02*
X109915260Y-69704761D01*
X109915260Y-69704761D02*
X109934308Y-69723809D01*
X109934308Y-69723809D02*
X109953356Y-69761904D01*
X109953356Y-69761904D02*
X109953356Y-69838095D01*
X109953356Y-69838095D02*
X109972403Y-69876190D01*
X109972403Y-69876190D02*
X109991451Y-69895237D01*
X109991451Y-69895237D02*
X110029546Y-69914285D01*
X110029546Y-69914285D02*
X110105737Y-69914285D01*
X110105737Y-69914285D02*
X110143832Y-69895237D01*
X110143832Y-69895237D02*
X110162880Y-69876190D01*
X110162880Y-69876190D02*
X110181927Y-69838095D01*
X110181927Y-69838095D02*
X110181927Y-69761904D01*
X110181927Y-69761904D02*
X110162880Y-69723809D01*
X110162880Y-69723809D02*
X110143832Y-69704761D01*
X110143832Y-69704761D02*
X110105737Y-69685714D01*
X110105737Y-69685714D02*
X110029546Y-69685714D01*
X110029546Y-69685714D02*
X109991451Y-69704761D01*
X109991451Y-69704761D02*
X109972403Y-69723809D01*
X109972403Y-69723809D02*
X109953356Y-69761904D01*
X46742857Y-81261937D02*
X46609524Y-81071461D01*
X46514286Y-81261937D02*
X46514286Y-80861937D01*
X46514286Y-80861937D02*
X46666667Y-80861937D01*
X46666667Y-80861937D02*
X46704762Y-80880985D01*
X46704762Y-80880985D02*
X46723809Y-80900032D01*
X46723809Y-80900032D02*
X46742857Y-80938128D01*
X46742857Y-80938128D02*
X46742857Y-80995270D01*
X46742857Y-80995270D02*
X46723809Y-81033366D01*
X46723809Y-81033366D02*
X46704762Y-81052413D01*
X46704762Y-81052413D02*
X46666667Y-81071461D01*
X46666667Y-81071461D02*
X46514286Y-81071461D01*
X47123809Y-81261937D02*
X46895238Y-81261937D01*
X47009524Y-81261937D02*
X47009524Y-80861937D01*
X47009524Y-80861937D02*
X46971428Y-80919080D01*
X46971428Y-80919080D02*
X46933333Y-80957175D01*
X46933333Y-80957175D02*
X46895238Y-80976223D01*
X47314285Y-81261937D02*
X47390476Y-81261937D01*
X47390476Y-81261937D02*
X47428571Y-81242890D01*
X47428571Y-81242890D02*
X47447619Y-81223842D01*
X47447619Y-81223842D02*
X47485714Y-81166699D01*
X47485714Y-81166699D02*
X47504761Y-81090509D01*
X47504761Y-81090509D02*
X47504761Y-80938128D01*
X47504761Y-80938128D02*
X47485714Y-80900032D01*
X47485714Y-80900032D02*
X47466666Y-80880985D01*
X47466666Y-80880985D02*
X47428571Y-80861937D01*
X47428571Y-80861937D02*
X47352380Y-80861937D01*
X47352380Y-80861937D02*
X47314285Y-80880985D01*
X47314285Y-80880985D02*
X47295238Y-80900032D01*
X47295238Y-80900032D02*
X47276190Y-80938128D01*
X47276190Y-80938128D02*
X47276190Y-81033366D01*
X47276190Y-81033366D02*
X47295238Y-81071461D01*
X47295238Y-81071461D02*
X47314285Y-81090509D01*
X47314285Y-81090509D02*
X47352380Y-81109556D01*
X47352380Y-81109556D02*
X47428571Y-81109556D01*
X47428571Y-81109556D02*
X47466666Y-81090509D01*
X47466666Y-81090509D02*
X47485714Y-81071461D01*
X47485714Y-81071461D02*
X47504761Y-81033366D01*
D11*
X170465476Y-44454819D02*
X170465476Y-45169104D01*
X170465476Y-45169104D02*
X170417857Y-45311961D01*
X170417857Y-45311961D02*
X170322619Y-45407200D01*
X170322619Y-45407200D02*
X170179762Y-45454819D01*
X170179762Y-45454819D02*
X170084524Y-45454819D01*
X171465476Y-45454819D02*
X170894048Y-45454819D01*
X171179762Y-45454819D02*
X171179762Y-44454819D01*
X171179762Y-44454819D02*
X171084524Y-44597676D01*
X171084524Y-44597676D02*
X170989286Y-44692914D01*
X170989286Y-44692914D02*
X170894048Y-44740533D01*
X172417857Y-45454819D02*
X171846429Y-45454819D01*
X172132143Y-45454819D02*
X172132143Y-44454819D01*
X172132143Y-44454819D02*
X172036905Y-44597676D01*
X172036905Y-44597676D02*
X171941667Y-44692914D01*
X171941667Y-44692914D02*
X171846429Y-44740533D01*
X179454819Y-45261904D02*
X179454819Y-44690476D01*
X180454819Y-44976190D02*
X179454819Y-44976190D01*
X180454819Y-44357142D02*
X179454819Y-44357142D01*
X179454819Y-44357142D02*
X179454819Y-43976190D01*
X179454819Y-43976190D02*
X179502438Y-43880952D01*
X179502438Y-43880952D02*
X179550057Y-43833333D01*
X179550057Y-43833333D02*
X179645295Y-43785714D01*
X179645295Y-43785714D02*
X179788152Y-43785714D01*
X179788152Y-43785714D02*
X179883390Y-43833333D01*
X179883390Y-43833333D02*
X179931009Y-43880952D01*
X179931009Y-43880952D02*
X179978628Y-43976190D01*
X179978628Y-43976190D02*
X179978628Y-44357142D01*
X179550057Y-43404761D02*
X179502438Y-43357142D01*
X179502438Y-43357142D02*
X179454819Y-43261904D01*
X179454819Y-43261904D02*
X179454819Y-43023809D01*
X179454819Y-43023809D02*
X179502438Y-42928571D01*
X179502438Y-42928571D02*
X179550057Y-42880952D01*
X179550057Y-42880952D02*
X179645295Y-42833333D01*
X179645295Y-42833333D02*
X179740533Y-42833333D01*
X179740533Y-42833333D02*
X179883390Y-42880952D01*
X179883390Y-42880952D02*
X180454819Y-43452380D01*
X180454819Y-43452380D02*
X180454819Y-42833333D01*
D10*
X42742857Y-95261937D02*
X42609524Y-95071461D01*
X42514286Y-95261937D02*
X42514286Y-94861937D01*
X42514286Y-94861937D02*
X42666667Y-94861937D01*
X42666667Y-94861937D02*
X42704762Y-94880985D01*
X42704762Y-94880985D02*
X42723809Y-94900032D01*
X42723809Y-94900032D02*
X42742857Y-94938128D01*
X42742857Y-94938128D02*
X42742857Y-94995270D01*
X42742857Y-94995270D02*
X42723809Y-95033366D01*
X42723809Y-95033366D02*
X42704762Y-95052413D01*
X42704762Y-95052413D02*
X42666667Y-95071461D01*
X42666667Y-95071461D02*
X42514286Y-95071461D01*
X43123809Y-95261937D02*
X42895238Y-95261937D01*
X43009524Y-95261937D02*
X43009524Y-94861937D01*
X43009524Y-94861937D02*
X42971428Y-94919080D01*
X42971428Y-94919080D02*
X42933333Y-94957175D01*
X42933333Y-94957175D02*
X42895238Y-94976223D01*
X43352380Y-95033366D02*
X43314285Y-95014318D01*
X43314285Y-95014318D02*
X43295238Y-94995270D01*
X43295238Y-94995270D02*
X43276190Y-94957175D01*
X43276190Y-94957175D02*
X43276190Y-94938128D01*
X43276190Y-94938128D02*
X43295238Y-94900032D01*
X43295238Y-94900032D02*
X43314285Y-94880985D01*
X43314285Y-94880985D02*
X43352380Y-94861937D01*
X43352380Y-94861937D02*
X43428571Y-94861937D01*
X43428571Y-94861937D02*
X43466666Y-94880985D01*
X43466666Y-94880985D02*
X43485714Y-94900032D01*
X43485714Y-94900032D02*
X43504761Y-94938128D01*
X43504761Y-94938128D02*
X43504761Y-94957175D01*
X43504761Y-94957175D02*
X43485714Y-94995270D01*
X43485714Y-94995270D02*
X43466666Y-95014318D01*
X43466666Y-95014318D02*
X43428571Y-95033366D01*
X43428571Y-95033366D02*
X43352380Y-95033366D01*
X43352380Y-95033366D02*
X43314285Y-95052413D01*
X43314285Y-95052413D02*
X43295238Y-95071461D01*
X43295238Y-95071461D02*
X43276190Y-95109556D01*
X43276190Y-95109556D02*
X43276190Y-95185747D01*
X43276190Y-95185747D02*
X43295238Y-95223842D01*
X43295238Y-95223842D02*
X43314285Y-95242890D01*
X43314285Y-95242890D02*
X43352380Y-95261937D01*
X43352380Y-95261937D02*
X43428571Y-95261937D01*
X43428571Y-95261937D02*
X43466666Y-95242890D01*
X43466666Y-95242890D02*
X43485714Y-95223842D01*
X43485714Y-95223842D02*
X43504761Y-95185747D01*
X43504761Y-95185747D02*
X43504761Y-95109556D01*
X43504761Y-95109556D02*
X43485714Y-95071461D01*
X43485714Y-95071461D02*
X43466666Y-95052413D01*
X43466666Y-95052413D02*
X43428571Y-95033366D01*
X42742857Y-83181927D02*
X42609524Y-82991451D01*
X42514286Y-83181927D02*
X42514286Y-82781927D01*
X42514286Y-82781927D02*
X42666667Y-82781927D01*
X42666667Y-82781927D02*
X42704762Y-82800975D01*
X42704762Y-82800975D02*
X42723809Y-82820022D01*
X42723809Y-82820022D02*
X42742857Y-82858118D01*
X42742857Y-82858118D02*
X42742857Y-82915260D01*
X42742857Y-82915260D02*
X42723809Y-82953356D01*
X42723809Y-82953356D02*
X42704762Y-82972403D01*
X42704762Y-82972403D02*
X42666667Y-82991451D01*
X42666667Y-82991451D02*
X42514286Y-82991451D01*
X42895238Y-82820022D02*
X42914286Y-82800975D01*
X42914286Y-82800975D02*
X42952381Y-82781927D01*
X42952381Y-82781927D02*
X43047619Y-82781927D01*
X43047619Y-82781927D02*
X43085714Y-82800975D01*
X43085714Y-82800975D02*
X43104762Y-82820022D01*
X43104762Y-82820022D02*
X43123809Y-82858118D01*
X43123809Y-82858118D02*
X43123809Y-82896213D01*
X43123809Y-82896213D02*
X43104762Y-82953356D01*
X43104762Y-82953356D02*
X42876190Y-83181927D01*
X42876190Y-83181927D02*
X43123809Y-83181927D01*
X43371428Y-82781927D02*
X43409523Y-82781927D01*
X43409523Y-82781927D02*
X43447619Y-82800975D01*
X43447619Y-82800975D02*
X43466666Y-82820022D01*
X43466666Y-82820022D02*
X43485714Y-82858118D01*
X43485714Y-82858118D02*
X43504761Y-82934308D01*
X43504761Y-82934308D02*
X43504761Y-83029546D01*
X43504761Y-83029546D02*
X43485714Y-83105737D01*
X43485714Y-83105737D02*
X43466666Y-83143832D01*
X43466666Y-83143832D02*
X43447619Y-83162880D01*
X43447619Y-83162880D02*
X43409523Y-83181927D01*
X43409523Y-83181927D02*
X43371428Y-83181927D01*
X43371428Y-83181927D02*
X43333333Y-83162880D01*
X43333333Y-83162880D02*
X43314285Y-83143832D01*
X43314285Y-83143832D02*
X43295238Y-83105737D01*
X43295238Y-83105737D02*
X43276190Y-83029546D01*
X43276190Y-83029546D02*
X43276190Y-82934308D01*
X43276190Y-82934308D02*
X43295238Y-82858118D01*
X43295238Y-82858118D02*
X43314285Y-82820022D01*
X43314285Y-82820022D02*
X43333333Y-82800975D01*
X43333333Y-82800975D02*
X43371428Y-82781927D01*
X42742857Y-61181927D02*
X42609524Y-60991451D01*
X42514286Y-61181927D02*
X42514286Y-60781927D01*
X42514286Y-60781927D02*
X42666667Y-60781927D01*
X42666667Y-60781927D02*
X42704762Y-60800975D01*
X42704762Y-60800975D02*
X42723809Y-60820022D01*
X42723809Y-60820022D02*
X42742857Y-60858118D01*
X42742857Y-60858118D02*
X42742857Y-60915260D01*
X42742857Y-60915260D02*
X42723809Y-60953356D01*
X42723809Y-60953356D02*
X42704762Y-60972403D01*
X42704762Y-60972403D02*
X42666667Y-60991451D01*
X42666667Y-60991451D02*
X42514286Y-60991451D01*
X42895238Y-60820022D02*
X42914286Y-60800975D01*
X42914286Y-60800975D02*
X42952381Y-60781927D01*
X42952381Y-60781927D02*
X43047619Y-60781927D01*
X43047619Y-60781927D02*
X43085714Y-60800975D01*
X43085714Y-60800975D02*
X43104762Y-60820022D01*
X43104762Y-60820022D02*
X43123809Y-60858118D01*
X43123809Y-60858118D02*
X43123809Y-60896213D01*
X43123809Y-60896213D02*
X43104762Y-60953356D01*
X43104762Y-60953356D02*
X42876190Y-61181927D01*
X42876190Y-61181927D02*
X43123809Y-61181927D01*
X43466666Y-60915260D02*
X43466666Y-61181927D01*
X43371428Y-60762880D02*
X43276190Y-61048594D01*
X43276190Y-61048594D02*
X43523809Y-61048594D01*
D11*
X142238095Y-106454819D02*
X142238095Y-105454819D01*
X142238095Y-105931009D02*
X142809523Y-105931009D01*
X142809523Y-106454819D02*
X142809523Y-105454819D01*
X143809523Y-106454819D02*
X143238095Y-106454819D01*
X143523809Y-106454819D02*
X143523809Y-105454819D01*
X143523809Y-105454819D02*
X143428571Y-105597676D01*
X143428571Y-105597676D02*
X143333333Y-105692914D01*
X143333333Y-105692914D02*
X143238095Y-105740533D01*
D10*
X72642857Y-72981927D02*
X72509524Y-72791451D01*
X72414286Y-72981927D02*
X72414286Y-72581927D01*
X72414286Y-72581927D02*
X72566667Y-72581927D01*
X72566667Y-72581927D02*
X72604762Y-72600975D01*
X72604762Y-72600975D02*
X72623809Y-72620022D01*
X72623809Y-72620022D02*
X72642857Y-72658118D01*
X72642857Y-72658118D02*
X72642857Y-72715260D01*
X72642857Y-72715260D02*
X72623809Y-72753356D01*
X72623809Y-72753356D02*
X72604762Y-72772403D01*
X72604762Y-72772403D02*
X72566667Y-72791451D01*
X72566667Y-72791451D02*
X72414286Y-72791451D01*
X72795238Y-72620022D02*
X72814286Y-72600975D01*
X72814286Y-72600975D02*
X72852381Y-72581927D01*
X72852381Y-72581927D02*
X72947619Y-72581927D01*
X72947619Y-72581927D02*
X72985714Y-72600975D01*
X72985714Y-72600975D02*
X73004762Y-72620022D01*
X73004762Y-72620022D02*
X73023809Y-72658118D01*
X73023809Y-72658118D02*
X73023809Y-72696213D01*
X73023809Y-72696213D02*
X73004762Y-72753356D01*
X73004762Y-72753356D02*
X72776190Y-72981927D01*
X72776190Y-72981927D02*
X73023809Y-72981927D01*
X73214285Y-72981927D02*
X73290476Y-72981927D01*
X73290476Y-72981927D02*
X73328571Y-72962880D01*
X73328571Y-72962880D02*
X73347619Y-72943832D01*
X73347619Y-72943832D02*
X73385714Y-72886689D01*
X73385714Y-72886689D02*
X73404761Y-72810499D01*
X73404761Y-72810499D02*
X73404761Y-72658118D01*
X73404761Y-72658118D02*
X73385714Y-72620022D01*
X73385714Y-72620022D02*
X73366666Y-72600975D01*
X73366666Y-72600975D02*
X73328571Y-72581927D01*
X73328571Y-72581927D02*
X73252380Y-72581927D01*
X73252380Y-72581927D02*
X73214285Y-72600975D01*
X73214285Y-72600975D02*
X73195238Y-72620022D01*
X73195238Y-72620022D02*
X73176190Y-72658118D01*
X73176190Y-72658118D02*
X73176190Y-72753356D01*
X73176190Y-72753356D02*
X73195238Y-72791451D01*
X73195238Y-72791451D02*
X73214285Y-72810499D01*
X73214285Y-72810499D02*
X73252380Y-72829546D01*
X73252380Y-72829546D02*
X73328571Y-72829546D01*
X73328571Y-72829546D02*
X73366666Y-72810499D01*
X73366666Y-72810499D02*
X73385714Y-72791451D01*
X73385714Y-72791451D02*
X73404761Y-72753356D01*
D11*
X136238095Y-44454819D02*
X136238095Y-43454819D01*
X136238095Y-43931009D02*
X136809523Y-43931009D01*
X136809523Y-44454819D02*
X136809523Y-43454819D01*
X137238095Y-43550057D02*
X137285714Y-43502438D01*
X137285714Y-43502438D02*
X137380952Y-43454819D01*
X137380952Y-43454819D02*
X137619047Y-43454819D01*
X137619047Y-43454819D02*
X137714285Y-43502438D01*
X137714285Y-43502438D02*
X137761904Y-43550057D01*
X137761904Y-43550057D02*
X137809523Y-43645295D01*
X137809523Y-43645295D02*
X137809523Y-43740533D01*
X137809523Y-43740533D02*
X137761904Y-43883390D01*
X137761904Y-43883390D02*
X137190476Y-44454819D01*
X137190476Y-44454819D02*
X137809523Y-44454819D01*
X187238095Y-44454819D02*
X187238095Y-43454819D01*
X187238095Y-43931009D02*
X187809523Y-43931009D01*
X187809523Y-44454819D02*
X187809523Y-43454819D01*
X188714285Y-43788152D02*
X188714285Y-44454819D01*
X188476190Y-43407200D02*
X188238095Y-44121485D01*
X188238095Y-44121485D02*
X188857142Y-44121485D01*
X74636905Y-42129819D02*
X75208333Y-42129819D01*
X74922619Y-43129819D02*
X74922619Y-42129819D01*
X75541667Y-43129819D02*
X75541667Y-42129819D01*
X75541667Y-42129819D02*
X75922619Y-42129819D01*
X75922619Y-42129819D02*
X76017857Y-42177438D01*
X76017857Y-42177438D02*
X76065476Y-42225057D01*
X76065476Y-42225057D02*
X76113095Y-42320295D01*
X76113095Y-42320295D02*
X76113095Y-42463152D01*
X76113095Y-42463152D02*
X76065476Y-42558390D01*
X76065476Y-42558390D02*
X76017857Y-42606009D01*
X76017857Y-42606009D02*
X75922619Y-42653628D01*
X75922619Y-42653628D02*
X75541667Y-42653628D01*
X77065476Y-43129819D02*
X76494048Y-43129819D01*
X76779762Y-43129819D02*
X76779762Y-42129819D01*
X76779762Y-42129819D02*
X76684524Y-42272676D01*
X76684524Y-42272676D02*
X76589286Y-42367914D01*
X76589286Y-42367914D02*
X76494048Y-42415533D01*
X77922619Y-42129819D02*
X77732143Y-42129819D01*
X77732143Y-42129819D02*
X77636905Y-42177438D01*
X77636905Y-42177438D02*
X77589286Y-42225057D01*
X77589286Y-42225057D02*
X77494048Y-42367914D01*
X77494048Y-42367914D02*
X77446429Y-42558390D01*
X77446429Y-42558390D02*
X77446429Y-42939342D01*
X77446429Y-42939342D02*
X77494048Y-43034580D01*
X77494048Y-43034580D02*
X77541667Y-43082200D01*
X77541667Y-43082200D02*
X77636905Y-43129819D01*
X77636905Y-43129819D02*
X77827381Y-43129819D01*
X77827381Y-43129819D02*
X77922619Y-43082200D01*
X77922619Y-43082200D02*
X77970238Y-43034580D01*
X77970238Y-43034580D02*
X78017857Y-42939342D01*
X78017857Y-42939342D02*
X78017857Y-42701247D01*
X78017857Y-42701247D02*
X77970238Y-42606009D01*
X77970238Y-42606009D02*
X77922619Y-42558390D01*
X77922619Y-42558390D02*
X77827381Y-42510771D01*
X77827381Y-42510771D02*
X77636905Y-42510771D01*
X77636905Y-42510771D02*
X77541667Y-42558390D01*
X77541667Y-42558390D02*
X77494048Y-42606009D01*
X77494048Y-42606009D02*
X77446429Y-42701247D01*
X66465476Y-85979819D02*
X66465476Y-86694104D01*
X66465476Y-86694104D02*
X66417857Y-86836961D01*
X66417857Y-86836961D02*
X66322619Y-86932200D01*
X66322619Y-86932200D02*
X66179762Y-86979819D01*
X66179762Y-86979819D02*
X66084524Y-86979819D01*
X67465476Y-86979819D02*
X66894048Y-86979819D01*
X67179762Y-86979819D02*
X67179762Y-85979819D01*
X67179762Y-85979819D02*
X67084524Y-86122676D01*
X67084524Y-86122676D02*
X66989286Y-86217914D01*
X66989286Y-86217914D02*
X66894048Y-86265533D01*
X68322619Y-85979819D02*
X68132143Y-85979819D01*
X68132143Y-85979819D02*
X68036905Y-86027438D01*
X68036905Y-86027438D02*
X67989286Y-86075057D01*
X67989286Y-86075057D02*
X67894048Y-86217914D01*
X67894048Y-86217914D02*
X67846429Y-86408390D01*
X67846429Y-86408390D02*
X67846429Y-86789342D01*
X67846429Y-86789342D02*
X67894048Y-86884580D01*
X67894048Y-86884580D02*
X67941667Y-86932200D01*
X67941667Y-86932200D02*
X68036905Y-86979819D01*
X68036905Y-86979819D02*
X68227381Y-86979819D01*
X68227381Y-86979819D02*
X68322619Y-86932200D01*
X68322619Y-86932200D02*
X68370238Y-86884580D01*
X68370238Y-86884580D02*
X68417857Y-86789342D01*
X68417857Y-86789342D02*
X68417857Y-86551247D01*
X68417857Y-86551247D02*
X68370238Y-86456009D01*
X68370238Y-86456009D02*
X68322619Y-86408390D01*
X68322619Y-86408390D02*
X68227381Y-86360771D01*
X68227381Y-86360771D02*
X68036905Y-86360771D01*
X68036905Y-86360771D02*
X67941667Y-86408390D01*
X67941667Y-86408390D02*
X67894048Y-86456009D01*
X67894048Y-86456009D02*
X67846429Y-86551247D01*
D10*
X46742857Y-93181927D02*
X46609524Y-92991451D01*
X46514286Y-93181927D02*
X46514286Y-92781927D01*
X46514286Y-92781927D02*
X46666667Y-92781927D01*
X46666667Y-92781927D02*
X46704762Y-92800975D01*
X46704762Y-92800975D02*
X46723809Y-92820022D01*
X46723809Y-92820022D02*
X46742857Y-92858118D01*
X46742857Y-92858118D02*
X46742857Y-92915260D01*
X46742857Y-92915260D02*
X46723809Y-92953356D01*
X46723809Y-92953356D02*
X46704762Y-92972403D01*
X46704762Y-92972403D02*
X46666667Y-92991451D01*
X46666667Y-92991451D02*
X46514286Y-92991451D01*
X47123809Y-93181927D02*
X46895238Y-93181927D01*
X47009524Y-93181927D02*
X47009524Y-92781927D01*
X47009524Y-92781927D02*
X46971428Y-92839070D01*
X46971428Y-92839070D02*
X46933333Y-92877165D01*
X46933333Y-92877165D02*
X46895238Y-92896213D01*
X47257142Y-92781927D02*
X47523809Y-92781927D01*
X47523809Y-92781927D02*
X47352380Y-93181927D01*
D11*
X123454819Y-53333333D02*
X124169104Y-53333333D01*
X124169104Y-53333333D02*
X124311961Y-53380952D01*
X124311961Y-53380952D02*
X124407200Y-53476190D01*
X124407200Y-53476190D02*
X124454819Y-53619047D01*
X124454819Y-53619047D02*
X124454819Y-53714285D01*
X124454819Y-52333333D02*
X124454819Y-52904761D01*
X124454819Y-52619047D02*
X123454819Y-52619047D01*
X123454819Y-52619047D02*
X123597676Y-52714285D01*
X123597676Y-52714285D02*
X123692914Y-52809523D01*
X123692914Y-52809523D02*
X123740533Y-52904761D01*
X187238095Y-106454819D02*
X187238095Y-105454819D01*
X187238095Y-105931009D02*
X187809523Y-105931009D01*
X187809523Y-106454819D02*
X187809523Y-105454819D01*
X188190476Y-105454819D02*
X188809523Y-105454819D01*
X188809523Y-105454819D02*
X188476190Y-105835771D01*
X188476190Y-105835771D02*
X188619047Y-105835771D01*
X188619047Y-105835771D02*
X188714285Y-105883390D01*
X188714285Y-105883390D02*
X188761904Y-105931009D01*
X188761904Y-105931009D02*
X188809523Y-106026247D01*
X188809523Y-106026247D02*
X188809523Y-106264342D01*
X188809523Y-106264342D02*
X188761904Y-106359580D01*
X188761904Y-106359580D02*
X188714285Y-106407200D01*
X188714285Y-106407200D02*
X188619047Y-106454819D01*
X188619047Y-106454819D02*
X188333333Y-106454819D01*
X188333333Y-106454819D02*
X188238095Y-106407200D01*
X188238095Y-106407200D02*
X188190476Y-106359580D01*
X181454819Y-106261904D02*
X181454819Y-105690476D01*
X182454819Y-105976190D02*
X181454819Y-105976190D01*
X182454819Y-105357142D02*
X181454819Y-105357142D01*
X181454819Y-105357142D02*
X181454819Y-104976190D01*
X181454819Y-104976190D02*
X181502438Y-104880952D01*
X181502438Y-104880952D02*
X181550057Y-104833333D01*
X181550057Y-104833333D02*
X181645295Y-104785714D01*
X181645295Y-104785714D02*
X181788152Y-104785714D01*
X181788152Y-104785714D02*
X181883390Y-104833333D01*
X181883390Y-104833333D02*
X181931009Y-104880952D01*
X181931009Y-104880952D02*
X181978628Y-104976190D01*
X181978628Y-104976190D02*
X181978628Y-105357142D01*
X181454819Y-104452380D02*
X181454819Y-103785714D01*
X181454819Y-103785714D02*
X182454819Y-104214285D01*
D10*
X46742857Y-59181927D02*
X46609524Y-58991451D01*
X46514286Y-59181927D02*
X46514286Y-58781927D01*
X46514286Y-58781927D02*
X46666667Y-58781927D01*
X46666667Y-58781927D02*
X46704762Y-58800975D01*
X46704762Y-58800975D02*
X46723809Y-58820022D01*
X46723809Y-58820022D02*
X46742857Y-58858118D01*
X46742857Y-58858118D02*
X46742857Y-58915260D01*
X46742857Y-58915260D02*
X46723809Y-58953356D01*
X46723809Y-58953356D02*
X46704762Y-58972403D01*
X46704762Y-58972403D02*
X46666667Y-58991451D01*
X46666667Y-58991451D02*
X46514286Y-58991451D01*
X46895238Y-58820022D02*
X46914286Y-58800975D01*
X46914286Y-58800975D02*
X46952381Y-58781927D01*
X46952381Y-58781927D02*
X47047619Y-58781927D01*
X47047619Y-58781927D02*
X47085714Y-58800975D01*
X47085714Y-58800975D02*
X47104762Y-58820022D01*
X47104762Y-58820022D02*
X47123809Y-58858118D01*
X47123809Y-58858118D02*
X47123809Y-58896213D01*
X47123809Y-58896213D02*
X47104762Y-58953356D01*
X47104762Y-58953356D02*
X46876190Y-59181927D01*
X46876190Y-59181927D02*
X47123809Y-59181927D01*
X47257142Y-58781927D02*
X47504761Y-58781927D01*
X47504761Y-58781927D02*
X47371428Y-58934308D01*
X47371428Y-58934308D02*
X47428571Y-58934308D01*
X47428571Y-58934308D02*
X47466666Y-58953356D01*
X47466666Y-58953356D02*
X47485714Y-58972403D01*
X47485714Y-58972403D02*
X47504761Y-59010499D01*
X47504761Y-59010499D02*
X47504761Y-59105737D01*
X47504761Y-59105737D02*
X47485714Y-59143832D01*
X47485714Y-59143832D02*
X47466666Y-59162880D01*
X47466666Y-59162880D02*
X47428571Y-59181927D01*
X47428571Y-59181927D02*
X47314285Y-59181927D01*
X47314285Y-59181927D02*
X47276190Y-59162880D01*
X47276190Y-59162880D02*
X47257142Y-59143832D01*
X42742857Y-50181927D02*
X42609524Y-49991451D01*
X42514286Y-50181927D02*
X42514286Y-49781927D01*
X42514286Y-49781927D02*
X42666667Y-49781927D01*
X42666667Y-49781927D02*
X42704762Y-49800975D01*
X42704762Y-49800975D02*
X42723809Y-49820022D01*
X42723809Y-49820022D02*
X42742857Y-49858118D01*
X42742857Y-49858118D02*
X42742857Y-49915260D01*
X42742857Y-49915260D02*
X42723809Y-49953356D01*
X42723809Y-49953356D02*
X42704762Y-49972403D01*
X42704762Y-49972403D02*
X42666667Y-49991451D01*
X42666667Y-49991451D02*
X42514286Y-49991451D01*
X42895238Y-49820022D02*
X42914286Y-49800975D01*
X42914286Y-49800975D02*
X42952381Y-49781927D01*
X42952381Y-49781927D02*
X43047619Y-49781927D01*
X43047619Y-49781927D02*
X43085714Y-49800975D01*
X43085714Y-49800975D02*
X43104762Y-49820022D01*
X43104762Y-49820022D02*
X43123809Y-49858118D01*
X43123809Y-49858118D02*
X43123809Y-49896213D01*
X43123809Y-49896213D02*
X43104762Y-49953356D01*
X43104762Y-49953356D02*
X42876190Y-50181927D01*
X42876190Y-50181927D02*
X43123809Y-50181927D01*
X43466666Y-49781927D02*
X43390476Y-49781927D01*
X43390476Y-49781927D02*
X43352380Y-49800975D01*
X43352380Y-49800975D02*
X43333333Y-49820022D01*
X43333333Y-49820022D02*
X43295238Y-49877165D01*
X43295238Y-49877165D02*
X43276190Y-49953356D01*
X43276190Y-49953356D02*
X43276190Y-50105737D01*
X43276190Y-50105737D02*
X43295238Y-50143832D01*
X43295238Y-50143832D02*
X43314285Y-50162880D01*
X43314285Y-50162880D02*
X43352380Y-50181927D01*
X43352380Y-50181927D02*
X43428571Y-50181927D01*
X43428571Y-50181927D02*
X43466666Y-50162880D01*
X43466666Y-50162880D02*
X43485714Y-50143832D01*
X43485714Y-50143832D02*
X43504761Y-50105737D01*
X43504761Y-50105737D02*
X43504761Y-50010499D01*
X43504761Y-50010499D02*
X43485714Y-49972403D01*
X43485714Y-49972403D02*
X43466666Y-49953356D01*
X43466666Y-49953356D02*
X43428571Y-49934308D01*
X43428571Y-49934308D02*
X43352380Y-49934308D01*
X43352380Y-49934308D02*
X43314285Y-49953356D01*
X43314285Y-49953356D02*
X43295238Y-49972403D01*
X43295238Y-49972403D02*
X43276190Y-50010499D01*
X46742857Y-70181927D02*
X46609524Y-69991451D01*
X46514286Y-70181927D02*
X46514286Y-69781927D01*
X46514286Y-69781927D02*
X46666667Y-69781927D01*
X46666667Y-69781927D02*
X46704762Y-69800975D01*
X46704762Y-69800975D02*
X46723809Y-69820022D01*
X46723809Y-69820022D02*
X46742857Y-69858118D01*
X46742857Y-69858118D02*
X46742857Y-69915260D01*
X46742857Y-69915260D02*
X46723809Y-69953356D01*
X46723809Y-69953356D02*
X46704762Y-69972403D01*
X46704762Y-69972403D02*
X46666667Y-69991451D01*
X46666667Y-69991451D02*
X46514286Y-69991451D01*
X46895238Y-69820022D02*
X46914286Y-69800975D01*
X46914286Y-69800975D02*
X46952381Y-69781927D01*
X46952381Y-69781927D02*
X47047619Y-69781927D01*
X47047619Y-69781927D02*
X47085714Y-69800975D01*
X47085714Y-69800975D02*
X47104762Y-69820022D01*
X47104762Y-69820022D02*
X47123809Y-69858118D01*
X47123809Y-69858118D02*
X47123809Y-69896213D01*
X47123809Y-69896213D02*
X47104762Y-69953356D01*
X47104762Y-69953356D02*
X46876190Y-70181927D01*
X46876190Y-70181927D02*
X47123809Y-70181927D01*
X47504761Y-70181927D02*
X47276190Y-70181927D01*
X47390476Y-70181927D02*
X47390476Y-69781927D01*
X47390476Y-69781927D02*
X47352380Y-69839070D01*
X47352380Y-69839070D02*
X47314285Y-69877165D01*
X47314285Y-69877165D02*
X47276190Y-69896213D01*
X112181927Y-70066666D02*
X111991451Y-70199999D01*
X112181927Y-70295237D02*
X111781927Y-70295237D01*
X111781927Y-70295237D02*
X111781927Y-70142856D01*
X111781927Y-70142856D02*
X111800975Y-70104761D01*
X111800975Y-70104761D02*
X111820022Y-70085714D01*
X111820022Y-70085714D02*
X111858118Y-70066666D01*
X111858118Y-70066666D02*
X111915260Y-70066666D01*
X111915260Y-70066666D02*
X111953356Y-70085714D01*
X111953356Y-70085714D02*
X111972403Y-70104761D01*
X111972403Y-70104761D02*
X111991451Y-70142856D01*
X111991451Y-70142856D02*
X111991451Y-70295237D01*
X111820022Y-69914285D02*
X111800975Y-69895237D01*
X111800975Y-69895237D02*
X111781927Y-69857142D01*
X111781927Y-69857142D02*
X111781927Y-69761904D01*
X111781927Y-69761904D02*
X111800975Y-69723809D01*
X111800975Y-69723809D02*
X111820022Y-69704761D01*
X111820022Y-69704761D02*
X111858118Y-69685714D01*
X111858118Y-69685714D02*
X111896213Y-69685714D01*
X111896213Y-69685714D02*
X111953356Y-69704761D01*
X111953356Y-69704761D02*
X112181927Y-69933333D01*
X112181927Y-69933333D02*
X112181927Y-69685714D01*
D12*
X71787664Y-49633332D02*
X71825760Y-49671428D01*
X71825760Y-49671428D02*
X71863855Y-49785713D01*
X71863855Y-49785713D02*
X71863855Y-49861904D01*
X71863855Y-49861904D02*
X71825760Y-49976190D01*
X71825760Y-49976190D02*
X71749569Y-50052380D01*
X71749569Y-50052380D02*
X71673379Y-50090475D01*
X71673379Y-50090475D02*
X71520998Y-50128571D01*
X71520998Y-50128571D02*
X71406712Y-50128571D01*
X71406712Y-50128571D02*
X71254331Y-50090475D01*
X71254331Y-50090475D02*
X71178140Y-50052380D01*
X71178140Y-50052380D02*
X71101950Y-49976190D01*
X71101950Y-49976190D02*
X71063855Y-49861904D01*
X71063855Y-49861904D02*
X71063855Y-49785713D01*
X71063855Y-49785713D02*
X71101950Y-49671428D01*
X71101950Y-49671428D02*
X71140045Y-49633332D01*
X71863855Y-48871428D02*
X71863855Y-49328571D01*
X71863855Y-49099999D02*
X71063855Y-49099999D01*
X71063855Y-49099999D02*
X71178140Y-49176190D01*
X71178140Y-49176190D02*
X71254331Y-49252380D01*
X71254331Y-49252380D02*
X71292426Y-49328571D01*
X69187664Y-49633332D02*
X69225760Y-49671428D01*
X69225760Y-49671428D02*
X69263855Y-49785713D01*
X69263855Y-49785713D02*
X69263855Y-49861904D01*
X69263855Y-49861904D02*
X69225760Y-49976190D01*
X69225760Y-49976190D02*
X69149569Y-50052380D01*
X69149569Y-50052380D02*
X69073379Y-50090475D01*
X69073379Y-50090475D02*
X68920998Y-50128571D01*
X68920998Y-50128571D02*
X68806712Y-50128571D01*
X68806712Y-50128571D02*
X68654331Y-50090475D01*
X68654331Y-50090475D02*
X68578140Y-50052380D01*
X68578140Y-50052380D02*
X68501950Y-49976190D01*
X68501950Y-49976190D02*
X68463855Y-49861904D01*
X68463855Y-49861904D02*
X68463855Y-49785713D01*
X68463855Y-49785713D02*
X68501950Y-49671428D01*
X68501950Y-49671428D02*
X68540045Y-49633332D01*
X68540045Y-49328571D02*
X68501950Y-49290475D01*
X68501950Y-49290475D02*
X68463855Y-49214285D01*
X68463855Y-49214285D02*
X68463855Y-49023809D01*
X68463855Y-49023809D02*
X68501950Y-48947618D01*
X68501950Y-48947618D02*
X68540045Y-48909523D01*
X68540045Y-48909523D02*
X68616236Y-48871428D01*
X68616236Y-48871428D02*
X68692426Y-48871428D01*
X68692426Y-48871428D02*
X68806712Y-48909523D01*
X68806712Y-48909523D02*
X69263855Y-49366666D01*
X69263855Y-49366666D02*
X69263855Y-48871428D01*
D11*
X74380476Y-104854819D02*
X74380476Y-105569104D01*
X74380476Y-105569104D02*
X74332857Y-105711961D01*
X74332857Y-105711961D02*
X74237619Y-105807200D01*
X74237619Y-105807200D02*
X74094762Y-105854819D01*
X74094762Y-105854819D02*
X73999524Y-105854819D01*
X75380476Y-105854819D02*
X74809048Y-105854819D01*
X75094762Y-105854819D02*
X75094762Y-104854819D01*
X75094762Y-104854819D02*
X74999524Y-104997676D01*
X74999524Y-104997676D02*
X74904286Y-105092914D01*
X74904286Y-105092914D02*
X74809048Y-105140533D01*
X75713810Y-104854819D02*
X76332857Y-104854819D01*
X76332857Y-104854819D02*
X75999524Y-105235771D01*
X75999524Y-105235771D02*
X76142381Y-105235771D01*
X76142381Y-105235771D02*
X76237619Y-105283390D01*
X76237619Y-105283390D02*
X76285238Y-105331009D01*
X76285238Y-105331009D02*
X76332857Y-105426247D01*
X76332857Y-105426247D02*
X76332857Y-105664342D01*
X76332857Y-105664342D02*
X76285238Y-105759580D01*
X76285238Y-105759580D02*
X76237619Y-105807200D01*
X76237619Y-105807200D02*
X76142381Y-105854819D01*
X76142381Y-105854819D02*
X75856667Y-105854819D01*
X75856667Y-105854819D02*
X75761429Y-105807200D01*
X75761429Y-105807200D02*
X75713810Y-105759580D01*
D10*
X42742857Y-72181937D02*
X42609524Y-71991461D01*
X42514286Y-72181937D02*
X42514286Y-71781937D01*
X42514286Y-71781937D02*
X42666667Y-71781937D01*
X42666667Y-71781937D02*
X42704762Y-71800985D01*
X42704762Y-71800985D02*
X42723809Y-71820032D01*
X42723809Y-71820032D02*
X42742857Y-71858128D01*
X42742857Y-71858128D02*
X42742857Y-71915270D01*
X42742857Y-71915270D02*
X42723809Y-71953366D01*
X42723809Y-71953366D02*
X42704762Y-71972413D01*
X42704762Y-71972413D02*
X42666667Y-71991461D01*
X42666667Y-71991461D02*
X42514286Y-71991461D01*
X42895238Y-71820032D02*
X42914286Y-71800985D01*
X42914286Y-71800985D02*
X42952381Y-71781937D01*
X42952381Y-71781937D02*
X43047619Y-71781937D01*
X43047619Y-71781937D02*
X43085714Y-71800985D01*
X43085714Y-71800985D02*
X43104762Y-71820032D01*
X43104762Y-71820032D02*
X43123809Y-71858128D01*
X43123809Y-71858128D02*
X43123809Y-71896223D01*
X43123809Y-71896223D02*
X43104762Y-71953366D01*
X43104762Y-71953366D02*
X42876190Y-72181937D01*
X42876190Y-72181937D02*
X43123809Y-72181937D01*
X43276190Y-71820032D02*
X43295238Y-71800985D01*
X43295238Y-71800985D02*
X43333333Y-71781937D01*
X43333333Y-71781937D02*
X43428571Y-71781937D01*
X43428571Y-71781937D02*
X43466666Y-71800985D01*
X43466666Y-71800985D02*
X43485714Y-71820032D01*
X43485714Y-71820032D02*
X43504761Y-71858128D01*
X43504761Y-71858128D02*
X43504761Y-71896223D01*
X43504761Y-71896223D02*
X43485714Y-71953366D01*
X43485714Y-71953366D02*
X43257142Y-72181937D01*
X43257142Y-72181937D02*
X43504761Y-72181937D01*
D11*
X69361905Y-42129819D02*
X69933333Y-42129819D01*
X69647619Y-43129819D02*
X69647619Y-42129819D01*
X70266667Y-43129819D02*
X70266667Y-42129819D01*
X70266667Y-42129819D02*
X70647619Y-42129819D01*
X70647619Y-42129819D02*
X70742857Y-42177438D01*
X70742857Y-42177438D02*
X70790476Y-42225057D01*
X70790476Y-42225057D02*
X70838095Y-42320295D01*
X70838095Y-42320295D02*
X70838095Y-42463152D01*
X70838095Y-42463152D02*
X70790476Y-42558390D01*
X70790476Y-42558390D02*
X70742857Y-42606009D01*
X70742857Y-42606009D02*
X70647619Y-42653628D01*
X70647619Y-42653628D02*
X70266667Y-42653628D01*
X71790476Y-43129819D02*
X71219048Y-43129819D01*
X71504762Y-43129819D02*
X71504762Y-42129819D01*
X71504762Y-42129819D02*
X71409524Y-42272676D01*
X71409524Y-42272676D02*
X71314286Y-42367914D01*
X71314286Y-42367914D02*
X71219048Y-42415533D01*
X72695238Y-42129819D02*
X72219048Y-42129819D01*
X72219048Y-42129819D02*
X72171429Y-42606009D01*
X72171429Y-42606009D02*
X72219048Y-42558390D01*
X72219048Y-42558390D02*
X72314286Y-42510771D01*
X72314286Y-42510771D02*
X72552381Y-42510771D01*
X72552381Y-42510771D02*
X72647619Y-42558390D01*
X72647619Y-42558390D02*
X72695238Y-42606009D01*
X72695238Y-42606009D02*
X72742857Y-42701247D01*
X72742857Y-42701247D02*
X72742857Y-42939342D01*
X72742857Y-42939342D02*
X72695238Y-43034580D01*
X72695238Y-43034580D02*
X72647619Y-43082200D01*
X72647619Y-43082200D02*
X72552381Y-43129819D01*
X72552381Y-43129819D02*
X72314286Y-43129819D01*
X72314286Y-43129819D02*
X72219048Y-43082200D01*
X72219048Y-43082200D02*
X72171429Y-43034580D01*
X85454819Y-53333333D02*
X86169104Y-53333333D01*
X86169104Y-53333333D02*
X86311961Y-53380952D01*
X86311961Y-53380952D02*
X86407200Y-53476190D01*
X86407200Y-53476190D02*
X86454819Y-53619047D01*
X86454819Y-53619047D02*
X86454819Y-53714285D01*
X85550057Y-52904761D02*
X85502438Y-52857142D01*
X85502438Y-52857142D02*
X85454819Y-52761904D01*
X85454819Y-52761904D02*
X85454819Y-52523809D01*
X85454819Y-52523809D02*
X85502438Y-52428571D01*
X85502438Y-52428571D02*
X85550057Y-52380952D01*
X85550057Y-52380952D02*
X85645295Y-52333333D01*
X85645295Y-52333333D02*
X85740533Y-52333333D01*
X85740533Y-52333333D02*
X85883390Y-52380952D01*
X85883390Y-52380952D02*
X86454819Y-52952380D01*
X86454819Y-52952380D02*
X86454819Y-52333333D01*
X62654819Y-107961904D02*
X62654819Y-107390476D01*
X63654819Y-107676190D02*
X62654819Y-107676190D01*
X63654819Y-107057142D02*
X62654819Y-107057142D01*
X62654819Y-107057142D02*
X62654819Y-106676190D01*
X62654819Y-106676190D02*
X62702438Y-106580952D01*
X62702438Y-106580952D02*
X62750057Y-106533333D01*
X62750057Y-106533333D02*
X62845295Y-106485714D01*
X62845295Y-106485714D02*
X62988152Y-106485714D01*
X62988152Y-106485714D02*
X63083390Y-106533333D01*
X63083390Y-106533333D02*
X63131009Y-106580952D01*
X63131009Y-106580952D02*
X63178628Y-106676190D01*
X63178628Y-106676190D02*
X63178628Y-107057142D01*
X63654819Y-106009523D02*
X63654819Y-105819047D01*
X63654819Y-105819047D02*
X63607200Y-105723809D01*
X63607200Y-105723809D02*
X63559580Y-105676190D01*
X63559580Y-105676190D02*
X63416723Y-105580952D01*
X63416723Y-105580952D02*
X63226247Y-105533333D01*
X63226247Y-105533333D02*
X62845295Y-105533333D01*
X62845295Y-105533333D02*
X62750057Y-105580952D01*
X62750057Y-105580952D02*
X62702438Y-105628571D01*
X62702438Y-105628571D02*
X62654819Y-105723809D01*
X62654819Y-105723809D02*
X62654819Y-105914285D01*
X62654819Y-105914285D02*
X62702438Y-106009523D01*
X62702438Y-106009523D02*
X62750057Y-106057142D01*
X62750057Y-106057142D02*
X62845295Y-106104761D01*
X62845295Y-106104761D02*
X63083390Y-106104761D01*
X63083390Y-106104761D02*
X63178628Y-106057142D01*
X63178628Y-106057142D02*
X63226247Y-106009523D01*
X63226247Y-106009523D02*
X63273866Y-105914285D01*
X63273866Y-105914285D02*
X63273866Y-105723809D01*
X63273866Y-105723809D02*
X63226247Y-105628571D01*
X63226247Y-105628571D02*
X63178628Y-105580952D01*
X63178628Y-105580952D02*
X63083390Y-105533333D01*
D12*
X69087664Y-58733332D02*
X69125760Y-58771428D01*
X69125760Y-58771428D02*
X69163855Y-58885713D01*
X69163855Y-58885713D02*
X69163855Y-58961904D01*
X69163855Y-58961904D02*
X69125760Y-59076190D01*
X69125760Y-59076190D02*
X69049569Y-59152380D01*
X69049569Y-59152380D02*
X68973379Y-59190475D01*
X68973379Y-59190475D02*
X68820998Y-59228571D01*
X68820998Y-59228571D02*
X68706712Y-59228571D01*
X68706712Y-59228571D02*
X68554331Y-59190475D01*
X68554331Y-59190475D02*
X68478140Y-59152380D01*
X68478140Y-59152380D02*
X68401950Y-59076190D01*
X68401950Y-59076190D02*
X68363855Y-58961904D01*
X68363855Y-58961904D02*
X68363855Y-58885713D01*
X68363855Y-58885713D02*
X68401950Y-58771428D01*
X68401950Y-58771428D02*
X68440045Y-58733332D01*
X68363855Y-58466666D02*
X68363855Y-57971428D01*
X68363855Y-57971428D02*
X68668617Y-58238094D01*
X68668617Y-58238094D02*
X68668617Y-58123809D01*
X68668617Y-58123809D02*
X68706712Y-58047618D01*
X68706712Y-58047618D02*
X68744807Y-58009523D01*
X68744807Y-58009523D02*
X68820998Y-57971428D01*
X68820998Y-57971428D02*
X69011474Y-57971428D01*
X69011474Y-57971428D02*
X69087664Y-58009523D01*
X69087664Y-58009523D02*
X69125760Y-58047618D01*
X69125760Y-58047618D02*
X69163855Y-58123809D01*
X69163855Y-58123809D02*
X69163855Y-58352380D01*
X69163855Y-58352380D02*
X69125760Y-58428571D01*
X69125760Y-58428571D02*
X69087664Y-58466666D01*
D10*
X65742857Y-73881927D02*
X65609524Y-73691451D01*
X65514286Y-73881927D02*
X65514286Y-73481927D01*
X65514286Y-73481927D02*
X65666667Y-73481927D01*
X65666667Y-73481927D02*
X65704762Y-73500975D01*
X65704762Y-73500975D02*
X65723809Y-73520022D01*
X65723809Y-73520022D02*
X65742857Y-73558118D01*
X65742857Y-73558118D02*
X65742857Y-73615260D01*
X65742857Y-73615260D02*
X65723809Y-73653356D01*
X65723809Y-73653356D02*
X65704762Y-73672403D01*
X65704762Y-73672403D02*
X65666667Y-73691451D01*
X65666667Y-73691451D02*
X65514286Y-73691451D01*
X65895238Y-73520022D02*
X65914286Y-73500975D01*
X65914286Y-73500975D02*
X65952381Y-73481927D01*
X65952381Y-73481927D02*
X66047619Y-73481927D01*
X66047619Y-73481927D02*
X66085714Y-73500975D01*
X66085714Y-73500975D02*
X66104762Y-73520022D01*
X66104762Y-73520022D02*
X66123809Y-73558118D01*
X66123809Y-73558118D02*
X66123809Y-73596213D01*
X66123809Y-73596213D02*
X66104762Y-73653356D01*
X66104762Y-73653356D02*
X65876190Y-73881927D01*
X65876190Y-73881927D02*
X66123809Y-73881927D01*
X66352380Y-73653356D02*
X66314285Y-73634308D01*
X66314285Y-73634308D02*
X66295238Y-73615260D01*
X66295238Y-73615260D02*
X66276190Y-73577165D01*
X66276190Y-73577165D02*
X66276190Y-73558118D01*
X66276190Y-73558118D02*
X66295238Y-73520022D01*
X66295238Y-73520022D02*
X66314285Y-73500975D01*
X66314285Y-73500975D02*
X66352380Y-73481927D01*
X66352380Y-73481927D02*
X66428571Y-73481927D01*
X66428571Y-73481927D02*
X66466666Y-73500975D01*
X66466666Y-73500975D02*
X66485714Y-73520022D01*
X66485714Y-73520022D02*
X66504761Y-73558118D01*
X66504761Y-73558118D02*
X66504761Y-73577165D01*
X66504761Y-73577165D02*
X66485714Y-73615260D01*
X66485714Y-73615260D02*
X66466666Y-73634308D01*
X66466666Y-73634308D02*
X66428571Y-73653356D01*
X66428571Y-73653356D02*
X66352380Y-73653356D01*
X66352380Y-73653356D02*
X66314285Y-73672403D01*
X66314285Y-73672403D02*
X66295238Y-73691451D01*
X66295238Y-73691451D02*
X66276190Y-73729546D01*
X66276190Y-73729546D02*
X66276190Y-73805737D01*
X66276190Y-73805737D02*
X66295238Y-73843832D01*
X66295238Y-73843832D02*
X66314285Y-73862880D01*
X66314285Y-73862880D02*
X66352380Y-73881927D01*
X66352380Y-73881927D02*
X66428571Y-73881927D01*
X66428571Y-73881927D02*
X66466666Y-73862880D01*
X66466666Y-73862880D02*
X66485714Y-73843832D01*
X66485714Y-73843832D02*
X66504761Y-73805737D01*
X66504761Y-73805737D02*
X66504761Y-73729546D01*
X66504761Y-73729546D02*
X66485714Y-73691451D01*
X66485714Y-73691451D02*
X66466666Y-73672403D01*
X66466666Y-73672403D02*
X66428571Y-73653356D01*
D11*
X41738095Y-41454819D02*
X42309523Y-41454819D01*
X42023809Y-42454819D02*
X42023809Y-41454819D01*
X42642857Y-42454819D02*
X42642857Y-41454819D01*
X42642857Y-41454819D02*
X43023809Y-41454819D01*
X43023809Y-41454819D02*
X43119047Y-41502438D01*
X43119047Y-41502438D02*
X43166666Y-41550057D01*
X43166666Y-41550057D02*
X43214285Y-41645295D01*
X43214285Y-41645295D02*
X43214285Y-41788152D01*
X43214285Y-41788152D02*
X43166666Y-41883390D01*
X43166666Y-41883390D02*
X43119047Y-41931009D01*
X43119047Y-41931009D02*
X43023809Y-41978628D01*
X43023809Y-41978628D02*
X42642857Y-41978628D01*
X43785714Y-41883390D02*
X43690476Y-41835771D01*
X43690476Y-41835771D02*
X43642857Y-41788152D01*
X43642857Y-41788152D02*
X43595238Y-41692914D01*
X43595238Y-41692914D02*
X43595238Y-41645295D01*
X43595238Y-41645295D02*
X43642857Y-41550057D01*
X43642857Y-41550057D02*
X43690476Y-41502438D01*
X43690476Y-41502438D02*
X43785714Y-41454819D01*
X43785714Y-41454819D02*
X43976190Y-41454819D01*
X43976190Y-41454819D02*
X44071428Y-41502438D01*
X44071428Y-41502438D02*
X44119047Y-41550057D01*
X44119047Y-41550057D02*
X44166666Y-41645295D01*
X44166666Y-41645295D02*
X44166666Y-41692914D01*
X44166666Y-41692914D02*
X44119047Y-41788152D01*
X44119047Y-41788152D02*
X44071428Y-41835771D01*
X44071428Y-41835771D02*
X43976190Y-41883390D01*
X43976190Y-41883390D02*
X43785714Y-41883390D01*
X43785714Y-41883390D02*
X43690476Y-41931009D01*
X43690476Y-41931009D02*
X43642857Y-41978628D01*
X43642857Y-41978628D02*
X43595238Y-42073866D01*
X43595238Y-42073866D02*
X43595238Y-42264342D01*
X43595238Y-42264342D02*
X43642857Y-42359580D01*
X43642857Y-42359580D02*
X43690476Y-42407200D01*
X43690476Y-42407200D02*
X43785714Y-42454819D01*
X43785714Y-42454819D02*
X43976190Y-42454819D01*
X43976190Y-42454819D02*
X44071428Y-42407200D01*
X44071428Y-42407200D02*
X44119047Y-42359580D01*
X44119047Y-42359580D02*
X44166666Y-42264342D01*
X44166666Y-42264342D02*
X44166666Y-42073866D01*
X44166666Y-42073866D02*
X44119047Y-41978628D01*
X44119047Y-41978628D02*
X44071428Y-41931009D01*
X44071428Y-41931009D02*
X43976190Y-41883390D01*
D12*
X71787664Y-58733332D02*
X71825760Y-58771428D01*
X71825760Y-58771428D02*
X71863855Y-58885713D01*
X71863855Y-58885713D02*
X71863855Y-58961904D01*
X71863855Y-58961904D02*
X71825760Y-59076190D01*
X71825760Y-59076190D02*
X71749569Y-59152380D01*
X71749569Y-59152380D02*
X71673379Y-59190475D01*
X71673379Y-59190475D02*
X71520998Y-59228571D01*
X71520998Y-59228571D02*
X71406712Y-59228571D01*
X71406712Y-59228571D02*
X71254331Y-59190475D01*
X71254331Y-59190475D02*
X71178140Y-59152380D01*
X71178140Y-59152380D02*
X71101950Y-59076190D01*
X71101950Y-59076190D02*
X71063855Y-58961904D01*
X71063855Y-58961904D02*
X71063855Y-58885713D01*
X71063855Y-58885713D02*
X71101950Y-58771428D01*
X71101950Y-58771428D02*
X71140045Y-58733332D01*
X71330521Y-58047618D02*
X71863855Y-58047618D01*
X71025760Y-58238094D02*
X71597188Y-58428571D01*
X71597188Y-58428571D02*
X71597188Y-57933332D01*
D11*
X116666667Y-71157200D02*
X116809524Y-71204819D01*
X116809524Y-71204819D02*
X117047619Y-71204819D01*
X117047619Y-71204819D02*
X117142857Y-71157200D01*
X117142857Y-71157200D02*
X117190476Y-71109580D01*
X117190476Y-71109580D02*
X117238095Y-71014342D01*
X117238095Y-71014342D02*
X117238095Y-70919104D01*
X117238095Y-70919104D02*
X117190476Y-70823866D01*
X117190476Y-70823866D02*
X117142857Y-70776247D01*
X117142857Y-70776247D02*
X117047619Y-70728628D01*
X117047619Y-70728628D02*
X116857143Y-70681009D01*
X116857143Y-70681009D02*
X116761905Y-70633390D01*
X116761905Y-70633390D02*
X116714286Y-70585771D01*
X116714286Y-70585771D02*
X116666667Y-70490533D01*
X116666667Y-70490533D02*
X116666667Y-70395295D01*
X116666667Y-70395295D02*
X116714286Y-70300057D01*
X116714286Y-70300057D02*
X116761905Y-70252438D01*
X116761905Y-70252438D02*
X116857143Y-70204819D01*
X116857143Y-70204819D02*
X117095238Y-70204819D01*
X117095238Y-70204819D02*
X117238095Y-70252438D01*
X117571429Y-70204819D02*
X117809524Y-71204819D01*
X117809524Y-71204819D02*
X118000000Y-70490533D01*
X118000000Y-70490533D02*
X118190476Y-71204819D01*
X118190476Y-71204819D02*
X118428572Y-70204819D01*
X119333333Y-71204819D02*
X118761905Y-71204819D01*
X119047619Y-71204819D02*
X119047619Y-70204819D01*
X119047619Y-70204819D02*
X118952381Y-70347676D01*
X118952381Y-70347676D02*
X118857143Y-70442914D01*
X118857143Y-70442914D02*
X118761905Y-70490533D01*
X148666666Y-44454819D02*
X148666666Y-45169104D01*
X148666666Y-45169104D02*
X148619047Y-45311961D01*
X148619047Y-45311961D02*
X148523809Y-45407200D01*
X148523809Y-45407200D02*
X148380952Y-45454819D01*
X148380952Y-45454819D02*
X148285714Y-45454819D01*
X149047619Y-44454819D02*
X149714285Y-44454819D01*
X149714285Y-44454819D02*
X149285714Y-45454819D01*
D10*
X69567857Y-75181927D02*
X69434524Y-74991451D01*
X69339286Y-75181927D02*
X69339286Y-74781927D01*
X69339286Y-74781927D02*
X69491667Y-74781927D01*
X69491667Y-74781927D02*
X69529762Y-74800975D01*
X69529762Y-74800975D02*
X69548809Y-74820022D01*
X69548809Y-74820022D02*
X69567857Y-74858118D01*
X69567857Y-74858118D02*
X69567857Y-74915260D01*
X69567857Y-74915260D02*
X69548809Y-74953356D01*
X69548809Y-74953356D02*
X69529762Y-74972403D01*
X69529762Y-74972403D02*
X69491667Y-74991451D01*
X69491667Y-74991451D02*
X69339286Y-74991451D01*
X69720238Y-74820022D02*
X69739286Y-74800975D01*
X69739286Y-74800975D02*
X69777381Y-74781927D01*
X69777381Y-74781927D02*
X69872619Y-74781927D01*
X69872619Y-74781927D02*
X69910714Y-74800975D01*
X69910714Y-74800975D02*
X69929762Y-74820022D01*
X69929762Y-74820022D02*
X69948809Y-74858118D01*
X69948809Y-74858118D02*
X69948809Y-74896213D01*
X69948809Y-74896213D02*
X69929762Y-74953356D01*
X69929762Y-74953356D02*
X69701190Y-75181927D01*
X69701190Y-75181927D02*
X69948809Y-75181927D01*
X70082142Y-74781927D02*
X70348809Y-74781927D01*
X70348809Y-74781927D02*
X70177380Y-75181927D01*
D13*
X46200000Y-47587500D02*
X47800000Y-47587500D01*
X46200000Y-48412500D02*
X46200000Y-47587500D01*
X47800000Y-47587500D02*
X47800000Y-48412500D01*
X47800000Y-48412500D02*
X46200000Y-48412500D01*
X64200000Y-66800000D02*
X68600000Y-66800000D01*
X68600000Y-69400000D01*
X64200000Y-69400000D01*
X64200000Y-66800000D01*
D14*
X110706410Y-103935010D02*
X136106410Y-103935010D01*
X110706410Y-108765010D02*
X110706410Y-103935010D01*
X110706410Y-108765010D02*
X110706410Y-103935010D01*
X136106410Y-103935010D02*
X136106410Y-108765010D01*
X136106410Y-103935010D02*
X136106410Y-108765010D01*
X136106410Y-108765010D02*
X110706410Y-108765010D01*
X136106410Y-108765010D02*
X110706410Y-108765010D01*
D15*
X136856410Y-105080010D02*
G75*
G02*
X136656410Y-105080010I-100000J0D01*
G01*
X136656410Y-105080010D02*
G75*
G02*
X136856410Y-105080010I100000J0D01*
G01*
D13*
X47500000Y-41400000D02*
X49100000Y-41400000D01*
X47500000Y-44600000D02*
X47500000Y-41400000D01*
X49100000Y-41400000D02*
X49100000Y-44600000D01*
X49100000Y-44600000D02*
X47500000Y-44600000D01*
D10*
X99980000Y-64250000D02*
G75*
G02*
X99920000Y-64250000I-30000J0D01*
G01*
X99920000Y-64250000D02*
G75*
G02*
X99980000Y-64250000I30000J0D01*
G01*
D13*
X132300000Y-59900000D02*
X136700000Y-59900000D01*
X136700000Y-62500000D01*
X132300000Y-62500000D01*
X132300000Y-59900000D01*
D16*
X64299600Y-93799600D02*
X64299600Y-100200400D01*
X64299600Y-100200400D02*
X70700400Y-100200400D01*
X70700400Y-93799600D02*
X64299600Y-93799600D01*
X70700400Y-100200400D02*
X70700400Y-93799600D01*
D17*
X67881000Y-95095000D02*
G75*
G02*
X67119000Y-95095000I-381000J0D01*
G01*
X67119000Y-95095000D02*
G75*
G02*
X67881000Y-95095000I381000J0D01*
G01*
D13*
X50200000Y-41400000D02*
X51800000Y-41400000D01*
X50200000Y-44600000D02*
X50200000Y-41400000D01*
X51800000Y-41400000D02*
X51800000Y-44600000D01*
X51800000Y-44600000D02*
X50200000Y-44600000D01*
X75475000Y-71387500D02*
X77075000Y-71387500D01*
X75475000Y-72212500D02*
X75475000Y-71387500D01*
X77075000Y-71387500D02*
X77075000Y-72212500D01*
X77075000Y-72212500D02*
X75475000Y-72212500D01*
X109600000Y-69200000D02*
X110400000Y-69200000D01*
X109600000Y-70800000D02*
X109600000Y-69200000D01*
X110400000Y-69200000D02*
X110400000Y-70800000D01*
X110400000Y-70800000D02*
X109600000Y-70800000D01*
X46200000Y-80667510D02*
X47800000Y-80667510D01*
X46200000Y-81492510D02*
X46200000Y-80667510D01*
X47800000Y-80667510D02*
X47800000Y-81492510D01*
X47800000Y-81492510D02*
X46200000Y-81492510D01*
D14*
X41995000Y-101890000D02*
X44405000Y-101890000D01*
X41995000Y-109510000D02*
X41995000Y-101890000D01*
X44405000Y-101890000D02*
X44405000Y-109510000D01*
X44405000Y-109510000D02*
X41995000Y-109510000D01*
D15*
X43300000Y-110050000D02*
G75*
G02*
X43100000Y-110050000I-100000J0D01*
G01*
X43100000Y-110050000D02*
G75*
G02*
X43300000Y-110050000I100000J0D01*
G01*
D16*
X168074600Y-41799600D02*
X168074600Y-48200400D01*
X168074600Y-48200400D02*
X174475400Y-48200400D01*
X174475400Y-41799600D02*
X168074600Y-41799600D01*
X174475400Y-48200400D02*
X174475400Y-41799600D01*
D17*
X171656000Y-43095000D02*
G75*
G02*
X170894000Y-43095000I-381000J0D01*
G01*
X170894000Y-43095000D02*
G75*
G02*
X171656000Y-43095000I381000J0D01*
G01*
D14*
X83816410Y-103935010D02*
X109216410Y-103935010D01*
X83816410Y-108765010D02*
X83816410Y-103935010D01*
X83816410Y-108765010D02*
X83816410Y-103935010D01*
X109216410Y-103935010D02*
X109216410Y-108765010D01*
X109216410Y-103935010D02*
X109216410Y-108765010D01*
X109216410Y-108765010D02*
X83816410Y-108765010D01*
X109216410Y-108765010D02*
X83816410Y-108765010D01*
D15*
X109966410Y-105080010D02*
G75*
G02*
X109766410Y-105080010I-100000J0D01*
G01*
X109766410Y-105080010D02*
G75*
G02*
X109966410Y-105080010I100000J0D01*
G01*
D14*
X152516410Y-103935010D02*
X177916410Y-103935010D01*
X152516410Y-108765010D02*
X152516410Y-103935010D01*
X152516410Y-108765010D02*
X152516410Y-103935010D01*
X177916410Y-103935010D02*
X177916410Y-108765010D01*
X177916410Y-103935010D02*
X177916410Y-108765010D01*
X177916410Y-108765010D02*
X152516410Y-108765010D01*
X177916410Y-108765010D02*
X152516410Y-108765010D01*
D15*
X178666410Y-105080010D02*
G75*
G02*
X178466410Y-105080010I-100000J0D01*
G01*
X178466410Y-105080010D02*
G75*
G02*
X178666410Y-105080010I100000J0D01*
G01*
D14*
X75440000Y-100795000D02*
X83060000Y-100795000D01*
X75440000Y-103205000D02*
X75440000Y-100795000D01*
X83060000Y-100795000D02*
X83060000Y-103205000D01*
X83060000Y-103205000D02*
X75440000Y-103205000D01*
D15*
X75000000Y-102000000D02*
G75*
G02*
X74800000Y-102000000I-100000J0D01*
G01*
X74800000Y-102000000D02*
G75*
G02*
X75000000Y-102000000I100000J0D01*
G01*
D13*
X178700000Y-46200000D02*
X181300000Y-46200000D01*
X181300000Y-41800000D01*
X178700000Y-41800000D01*
X178700000Y-46200000D01*
X42200000Y-94667510D02*
X43800000Y-94667510D01*
X42200000Y-95492510D02*
X42200000Y-94667510D01*
X43800000Y-94667510D02*
X43800000Y-95492510D01*
X43800000Y-95492510D02*
X42200000Y-95492510D01*
X42200000Y-82587500D02*
X43800000Y-82587500D01*
X42200000Y-83412500D02*
X42200000Y-82587500D01*
X43800000Y-82587500D02*
X43800000Y-83412500D01*
X43800000Y-83412500D02*
X42200000Y-83412500D01*
X42200000Y-60587500D02*
X43800000Y-60587500D01*
X42200000Y-61412500D02*
X42200000Y-60587500D01*
X43800000Y-60587500D02*
X43800000Y-61412500D01*
X43800000Y-61412500D02*
X42200000Y-61412500D01*
D14*
X42000000Y-51370000D02*
X44000000Y-51370000D01*
X42000000Y-52630000D02*
X42000000Y-51370000D01*
X44000000Y-51370000D02*
X44000000Y-52630000D01*
X44000000Y-52630000D02*
X42000000Y-52630000D01*
D18*
X45300000Y-52000000D02*
G75*
G02*
X45100000Y-52000000I-100000J0D01*
G01*
X45100000Y-52000000D02*
G75*
G02*
X45300000Y-52000000I100000J0D01*
G01*
D14*
X42000000Y-62370000D02*
X44000000Y-62370000D01*
X42000000Y-63630000D02*
X42000000Y-62370000D01*
X44000000Y-62370000D02*
X44000000Y-63630000D01*
X44000000Y-63630000D02*
X42000000Y-63630000D01*
D18*
X45300000Y-63000000D02*
G75*
G02*
X45100000Y-63000000I-100000J0D01*
G01*
X45100000Y-63000000D02*
G75*
G02*
X45300000Y-63000000I100000J0D01*
G01*
D13*
X72100000Y-72387500D02*
X73700000Y-72387500D01*
X72100000Y-73212500D02*
X72100000Y-72387500D01*
X73700000Y-72387500D02*
X73700000Y-73212500D01*
X73700000Y-73212500D02*
X72100000Y-73212500D01*
D15*
X45550000Y-61430010D02*
X48450000Y-61430010D01*
X45550000Y-62730010D02*
X45550000Y-61430010D01*
X48450000Y-61430010D02*
X48450000Y-62730010D01*
X48450000Y-62730010D02*
X45550000Y-62730010D01*
D13*
X74175000Y-41375000D02*
X78575000Y-41375000D01*
X78575000Y-43975000D01*
X74175000Y-43975000D01*
X74175000Y-41375000D01*
D14*
X51200000Y-105550000D02*
X51200000Y-108450000D01*
X51200000Y-108450000D02*
X52800000Y-108450000D01*
X52800000Y-105550000D02*
X51200000Y-105550000D01*
X52800000Y-108450000D02*
X52800000Y-105550000D01*
D15*
X49600000Y-106050000D02*
G75*
G02*
X49400000Y-106050000I-100000J0D01*
G01*
X49400000Y-106050000D02*
G75*
G02*
X49600000Y-106050000I100000J0D01*
G01*
D16*
X64074600Y-83324600D02*
X64074600Y-89725400D01*
X64074600Y-89725400D02*
X70475400Y-89725400D01*
X70475400Y-83324600D02*
X64074600Y-83324600D01*
X70475400Y-89725400D02*
X70475400Y-83324600D01*
D17*
X67656000Y-84620000D02*
G75*
G02*
X66894000Y-84620000I-381000J0D01*
G01*
X66894000Y-84620000D02*
G75*
G02*
X67656000Y-84620000I381000J0D01*
G01*
D13*
X46200000Y-92587500D02*
X47800000Y-92587500D01*
X46200000Y-93412500D02*
X46200000Y-92587500D01*
X47800000Y-92587500D02*
X47800000Y-93412500D01*
X47800000Y-93412500D02*
X46200000Y-93412500D01*
D15*
X45550000Y-72350000D02*
X48450000Y-72350000D01*
X45550000Y-73650000D02*
X45550000Y-72350000D01*
X48450000Y-72350000D02*
X48450000Y-73650000D01*
X48450000Y-73650000D02*
X45550000Y-73650000D01*
D10*
X129080000Y-64350000D02*
G75*
G02*
X129020000Y-64350000I-30000J0D01*
G01*
X129020000Y-64350000D02*
G75*
G02*
X129080000Y-64350000I30000J0D01*
G01*
D14*
X42000000Y-73370010D02*
X44000000Y-73370010D01*
X42000000Y-74630010D02*
X42000000Y-73370010D01*
X44000000Y-73370010D02*
X44000000Y-74630010D01*
X44000000Y-74630010D02*
X42000000Y-74630010D01*
D18*
X45300000Y-74000010D02*
G75*
G02*
X45100000Y-74000010I-100000J0D01*
G01*
X45100000Y-74000010D02*
G75*
G02*
X45300000Y-74000010I100000J0D01*
G01*
D14*
X70890000Y-67495000D02*
X78510000Y-67495000D01*
X70890000Y-69905000D02*
X70890000Y-67495000D01*
X78510000Y-67495000D02*
X78510000Y-69905000D01*
X78510000Y-69905000D02*
X70890000Y-69905000D01*
D15*
X70450000Y-68700000D02*
G75*
G02*
X70250000Y-68700000I-100000J0D01*
G01*
X70250000Y-68700000D02*
G75*
G02*
X70450000Y-68700000I100000J0D01*
G01*
D13*
X180700000Y-107200000D02*
X183300000Y-107200000D01*
X183300000Y-102800000D01*
X180700000Y-102800000D01*
X180700000Y-107200000D01*
D14*
X42000000Y-84370000D02*
X44000000Y-84370000D01*
X42000000Y-85630000D02*
X42000000Y-84370000D01*
X44000000Y-84370000D02*
X44000000Y-85630000D01*
X44000000Y-85630000D02*
X42000000Y-85630000D01*
D18*
X45300000Y-85000000D02*
G75*
G02*
X45100000Y-85000000I-100000J0D01*
G01*
X45100000Y-85000000D02*
G75*
G02*
X45300000Y-85000000I100000J0D01*
G01*
D13*
X46200000Y-58587500D02*
X47800000Y-58587500D01*
X46200000Y-59412500D02*
X46200000Y-58587500D01*
X47800000Y-58587500D02*
X47800000Y-59412500D01*
X47800000Y-59412500D02*
X46200000Y-59412500D01*
D14*
X64795000Y-56270010D02*
X67205000Y-56270010D01*
X64795000Y-63890010D02*
X64795000Y-56270010D01*
X67205000Y-56270010D02*
X67205000Y-63890010D01*
X67205000Y-63890010D02*
X64795000Y-63890010D01*
D15*
X66100000Y-55730010D02*
G75*
G02*
X65900000Y-55730010I-100000J0D01*
G01*
X65900000Y-55730010D02*
G75*
G02*
X66100000Y-55730010I100000J0D01*
G01*
D14*
X100150000Y-69545000D02*
X107770000Y-69545000D01*
X100150000Y-71955000D02*
X100150000Y-69545000D01*
X107770000Y-69545000D02*
X107770000Y-71955000D01*
X107770000Y-71955000D02*
X100150000Y-71955000D01*
D15*
X108410000Y-70750000D02*
G75*
G02*
X108210000Y-70750000I-100000J0D01*
G01*
X108210000Y-70750000D02*
G75*
G02*
X108410000Y-70750000I100000J0D01*
G01*
D13*
X42200000Y-49587500D02*
X43800000Y-49587500D01*
X42200000Y-50412500D02*
X42200000Y-49587500D01*
X43800000Y-49587500D02*
X43800000Y-50412500D01*
X43800000Y-50412500D02*
X42200000Y-50412500D01*
D14*
X64795000Y-47190000D02*
X67205000Y-47190000D01*
X64795000Y-54810000D02*
X64795000Y-47190000D01*
X67205000Y-47190000D02*
X67205000Y-54810000D01*
X67205000Y-54810000D02*
X64795000Y-54810000D01*
D15*
X66100000Y-46650000D02*
G75*
G02*
X65900000Y-46650000I-100000J0D01*
G01*
X65900000Y-46650000D02*
G75*
G02*
X66100000Y-46650000I100000J0D01*
G01*
X45550000Y-83430010D02*
X48450000Y-83430010D01*
X45550000Y-84730010D02*
X45550000Y-83430010D01*
X48450000Y-83430010D02*
X48450000Y-84730010D01*
X48450000Y-84730010D02*
X45550000Y-84730010D01*
D13*
X46200000Y-69587500D02*
X47800000Y-69587500D01*
X46200000Y-70412500D02*
X46200000Y-69587500D01*
X47800000Y-69587500D02*
X47800000Y-70412500D01*
X47800000Y-70412500D02*
X46200000Y-70412500D01*
X111587500Y-69200000D02*
X112412500Y-69200000D01*
X111587500Y-70800000D02*
X111587500Y-69200000D01*
X112412500Y-69200000D02*
X112412500Y-70800000D01*
X112412500Y-70800000D02*
X111587500Y-70800000D01*
X70700000Y-47900000D02*
X72300000Y-47900000D01*
X70700000Y-51100000D02*
X70700000Y-47900000D01*
X72300000Y-47900000D02*
X72300000Y-51100000D01*
X72300000Y-51100000D02*
X70700000Y-51100000D01*
X68100000Y-47900000D02*
X69700000Y-47900000D01*
X68100000Y-51100000D02*
X68100000Y-47900000D01*
X69700000Y-47900000D02*
X69700000Y-51100000D01*
X69700000Y-51100000D02*
X68100000Y-51100000D01*
D14*
X42000000Y-96450010D02*
X44000000Y-96450010D01*
X42000000Y-97710010D02*
X42000000Y-96450010D01*
X44000000Y-96450010D02*
X44000000Y-97710010D01*
X44000000Y-97710010D02*
X42000000Y-97710010D01*
D18*
X45300000Y-97080010D02*
G75*
G02*
X45100000Y-97080010I-100000J0D01*
G01*
X45100000Y-97080010D02*
G75*
G02*
X45300000Y-97080010I100000J0D01*
G01*
D14*
X75440000Y-95545000D02*
X83060000Y-95545000D01*
X75440000Y-97955000D02*
X75440000Y-95545000D01*
X83060000Y-95545000D02*
X83060000Y-97955000D01*
X83060000Y-97955000D02*
X75440000Y-97955000D01*
D15*
X75000000Y-96750000D02*
G75*
G02*
X74800000Y-96750000I-100000J0D01*
G01*
X74800000Y-96750000D02*
G75*
G02*
X75000000Y-96750000I100000J0D01*
G01*
D13*
X67320000Y-104100000D02*
X83090000Y-104100000D01*
X83090000Y-112610000D01*
X67320000Y-112610000D01*
X67320000Y-104100000D01*
D10*
X67350000Y-112640000D02*
G75*
G02*
X67290000Y-112640000I-30000J0D01*
G01*
X67290000Y-112640000D02*
G75*
G02*
X67350000Y-112640000I30000J0D01*
G01*
D15*
X45550000Y-50350000D02*
X48450000Y-50350000D01*
X45550000Y-51650000D02*
X45550000Y-50350000D01*
X48450000Y-50350000D02*
X48450000Y-51650000D01*
X48450000Y-51650000D02*
X45550000Y-51650000D01*
D13*
X42200000Y-71587510D02*
X43800000Y-71587510D01*
X42200000Y-72412510D02*
X42200000Y-71587510D01*
X43800000Y-71587510D02*
X43800000Y-72412510D01*
X43800000Y-72412510D02*
X42200000Y-72412510D01*
X68900000Y-41375000D02*
X73300000Y-41375000D01*
X73300000Y-43975000D01*
X68900000Y-43975000D01*
X68900000Y-41375000D01*
D10*
X80980000Y-64250000D02*
G75*
G02*
X80920000Y-64250000I-30000J0D01*
G01*
X80920000Y-64250000D02*
G75*
G02*
X80980000Y-64250000I30000J0D01*
G01*
D13*
X61900000Y-108900000D02*
X64500000Y-108900000D01*
X64500000Y-104500000D01*
X61900000Y-104500000D01*
X61900000Y-108900000D01*
D14*
X46400000Y-105550000D02*
X46400000Y-108450000D01*
X46400000Y-108450000D02*
X48000000Y-108450000D01*
X48000000Y-105550000D02*
X46400000Y-105550000D01*
X48000000Y-108450000D02*
X48000000Y-105550000D01*
D15*
X44800000Y-106050000D02*
G75*
G02*
X44600000Y-106050000I-100000J0D01*
G01*
X44600000Y-106050000D02*
G75*
G02*
X44800000Y-106050000I100000J0D01*
G01*
D13*
X68000000Y-57000000D02*
X69600000Y-57000000D01*
X68000000Y-60200000D02*
X68000000Y-57000000D01*
X69600000Y-57000000D02*
X69600000Y-60200000D01*
X69600000Y-60200000D02*
X68000000Y-60200000D01*
X65200000Y-73287500D02*
X66800000Y-73287500D01*
X65200000Y-74112500D02*
X65200000Y-73287500D01*
X66800000Y-73287500D02*
X66800000Y-74112500D01*
X66800000Y-74112500D02*
X65200000Y-74112500D01*
D14*
X131595000Y-49490000D02*
X134005000Y-49490000D01*
X131595000Y-57110000D02*
X131595000Y-49490000D01*
X134005000Y-49490000D02*
X134005000Y-57110000D01*
X134005000Y-57110000D02*
X131595000Y-57110000D01*
D15*
X132900000Y-57650000D02*
G75*
G02*
X132700000Y-57650000I-100000J0D01*
G01*
X132700000Y-57650000D02*
G75*
G02*
X132900000Y-57650000I100000J0D01*
G01*
D13*
X40800000Y-40700000D02*
X45200000Y-40700000D01*
X45200000Y-43300000D01*
X40800000Y-43300000D01*
X40800000Y-40700000D01*
X70700000Y-57000000D02*
X72300000Y-57000000D01*
X70700000Y-60200000D02*
X70700000Y-57000000D01*
X72300000Y-57000000D02*
X72300000Y-60200000D01*
X72300000Y-60200000D02*
X70700000Y-60200000D01*
X115030000Y-69030000D02*
X120960000Y-69030000D01*
X120960000Y-72470000D01*
X115030000Y-72470000D01*
X115030000Y-69030000D01*
D10*
X114080000Y-72550000D02*
G75*
G02*
X114020000Y-72550000I-30000J0D01*
G01*
X114020000Y-72550000D02*
G75*
G02*
X114080000Y-72550000I30000J0D01*
G01*
D16*
X145799600Y-41799600D02*
X145799600Y-48200400D01*
X145799600Y-48200400D02*
X152200400Y-48200400D01*
X152200400Y-41799600D02*
X145799600Y-41799600D01*
X152200400Y-48200400D02*
X152200400Y-41799600D01*
D17*
X149381000Y-43095000D02*
G75*
G02*
X148619000Y-43095000I-381000J0D01*
G01*
X148619000Y-43095000D02*
G75*
G02*
X149381000Y-43095000I381000J0D01*
G01*
D13*
X69025000Y-74587500D02*
X70625000Y-74587500D01*
X69025000Y-75412500D02*
X69025000Y-74587500D01*
X70625000Y-74587500D02*
X70625000Y-75412500D01*
X70625000Y-75412500D02*
X69025000Y-75412500D01*
D15*
X45550000Y-95350000D02*
X48450000Y-95350000D01*
X45550000Y-96650000D02*
X45550000Y-95350000D01*
X48450000Y-95350000D02*
X48450000Y-96650000D01*
X48450000Y-96650000D02*
X45550000Y-96650000D01*
M02*
