M48
; DRILL file {KiCad 8.0.3} date 2024-07-10T11:58:48-0700
; FORMAT={-:-/ absolute / metric / decimal}
; #@! TF.CreationDate,2024-07-10T11:58:48-07:00
; #@! TF.GenerationSoftware,Kicad,Pcbnew,8.0.3
; #@! TF.FileFunction,Plated,1,6,PTH
FMAT,2
METRIC
; #@! TA.AperFunction,Plated,PTH,ViaDrill
T1C0.200
; #@! TA.AperFunction,Plated,PTH,ViaDrill
T2C0.250
; #@! TA.AperFunction,Plated,PTH,ComponentDrill
T3C0.500
; #@! TA.AperFunction,Plated,PTH,ComponentDrill
T4C0.864
; #@! TA.AperFunction,Plated,PTH,ComponentDrill
T5C1.100
; #@! TA.AperFunction,Plated,PTH,ComponentDrill
T6C1.100
; #@! TA.AperFunction,Plated,PTH,ComponentDrill
T7C1.500
; #@! TA.AperFunction,Plated,PTH,ComponentDrill
T8C1.600
; #@! TA.AperFunction,Plated,PTH,ComponentDrill
T9C1.702
; #@! TA.AperFunction,Plated,PTH,ComponentDrill
T10C2.000
; #@! TA.AperFunction,Plated,PTH,ComponentDrill
T11C2.700
%
G90
G05
T1
X38.0Y-38.0
X38.0Y-39.0
X38.0Y-40.0
X38.0Y-41.0
X38.0Y-42.0
X38.0Y-43.0
X38.0Y-44.0
X38.0Y-45.0
X38.0Y-46.0
X38.0Y-47.0
X38.0Y-48.0
X38.0Y-49.0
X38.0Y-50.0
X38.0Y-51.0
X38.0Y-52.0
X38.0Y-53.0
X38.0Y-54.0
X38.0Y-55.0
X38.0Y-56.0
X38.0Y-57.0
X38.0Y-58.0
X38.0Y-59.0
X38.0Y-60.0
X38.0Y-61.0
X38.0Y-62.0
X38.0Y-63.0
X38.0Y-64.0
X38.0Y-65.0
X38.0Y-66.0
X38.0Y-67.0
X38.0Y-68.0
X38.0Y-69.0
X38.0Y-70.0
X38.0Y-71.0
X38.0Y-72.0
X38.0Y-73.0
X38.0Y-74.0
X38.0Y-75.0
X38.0Y-76.0
X38.0Y-77.0
X38.0Y-78.0
X38.0Y-79.0
X38.0Y-80.0
X38.0Y-81.0
X38.0Y-82.0
X38.0Y-83.0
X38.0Y-84.0
X38.0Y-85.0
X38.0Y-86.0
X38.0Y-87.0
X38.0Y-88.0
X38.0Y-89.0
X38.0Y-90.0
X38.0Y-91.0
X38.0Y-92.0
X38.0Y-93.0
X38.0Y-94.0
X38.0Y-95.0
X38.0Y-96.0
X38.0Y-97.0
X38.0Y-98.0
X38.0Y-99.0
X38.0Y-100.0
X38.0Y-101.0
X38.0Y-102.0
X38.0Y-103.0
X38.0Y-104.0
X38.0Y-105.0
X38.0Y-106.0
X38.0Y-107.0
X38.0Y-108.0
X38.0Y-109.0
X38.0Y-110.0
X38.0Y-111.0
X38.0Y-112.0
X39.0Y-38.0
X39.0Y-39.0
X39.0Y-40.0
X39.0Y-41.0
X39.0Y-42.0
X39.0Y-43.0
X39.0Y-44.0
X39.0Y-45.0
X39.0Y-46.0
X39.0Y-47.0
X39.0Y-48.0
X39.0Y-49.0
X39.0Y-50.0
X39.0Y-51.0
X39.0Y-52.0
X39.0Y-53.0
X39.0Y-54.0
X39.0Y-55.0
X39.0Y-56.0
X39.0Y-57.0
X39.0Y-58.0
X39.0Y-59.0
X39.0Y-60.0
X39.0Y-61.0
X39.0Y-62.0
X39.0Y-63.0
X39.0Y-64.0
X39.0Y-65.0
X39.0Y-66.0
X39.0Y-67.0
X39.0Y-68.0
X39.0Y-69.0
X39.0Y-70.0
X39.0Y-71.0
X39.0Y-72.0
X39.0Y-73.0
X39.0Y-74.0
X39.0Y-75.0
X39.0Y-76.0
X39.0Y-77.0
X39.0Y-78.0
X39.0Y-79.0
X39.0Y-80.0
X39.0Y-81.0
X39.0Y-82.0
X39.0Y-83.0
X39.0Y-84.0
X39.0Y-85.0
X39.0Y-86.0
X39.0Y-87.0
X39.0Y-88.0
X39.0Y-89.0
X39.0Y-90.0
X39.0Y-91.0
X39.0Y-92.0
X39.0Y-93.0
X39.0Y-94.0
X39.0Y-95.0
X39.0Y-96.0
X39.0Y-97.0
X39.0Y-98.0
X39.0Y-99.0
X39.0Y-100.0
X39.0Y-101.0
X39.0Y-102.0
X39.0Y-103.0
X39.0Y-104.0
X39.0Y-105.0
X39.0Y-106.0
X39.0Y-107.0
X39.0Y-108.0
X39.0Y-109.0
X39.0Y-110.0
X39.0Y-111.0
X39.0Y-112.0
X40.0Y-38.0
X40.0Y-39.0
X40.0Y-111.0
X40.0Y-112.0
X41.0Y-38.0
X41.0Y-39.0
X41.0Y-111.0
X41.0Y-112.0
X42.0Y-38.0
X42.0Y-39.0
X42.0Y-111.0
X42.0Y-112.0
X43.0Y-38.0
X43.0Y-39.0
X43.0Y-111.0
X43.0Y-112.0
X44.0Y-38.0
X44.0Y-39.0
X44.0Y-111.0
X44.0Y-112.0
X45.0Y-38.0
X45.0Y-39.0
X45.0Y-111.0
X45.0Y-112.0
X46.0Y-38.0
X46.0Y-39.0
X46.0Y-103.8
X46.0Y-111.0
X46.0Y-112.0
X47.0Y-38.0
X47.0Y-39.0
X47.0Y-111.0
X47.0Y-112.0
X47.4Y-107.8
X48.0Y-38.0
X48.0Y-39.0
X48.0Y-108.8
X48.0Y-111.0
X48.0Y-112.0
X48.6Y-105.2
X48.8Y-109.6
X49.0Y-38.0
X49.0Y-39.0
X49.0Y-112.0
X49.6Y-110.4
X50.0Y-38.0
X50.0Y-39.0
X50.0Y-112.0
X50.4Y-108.8
X50.6Y-104.0
X51.0Y-38.0
X51.0Y-39.0
X51.0Y-50.0
X51.0Y-112.0
X51.2Y-109.4
X51.9Y-106.3
X51.9Y-107.0
X52.0Y-38.0
X52.0Y-39.0
X52.0Y-110.2
X52.0Y-112.0
X52.938Y-86.438
X53.0Y-38.0
X53.0Y-39.0
X53.0Y-41.4
X53.0Y-110.2
X53.0Y-112.0
X53.155Y-105.1
X54.0Y-38.0
X54.0Y-39.0
X54.0Y-110.2
X54.0Y-112.0
X54.5Y-82.0
X54.6Y-105.0
X54.6Y-105.8
X54.6Y-106.6
X54.6Y-107.4
X54.6Y-108.2
X54.75Y-85.25
X54.75Y-87.75
X54.875Y-59.7
X55.0Y-38.0
X55.0Y-39.0
X55.0Y-80.75
X55.0Y-81.5
X55.0Y-82.77
X55.0Y-110.2
X55.0Y-112.0
X56.0Y-38.0
X56.0Y-39.0
X56.0Y-110.2
X56.0Y-112.0
X57.0Y-38.0
X57.0Y-39.0
X57.0Y-110.2
X57.0Y-112.0
X58.0Y-38.0
X58.0Y-39.0
X58.0Y-110.2
X58.0Y-112.0
X59.0Y-38.0
X59.0Y-39.0
X59.0Y-110.2
X59.0Y-112.0
X59.5Y-71.75
X59.5Y-72.5
X59.5Y-73.75
X59.5Y-75.0
X59.5Y-75.75
X59.5Y-77.0
X59.5Y-88.5
X59.5Y-89.5
X59.5Y-91.75
X59.8Y-104.8
X59.8Y-105.6
X59.8Y-107.6
X59.8Y-108.4
X60.0Y-38.0
X60.0Y-39.0
X60.0Y-110.2
X60.0Y-112.0
X60.4Y-106.8
X60.75Y-88.0
X60.8Y-80.0
X60.8Y-77.6
X60.8Y-78.4
X60.8Y-79.2
X60.8Y-104.8
X60.8Y-105.6
X60.8Y-107.6
X60.8Y-108.4
X61.0Y-38.0
X61.0Y-39.0
X61.0Y-64.0
X61.0Y-65.0
X61.0Y-66.0
X61.0Y-67.0
X61.0Y-68.0
X61.0Y-69.0
X61.0Y-110.2
X61.0Y-112.0
X61.8Y-77.6
X61.8Y-78.4
X61.8Y-79.2
X61.8Y-80.0
X62.0Y-38.0
X62.0Y-39.0
X62.0Y-64.0
X62.0Y-65.0
X62.0Y-66.0
X62.0Y-67.0
X62.0Y-68.0
X62.0Y-69.0
X62.0Y-110.2
X62.0Y-112.0
X62.8Y-77.6
X62.8Y-78.4
X62.8Y-79.2
X62.8Y-80.0
X63.0Y-38.0
X63.0Y-39.0
X63.0Y-64.0
X63.0Y-65.0
X63.0Y-66.0
X63.0Y-67.0
X63.0Y-68.0
X63.0Y-69.0
X63.0Y-110.2
X63.0Y-112.0
X63.8Y-77.6
X63.8Y-78.4
X63.8Y-79.2
X63.8Y-80.0
X64.0Y-38.0
X64.0Y-39.0
X64.0Y-110.2
X64.0Y-112.0
X64.8Y-77.6
X64.8Y-78.4
X64.8Y-79.2
X64.8Y-80.0
X65.0Y-38.0
X65.0Y-39.0
X65.0Y-110.2
X65.0Y-112.0
X65.8Y-77.6
X65.8Y-78.4
X65.8Y-79.2
X65.8Y-80.0
X66.0Y-38.0
X66.0Y-39.0
X66.0Y-110.2
X66.0Y-112.0
X66.8Y-77.6
X66.8Y-78.4
X66.8Y-79.2
X66.8Y-80.0
X67.0Y-38.0
X67.0Y-39.0
X67.0Y-110.2
X67.0Y-112.0
X67.8Y-77.6
X67.8Y-78.4
X67.8Y-79.2
X67.8Y-80.0
X67.8Y-110.2
X68.0Y-38.0
X68.0Y-39.0
X68.0Y-112.0
X68.8Y-77.6
X68.8Y-78.4
X68.8Y-79.2
X68.8Y-80.0
X69.0Y-38.0
X69.0Y-39.0
X69.0Y-73.7
X69.0Y-76.3
X69.0Y-112.0
X69.5Y-67.0
X69.733Y-107.867
X69.8Y-77.6
X69.8Y-78.4
X69.8Y-79.2
X69.8Y-80.0
X70.0Y-38.0
X70.0Y-39.0
X70.0Y-112.0
X70.595Y-108.345
X70.8Y-77.6
X70.8Y-78.4
X70.8Y-79.2
X70.8Y-80.0
X71.0Y-38.0
X71.0Y-39.0
X71.0Y-112.0
X71.8Y-78.4
X71.8Y-79.2
X71.8Y-77.6
X72.0Y-38.0
X72.0Y-39.0
X72.0Y-95.0
X72.0Y-96.0
X72.0Y-97.0
X72.0Y-98.0
X72.0Y-99.0
X72.0Y-100.0
X72.0Y-101.0
X72.0Y-112.0
X72.2Y-111.0
X72.5Y-75.0
X72.5Y-77.6
X72.8Y-78.4
X72.8Y-79.2
X73.0Y-38.0
X73.0Y-39.0
X73.0Y-95.0
X73.0Y-96.0
X73.0Y-97.0
X73.0Y-98.0
X73.0Y-99.0
X73.0Y-100.0
X73.0Y-101.0
X73.0Y-111.0
X73.0Y-112.0
X73.2Y-46.4
X73.4Y-56.0
X73.8Y-77.6
X73.8Y-78.4
X73.8Y-79.2
X74.0Y-38.0
X74.0Y-39.0
X74.0Y-96.0
X74.0Y-97.0
X74.0Y-98.0
X74.0Y-99.0
X74.0Y-100.0
X74.0Y-101.0
X74.0Y-111.0
X74.0Y-112.0
X74.8Y-77.6
X74.8Y-78.4
X74.8Y-79.2
X75.0Y-38.0
X75.0Y-39.0
X75.0Y-93.0
X75.0Y-94.0
X75.0Y-111.0
X75.0Y-112.0
X75.8Y-77.6
X75.8Y-78.4
X75.8Y-79.2
X76.0Y-38.0
X76.0Y-39.0
X76.0Y-111.0
X76.0Y-112.0
X76.8Y-77.6
X76.8Y-78.4
X76.8Y-79.2
X77.0Y-38.0
X77.0Y-39.0
X77.0Y-93.0
X77.0Y-94.0
X77.0Y-111.0
X77.0Y-112.0
X77.8Y-77.6
X77.8Y-78.4
X77.8Y-79.2
X78.0Y-38.0
X78.0Y-39.0
X78.0Y-74.4
X78.0Y-107.6
X78.0Y-111.0
X78.0Y-112.0
X78.6Y-83.0
X78.6Y-83.8
X78.6Y-84.6
X78.6Y-85.8
X78.6Y-86.6
X78.6Y-88.8
X78.6Y-89.6
X78.8Y-77.6
X78.8Y-78.4
X78.8Y-79.2
X79.0Y-38.0
X79.0Y-39.0
X79.0Y-72.8
X79.0Y-93.0
X79.0Y-94.0
X79.0Y-107.6
X79.0Y-111.0
X79.0Y-112.0
X79.4Y-42.8
X79.6Y-83.0
X79.6Y-83.8
X79.6Y-84.6
X79.6Y-85.8
X79.6Y-86.6
X79.6Y-88.8
X79.6Y-89.6
X79.8Y-77.6
X79.8Y-78.4
X79.8Y-79.2
X80.0Y-107.6
X80.0Y-38.0
X80.0Y-39.0
X80.0Y-111.0
X80.0Y-112.0
X80.6Y-83.0
X80.6Y-83.8
X80.6Y-84.6
X80.6Y-85.8
X80.6Y-86.6
X80.6Y-88.8
X80.6Y-89.6
X80.8Y-79.2
X81.0Y-38.0
X81.0Y-39.0
X81.0Y-71.875
X81.0Y-74.4
X81.0Y-93.0
X81.0Y-94.0
X81.0Y-111.0
X81.0Y-112.0
X81.6Y-83.0
X81.6Y-83.8
X81.6Y-84.6
X81.6Y-85.8
X81.6Y-86.6
X81.6Y-88.8
X81.6Y-89.6
X81.8Y-79.2
X82.0Y-38.0
X82.0Y-39.0
X82.0Y-111.0
X82.0Y-112.0
X82.6Y-83.0
X82.6Y-83.8
X82.6Y-84.6
X82.6Y-85.8
X82.6Y-86.6
X82.6Y-88.8
X82.6Y-89.6
X82.8Y-74.4
X82.8Y-79.2
X83.0Y-38.0
X83.0Y-39.0
X83.0Y-66.0
X83.0Y-67.0
X83.0Y-68.0
X83.0Y-69.0
X83.0Y-70.0
X83.0Y-111.0
X83.0Y-112.0
X83.6Y-83.0
X83.6Y-83.8
X83.6Y-84.6
X83.6Y-85.8
X83.6Y-86.6
X83.6Y-88.8
X83.6Y-89.6
X83.8Y-74.4
X83.8Y-79.2
X84.0Y-38.0
X84.0Y-39.0
X84.0Y-66.0
X84.0Y-67.0
X84.0Y-68.0
X84.0Y-69.0
X84.0Y-70.0
X84.0Y-111.0
X84.0Y-112.0
X84.6Y-83.0
X84.6Y-83.8
X84.6Y-84.6
X84.6Y-85.8
X84.6Y-86.6
X84.6Y-88.8
X84.6Y-89.6
X84.8Y-74.4
X84.8Y-79.2
X85.0Y-38.0
X85.0Y-39.0
X85.0Y-66.0
X85.0Y-67.0
X85.0Y-68.0
X85.0Y-69.0
X85.0Y-70.0
X85.0Y-94.0
X85.0Y-96.0
X85.0Y-98.0
X85.0Y-100.0
X85.0Y-102.0
X85.0Y-111.0
X85.0Y-112.0
X85.6Y-83.0
X85.6Y-83.8
X85.6Y-84.6
X85.6Y-85.8
X85.6Y-86.6
X85.6Y-88.8
X85.6Y-89.6
X85.8Y-74.4
X85.8Y-79.2
X86.0Y-38.0
X86.0Y-39.0
X86.0Y-66.0
X86.0Y-67.0
X86.0Y-68.0
X86.0Y-69.0
X86.0Y-70.0
X86.0Y-111.0
X86.0Y-112.0
X86.6Y-83.0
X86.6Y-83.8
X86.6Y-84.6
X86.6Y-85.8
X86.6Y-86.6
X86.6Y-88.8
X86.6Y-89.6
X86.8Y-74.4
X86.8Y-79.2
X87.0Y-38.0
X87.0Y-39.0
X87.0Y-66.0
X87.0Y-67.0
X87.0Y-68.0
X87.0Y-69.0
X87.0Y-70.0
X87.0Y-94.0
X87.0Y-96.0
X87.0Y-98.0
X87.0Y-100.0
X87.0Y-102.0
X87.0Y-111.0
X87.0Y-112.0
X87.6Y-83.0
X87.6Y-83.8
X87.6Y-84.6
X87.6Y-85.8
X87.6Y-86.6
X87.6Y-88.8
X87.6Y-89.6
X87.8Y-74.4
X87.8Y-79.2
X88.0Y-38.0
X88.0Y-39.0
X88.0Y-66.0
X88.0Y-67.0
X88.0Y-68.0
X88.0Y-69.0
X88.0Y-70.0
X88.0Y-111.0
X88.0Y-112.0
X88.6Y-83.0
X88.6Y-83.8
X88.6Y-84.6
X88.6Y-85.8
X88.6Y-86.6
X88.6Y-88.8
X88.6Y-89.6
X88.8Y-74.4
X88.8Y-77.6
X88.8Y-78.4
X88.8Y-79.2
X88.8Y-80.0
X89.0Y-38.0
X89.0Y-39.0
X89.0Y-66.0
X89.0Y-67.0
X89.0Y-68.0
X89.0Y-69.0
X89.0Y-70.0
X89.0Y-94.0
X89.0Y-96.0
X89.0Y-98.0
X89.0Y-100.0
X89.0Y-102.0
X89.0Y-111.0
X89.0Y-112.0
X89.6Y-83.0
X89.6Y-83.8
X89.6Y-84.6
X89.6Y-85.8
X89.6Y-86.6
X89.6Y-88.8
X89.6Y-89.6
X89.8Y-74.4
X89.8Y-77.6
X89.8Y-78.4
X89.8Y-79.2
X89.8Y-80.0
X90.0Y-38.0
X90.0Y-39.0
X90.0Y-66.0
X90.0Y-67.0
X90.0Y-68.0
X90.0Y-69.0
X90.0Y-70.0
X90.0Y-111.0
X90.0Y-112.0
X90.6Y-83.0
X90.6Y-83.8
X90.6Y-84.6
X90.6Y-85.8
X90.6Y-86.6
X90.6Y-88.8
X90.6Y-89.6
X90.8Y-74.4
X90.8Y-77.6
X90.8Y-78.4
X90.8Y-79.2
X90.8Y-80.0
X91.0Y-38.0
X91.0Y-39.0
X91.0Y-66.0
X91.0Y-67.0
X91.0Y-68.0
X91.0Y-69.0
X91.0Y-70.0
X91.0Y-94.0
X91.0Y-96.0
X91.0Y-98.0
X91.0Y-100.0
X91.0Y-102.0
X91.0Y-111.0
X91.0Y-112.0
X91.6Y-83.0
X91.6Y-83.8
X91.6Y-84.6
X91.6Y-85.8
X91.6Y-86.6
X91.6Y-88.8
X91.6Y-89.6
X91.8Y-74.4
X91.8Y-77.6
X91.8Y-78.4
X91.8Y-79.2
X91.8Y-80.0
X92.0Y-38.0
X92.0Y-39.0
X92.0Y-66.0
X92.0Y-67.0
X92.0Y-68.0
X92.0Y-69.0
X92.0Y-70.0
X92.0Y-111.0
X92.0Y-112.0
X92.6Y-83.0
X92.6Y-83.8
X92.6Y-84.6
X92.6Y-85.8
X92.6Y-86.6
X92.6Y-88.8
X92.6Y-89.6
X92.8Y-74.4
X92.8Y-77.6
X92.8Y-78.4
X92.8Y-79.2
X92.8Y-80.0
X93.0Y-38.0
X93.0Y-39.0
X93.0Y-40.0
X93.0Y-41.0
X93.0Y-42.0
X93.0Y-43.0
X93.0Y-44.0
X93.0Y-45.0
X93.0Y-46.0
X93.0Y-47.0
X93.0Y-48.0
X93.0Y-49.0
X93.0Y-50.0
X93.0Y-51.0
X93.0Y-52.0
X93.0Y-53.0
X93.0Y-54.0
X93.0Y-55.0
X93.0Y-56.0
X93.0Y-57.0
X93.0Y-66.0
X93.0Y-67.0
X93.0Y-68.0
X93.0Y-69.0
X93.0Y-70.0
X93.0Y-94.0
X93.0Y-96.0
X93.0Y-98.0
X93.0Y-100.0
X93.0Y-102.0
X93.0Y-111.0
X93.0Y-112.0
X93.6Y-83.0
X93.6Y-83.8
X93.6Y-84.6
X93.6Y-85.8
X93.6Y-86.6
X93.6Y-88.8
X93.6Y-89.6
X93.8Y-74.4
X93.8Y-77.6
X93.8Y-78.4
X93.8Y-79.2
X93.8Y-80.0
X94.0Y-38.0
X94.0Y-39.0
X94.0Y-40.0
X94.0Y-41.0
X94.0Y-42.0
X94.0Y-43.0
X94.0Y-44.0
X94.0Y-45.0
X94.0Y-46.0
X94.0Y-47.0
X94.0Y-48.0
X94.0Y-49.0
X94.0Y-50.0
X94.0Y-51.0
X94.0Y-52.0
X94.0Y-53.0
X94.0Y-54.0
X94.0Y-55.0
X94.0Y-56.0
X94.0Y-57.0
X94.0Y-66.0
X94.0Y-67.0
X94.0Y-68.0
X94.0Y-69.0
X94.0Y-70.0
X94.0Y-111.0
X94.0Y-112.0
X94.8Y-74.4
X95.0Y-38.0
X95.0Y-39.0
X95.0Y-40.0
X95.0Y-41.0
X95.0Y-42.0
X95.0Y-43.0
X95.0Y-44.0
X95.0Y-45.0
X95.0Y-46.0
X95.0Y-47.0
X95.0Y-48.0
X95.0Y-49.0
X95.0Y-50.0
X95.0Y-51.0
X95.0Y-52.0
X95.0Y-53.0
X95.0Y-54.0
X95.0Y-55.0
X95.0Y-56.0
X95.0Y-57.0
X95.0Y-66.0
X95.0Y-67.0
X95.0Y-68.0
X95.0Y-69.0
X95.0Y-70.0
X95.0Y-75.75
X95.0Y-111.0
X95.0Y-112.0
X95.6Y-83.0
X95.6Y-83.8
X95.6Y-84.6
X95.6Y-85.8
X95.6Y-86.6
X95.6Y-88.8
X95.6Y-89.6
X95.8Y-74.4
X96.0Y-38.0
X96.0Y-39.0
X96.0Y-40.0
X96.0Y-41.0
X96.0Y-42.0
X96.0Y-43.0
X96.0Y-44.0
X96.0Y-45.0
X96.0Y-46.0
X96.0Y-47.0
X96.0Y-48.0
X96.0Y-49.0
X96.0Y-50.0
X96.0Y-51.0
X96.0Y-52.0
X96.0Y-53.0
X96.0Y-54.0
X96.0Y-55.0
X96.0Y-56.0
X96.0Y-57.0
X96.0Y-66.0
X96.0Y-67.0
X96.0Y-68.0
X96.0Y-69.0
X96.0Y-70.0
X96.0Y-94.0
X96.0Y-96.0
X96.0Y-98.0
X96.0Y-100.0
X96.0Y-102.0
X96.0Y-111.0
X96.0Y-112.0
X96.4Y-83.0
X96.4Y-83.8
X96.4Y-84.6
X96.4Y-85.8
X96.4Y-86.6
X96.4Y-88.8
X96.4Y-89.6
X96.8Y-74.4
X97.0Y-38.0
X97.0Y-39.0
X97.0Y-40.0
X97.0Y-41.0
X97.0Y-42.0
X97.0Y-43.0
X97.0Y-44.0
X97.0Y-45.0
X97.0Y-46.0
X97.0Y-47.0
X97.0Y-48.0
X97.0Y-49.0
X97.0Y-50.0
X97.0Y-51.0
X97.0Y-52.0
X97.0Y-53.0
X97.0Y-54.0
X97.0Y-55.0
X97.0Y-56.0
X97.0Y-57.0
X97.0Y-66.0
X97.0Y-67.0
X97.0Y-68.0
X97.0Y-69.0
X97.0Y-70.0
X97.0Y-94.0
X97.0Y-96.0
X97.0Y-98.0
X97.0Y-100.0
X97.0Y-102.0
X97.0Y-111.0
X97.0Y-112.0
X97.2Y-83.0
X97.2Y-83.8
X97.2Y-84.6
X97.2Y-85.8
X97.2Y-86.6
X97.2Y-88.8
X97.2Y-89.6
X97.75Y-77.0
X97.8Y-74.4
X98.0Y-38.0
X98.0Y-39.0
X98.0Y-40.0
X98.0Y-41.0
X98.0Y-42.0
X98.0Y-43.0
X98.0Y-44.0
X98.0Y-45.0
X98.0Y-46.0
X98.0Y-47.0
X98.0Y-48.0
X98.0Y-49.0
X98.0Y-50.0
X98.0Y-51.0
X98.0Y-52.0
X98.0Y-53.0
X98.0Y-54.0
X98.0Y-55.0
X98.0Y-56.0
X98.0Y-57.0
X98.0Y-66.0
X98.0Y-67.0
X98.0Y-68.0
X98.0Y-69.0
X98.0Y-70.0
X98.0Y-111.0
X98.0Y-112.0
X98.4Y-83.0
X98.4Y-83.8
X98.4Y-84.6
X98.6Y-85.8
X98.6Y-86.6
X98.6Y-88.8
X98.6Y-89.6
X98.8Y-74.4
X99.0Y-38.0
X99.0Y-39.0
X99.0Y-40.0
X99.0Y-41.0
X99.0Y-42.0
X99.0Y-43.0
X99.0Y-44.0
X99.0Y-45.0
X99.0Y-46.0
X99.0Y-47.0
X99.0Y-48.0
X99.0Y-49.0
X99.0Y-50.0
X99.0Y-51.0
X99.0Y-52.0
X99.0Y-53.0
X99.0Y-54.0
X99.0Y-55.0
X99.0Y-56.0
X99.0Y-57.0
X99.0Y-66.0
X99.0Y-67.0
X99.0Y-68.0
X99.0Y-69.0
X99.0Y-70.0
X99.0Y-77.6
X99.0Y-78.4
X99.0Y-79.2
X99.0Y-80.0
X99.0Y-94.0
X99.0Y-96.0
X99.0Y-98.0
X99.0Y-100.0
X99.0Y-102.0
X99.0Y-111.0
X99.0Y-112.0
X99.2Y-83.0
X99.2Y-83.8
X99.2Y-84.6
X99.4Y-85.8
X99.4Y-86.6
X99.4Y-88.8
X99.4Y-89.6
X99.8Y-74.4
X100.0Y-38.0
X100.0Y-39.0
X100.0Y-66.0
X100.0Y-67.0
X100.0Y-68.0
X100.0Y-69.0
X100.0Y-70.0
X100.0Y-77.6
X100.0Y-78.4
X100.0Y-79.2
X100.0Y-80.0
X100.0Y-111.0
X100.0Y-112.0
X100.25Y-81.5
X100.8Y-74.4
X101.0Y-38.0
X101.0Y-39.0
X101.0Y-66.0
X101.0Y-67.0
X101.0Y-68.0
X101.0Y-69.0
X101.0Y-77.6
X101.0Y-78.4
X101.0Y-79.2
X101.0Y-80.0
X101.0Y-85.8
X101.0Y-86.6
X101.0Y-88.8
X101.0Y-89.6
X101.0Y-111.0
X101.0Y-112.0
X101.4Y-83.0
X101.4Y-83.8
X101.4Y-84.6
X101.8Y-74.4
X101.8Y-85.8
X101.8Y-86.6
X101.8Y-88.8
X101.8Y-89.6
X102.0Y-38.0
X102.0Y-39.0
X102.0Y-66.0
X102.0Y-67.0
X102.0Y-68.0
X102.0Y-69.0
X102.0Y-77.6
X102.0Y-78.4
X102.0Y-79.2
X102.0Y-80.0
X102.0Y-94.0
X102.0Y-96.0
X102.0Y-98.0
X102.0Y-100.0
X102.0Y-102.0
X102.0Y-111.0
X102.0Y-112.0
X102.75Y-82.5
X102.8Y-74.4
X103.0Y-38.0
X103.0Y-39.0
X103.0Y-66.0
X103.0Y-67.0
X103.0Y-68.0
X103.0Y-69.0
X103.0Y-77.6
X103.0Y-78.4
X103.0Y-79.2
X103.0Y-80.0
X103.0Y-111.0
X103.0Y-112.0
X103.4Y-85.8
X103.4Y-86.6
X103.4Y-88.8
X103.4Y-89.6
X103.8Y-83.0
X103.8Y-83.8
X103.8Y-84.6
X103.96Y-76.36
X104.0Y-38.0
X104.0Y-39.0
X104.0Y-66.0
X104.0Y-67.0
X104.0Y-68.0
X104.0Y-69.0
X104.0Y-77.6
X104.0Y-78.4
X104.0Y-79.2
X104.0Y-80.0
X104.0Y-94.0
X104.0Y-96.0
X104.0Y-98.0
X104.0Y-100.0
X104.0Y-102.0
X104.0Y-111.0
X104.0Y-112.0
X104.4Y-85.8
X104.4Y-86.6
X104.4Y-88.8
X104.4Y-89.6
X104.8Y-83.0
X104.8Y-74.4
X104.8Y-83.8
X104.8Y-84.6
X105.0Y-38.0
X105.0Y-39.0
X105.0Y-66.0
X105.0Y-67.0
X105.0Y-68.0
X105.0Y-69.0
X105.0Y-77.6
X105.0Y-78.4
X105.0Y-79.2
X105.0Y-80.0
X105.0Y-111.0
X105.0Y-112.0
X105.5Y-85.25
X105.8Y-83.0
X105.8Y-74.4
X105.8Y-83.8
X106.0Y-38.0
X106.0Y-39.0
X106.0Y-66.0
X106.0Y-67.0
X106.0Y-68.0
X106.0Y-69.0
X106.0Y-77.6
X106.0Y-78.4
X106.0Y-79.2
X106.0Y-80.0
X106.0Y-111.0
X106.0Y-112.0
X106.4Y-88.8
X106.4Y-89.6
X106.8Y-83.0
X106.8Y-74.4
X106.8Y-83.8
X106.8Y-84.6
X106.8Y-85.8
X106.8Y-86.6
X107.0Y-38.0
X107.0Y-39.0
X107.0Y-66.0
X107.0Y-67.0
X107.0Y-68.0
X107.0Y-69.0
X107.0Y-77.6
X107.0Y-78.4
X107.0Y-79.2
X107.0Y-80.0
X107.0Y-94.0
X107.0Y-96.0
X107.0Y-98.0
X107.0Y-100.0
X107.0Y-102.0
X107.0Y-111.0
X107.0Y-112.0
X107.4Y-88.8
X107.8Y-74.4
X107.8Y-83.0
X107.8Y-83.8
X107.8Y-84.6
X107.8Y-85.8
X107.8Y-86.6
X108.0Y-38.0
X108.0Y-39.0
X108.0Y-66.0
X108.0Y-67.0
X108.0Y-68.0
X108.0Y-69.0
X108.0Y-77.6
X108.0Y-78.4
X108.0Y-79.2
X108.0Y-80.0
X108.0Y-88.0
X108.0Y-111.0
X108.0Y-112.0
X108.4Y-88.8
X108.8Y-83.0
X108.8Y-74.4
X108.8Y-83.8
X108.8Y-84.6
X108.8Y-85.8
X108.8Y-86.6
X109.0Y-38.0
X109.0Y-39.0
X109.0Y-66.0
X109.0Y-67.0
X109.0Y-68.0
X109.0Y-69.0
X109.0Y-77.6
X109.0Y-78.4
X109.0Y-79.2
X109.0Y-80.0
X109.0Y-94.0
X109.0Y-96.0
X109.0Y-98.0
X109.0Y-100.0
X109.0Y-102.0
X109.0Y-111.0
X109.0Y-112.0
X109.4Y-88.8
X109.4Y-89.6
X109.8Y-83.0
X109.8Y-74.4
X109.8Y-83.8
X109.8Y-84.6
X109.8Y-85.8
X109.8Y-86.6
X110.0Y-38.0
X110.0Y-39.0
X110.0Y-66.0
X110.0Y-67.0
X110.0Y-68.0
X110.0Y-77.6
X110.0Y-78.4
X110.0Y-79.2
X110.0Y-80.0
X110.0Y-111.0
X110.0Y-112.0
X110.4Y-88.8
X110.4Y-89.6
X110.8Y-83.0
X110.8Y-74.4
X110.8Y-83.8
X110.8Y-84.6
X110.8Y-85.8
X110.8Y-86.6
X111.0Y-38.0
X111.0Y-39.0
X111.0Y-66.0
X111.0Y-67.0
X111.0Y-68.0
X111.0Y-77.6
X111.0Y-78.4
X111.0Y-79.2
X111.0Y-80.0
X111.0Y-94.0
X111.0Y-96.0
X111.0Y-98.0
X111.0Y-100.0
X111.0Y-102.0
X111.0Y-111.0
X111.0Y-112.0
X111.4Y-88.8
X111.4Y-89.6
X111.8Y-74.4
X111.8Y-83.0
X111.8Y-83.8
X111.8Y-84.6
X111.8Y-85.8
X111.8Y-86.6
X112.0Y-38.0
X112.0Y-39.0
X112.0Y-40.0
X112.0Y-41.0
X112.0Y-42.0
X112.0Y-43.0
X112.0Y-44.0
X112.0Y-45.0
X112.0Y-46.0
X112.0Y-47.0
X112.0Y-48.0
X112.0Y-49.0
X112.0Y-50.0
X112.0Y-51.0
X112.0Y-52.0
X112.0Y-53.0
X112.0Y-54.0
X112.0Y-55.0
X112.0Y-56.0
X112.0Y-57.0
X112.0Y-66.0
X112.0Y-67.0
X112.0Y-68.0
X112.0Y-77.6
X112.0Y-78.4
X112.0Y-79.2
X112.0Y-80.0
X112.0Y-92.5
X112.0Y-111.0
X112.0Y-112.0
X112.4Y-88.8
X112.4Y-89.6
X112.8Y-83.0
X112.8Y-74.4
X112.8Y-83.8
X112.8Y-84.6
X112.8Y-85.8
X112.8Y-86.6
X113.0Y-38.0
X113.0Y-39.0
X113.0Y-40.0
X113.0Y-41.0
X113.0Y-42.0
X113.0Y-43.0
X113.0Y-44.0
X113.0Y-45.0
X113.0Y-46.0
X113.0Y-47.0
X113.0Y-48.0
X113.0Y-49.0
X113.0Y-50.0
X113.0Y-51.0
X113.0Y-52.0
X113.0Y-53.0
X113.0Y-54.0
X113.0Y-55.0
X113.0Y-56.0
X113.0Y-57.0
X113.0Y-66.0
X113.0Y-67.0
X113.0Y-68.0
X113.0Y-69.0
X113.0Y-77.6
X113.0Y-78.4
X113.0Y-79.2
X113.0Y-80.0
X113.0Y-94.0
X113.0Y-96.0
X113.0Y-98.0
X113.0Y-100.0
X113.0Y-102.0
X113.0Y-111.0
X113.0Y-112.0
X113.4Y-88.8
X113.4Y-89.6
X113.8Y-83.0
X113.8Y-74.4
X113.8Y-83.8
X113.8Y-84.6
X113.8Y-85.8
X113.8Y-86.6
X114.0Y-38.0
X114.0Y-39.0
X114.0Y-40.0
X114.0Y-41.0
X114.0Y-42.0
X114.0Y-43.0
X114.0Y-44.0
X114.0Y-45.0
X114.0Y-46.0
X114.0Y-47.0
X114.0Y-48.0
X114.0Y-49.0
X114.0Y-50.0
X114.0Y-51.0
X114.0Y-52.0
X114.0Y-53.0
X114.0Y-54.0
X114.0Y-55.0
X114.0Y-56.0
X114.0Y-57.0
X114.0Y-66.0
X114.0Y-67.0
X114.0Y-68.0
X114.0Y-69.0
X114.0Y-77.6
X114.0Y-78.4
X114.0Y-79.2
X114.0Y-80.0
X114.0Y-111.0
X114.0Y-112.0
X114.4Y-88.8
X114.4Y-89.6
X114.8Y-83.0
X114.8Y-74.4
X114.8Y-83.8
X114.8Y-84.6
X114.8Y-85.8
X114.8Y-86.6
X115.0Y-38.0
X115.0Y-39.0
X115.0Y-40.0
X115.0Y-41.0
X115.0Y-42.0
X115.0Y-43.0
X115.0Y-44.0
X115.0Y-45.0
X115.0Y-46.0
X115.0Y-47.0
X115.0Y-48.0
X115.0Y-49.0
X115.0Y-50.0
X115.0Y-51.0
X115.0Y-52.0
X115.0Y-53.0
X115.0Y-54.0
X115.0Y-55.0
X115.0Y-56.0
X115.0Y-57.0
X115.0Y-66.0
X115.0Y-67.0
X115.0Y-68.0
X115.0Y-69.0
X115.0Y-77.6
X115.0Y-78.4
X115.0Y-79.2
X115.0Y-80.0
X115.0Y-111.0
X115.0Y-112.0
X115.8Y-74.4
X116.0Y-38.0
X116.0Y-39.0
X116.0Y-40.0
X116.0Y-41.0
X116.0Y-42.0
X116.0Y-43.0
X116.0Y-44.0
X116.0Y-45.0
X116.0Y-46.0
X116.0Y-47.0
X116.0Y-48.0
X116.0Y-49.0
X116.0Y-50.0
X116.0Y-51.0
X116.0Y-52.0
X116.0Y-53.0
X116.0Y-54.0
X116.0Y-55.0
X116.0Y-56.0
X116.0Y-57.0
X116.0Y-66.0
X116.0Y-67.0
X116.0Y-68.0
X116.0Y-69.0
X116.0Y-94.0
X116.0Y-96.0
X116.0Y-98.0
X116.0Y-100.0
X116.0Y-102.0
X116.0Y-111.0
X116.0Y-112.0
X116.75Y-76.425
X116.8Y-74.4
X117.0Y-38.0
X117.0Y-39.0
X117.0Y-40.0
X117.0Y-41.0
X117.0Y-42.0
X117.0Y-43.0
X117.0Y-44.0
X117.0Y-45.0
X117.0Y-46.0
X117.0Y-47.0
X117.0Y-48.0
X117.0Y-49.0
X117.0Y-50.0
X117.0Y-51.0
X117.0Y-52.0
X117.0Y-53.0
X117.0Y-54.0
X117.0Y-55.0
X117.0Y-56.0
X117.0Y-57.0
X117.0Y-66.0
X117.0Y-67.0
X117.0Y-68.0
X117.0Y-69.0
X117.0Y-111.0
X117.0Y-112.0
X117.4Y-83.0
X117.4Y-83.8
X117.4Y-84.6
X117.4Y-85.8
X117.4Y-86.6
X117.4Y-88.8
X117.4Y-89.6
X117.8Y-74.4
X118.0Y-38.0
X118.0Y-39.0
X118.0Y-40.0
X118.0Y-41.0
X118.0Y-42.0
X118.0Y-43.0
X118.0Y-44.0
X118.0Y-45.0
X118.0Y-46.0
X118.0Y-47.0
X118.0Y-48.0
X118.0Y-49.0
X118.0Y-50.0
X118.0Y-51.0
X118.0Y-52.0
X118.0Y-53.0
X118.0Y-54.0
X118.0Y-55.0
X118.0Y-56.0
X118.0Y-57.0
X118.0Y-66.0
X118.0Y-67.0
X118.0Y-68.0
X118.0Y-77.6
X118.0Y-78.4
X118.0Y-79.2
X118.0Y-80.0
X118.0Y-94.0
X118.0Y-96.0
X118.0Y-98.0
X118.0Y-100.0
X118.0Y-102.0
X118.0Y-111.0
X118.0Y-112.0
X118.4Y-83.0
X118.4Y-83.8
X118.4Y-84.6
X118.4Y-85.8
X118.4Y-86.6
X118.4Y-88.8
X118.4Y-89.6
X118.8Y-74.4
X119.0Y-38.0
X119.0Y-39.0
X119.0Y-66.0
X119.0Y-67.0
X119.0Y-68.0
X119.0Y-77.6
X119.0Y-78.4
X119.0Y-79.2
X119.0Y-80.0
X119.0Y-111.0
X119.0Y-112.0
X119.2Y-80.75
X119.8Y-74.4
X120.0Y-83.0
X120.0Y-38.0
X120.0Y-39.0
X120.0Y-48.0
X120.0Y-49.0
X120.0Y-50.0
X120.0Y-51.0
X120.0Y-52.0
X120.0Y-53.0
X120.0Y-54.0
X120.0Y-55.0
X120.0Y-56.0
X120.0Y-57.0
X120.0Y-58.0
X120.0Y-59.0
X120.0Y-66.0
X120.0Y-67.0
X120.0Y-68.0
X120.0Y-77.6
X120.0Y-78.4
X120.0Y-79.2
X120.0Y-80.0
X120.0Y-83.8
X120.0Y-84.6
X120.0Y-85.8
X120.0Y-86.6
X120.0Y-88.8
X120.0Y-89.6
X120.0Y-111.0
X120.0Y-112.0
X120.8Y-74.4
X121.0Y-83.0
X121.0Y-38.0
X121.0Y-39.0
X121.0Y-48.0
X121.0Y-49.0
X121.0Y-50.0
X121.0Y-51.0
X121.0Y-52.0
X121.0Y-53.0
X121.0Y-54.0
X121.0Y-55.0
X121.0Y-56.0
X121.0Y-57.0
X121.0Y-58.0
X121.0Y-59.0
X121.0Y-66.0
X121.0Y-67.0
X121.0Y-68.0
X121.0Y-77.6
X121.0Y-78.4
X121.0Y-79.2
X121.0Y-80.0
X121.0Y-83.8
X121.0Y-84.6
X121.0Y-85.8
X121.0Y-86.6
X121.0Y-88.8
X121.0Y-89.6
X121.0Y-94.0
X121.0Y-96.0
X121.0Y-98.0
X121.0Y-100.0
X121.0Y-102.0
X121.0Y-111.0
X121.0Y-112.0
X121.8Y-74.4
X122.0Y-38.0
X122.0Y-39.0
X122.0Y-48.0
X122.0Y-49.0
X122.0Y-50.0
X122.0Y-51.0
X122.0Y-52.0
X122.0Y-53.0
X122.0Y-54.0
X122.0Y-55.0
X122.0Y-56.0
X122.0Y-57.0
X122.0Y-58.0
X122.0Y-59.0
X122.0Y-66.0
X122.0Y-67.0
X122.0Y-68.0
X122.0Y-77.6
X122.0Y-78.4
X122.0Y-79.2
X122.0Y-80.0
X122.0Y-111.0
X122.0Y-112.0
X122.1Y-82.0
X123.0Y-38.0
X123.0Y-39.0
X123.0Y-48.0
X123.0Y-49.0
X123.0Y-50.0
X123.0Y-51.0
X123.0Y-52.0
X123.0Y-53.0
X123.0Y-54.0
X123.0Y-55.0
X123.0Y-56.0
X123.0Y-57.0
X123.0Y-58.0
X123.0Y-59.0
X123.0Y-66.0
X123.0Y-67.0
X123.0Y-68.0
X123.0Y-74.4
X123.0Y-77.6
X123.0Y-78.4
X123.0Y-79.2
X123.0Y-80.0
X123.0Y-94.0
X123.0Y-96.0
X123.0Y-98.0
X123.0Y-100.0
X123.0Y-102.0
X123.0Y-111.0
X123.0Y-112.0
X123.2Y-83.0
X123.2Y-83.8
X123.2Y-84.6
X123.2Y-85.8
X123.2Y-86.6
X123.2Y-88.8
X123.2Y-89.6
X124.0Y-38.0
X124.0Y-39.0
X124.0Y-48.0
X124.0Y-49.0
X124.0Y-50.0
X124.0Y-51.0
X124.0Y-52.0
X124.0Y-53.0
X124.0Y-54.0
X124.0Y-55.0
X124.0Y-56.0
X124.0Y-57.0
X124.0Y-58.0
X124.0Y-66.0
X124.0Y-67.0
X124.0Y-68.0
X124.0Y-74.4
X124.0Y-77.6
X124.0Y-78.4
X124.0Y-79.2
X124.0Y-80.0
X124.0Y-111.0
X124.0Y-112.0
X124.2Y-83.0
X124.2Y-83.8
X124.2Y-84.6
X124.2Y-85.8
X124.5Y-87.3
X124.8Y-66.0
X124.8Y-66.9
X124.8Y-71.838
X125.0Y-38.0
X125.0Y-39.0
X125.0Y-48.0
X125.0Y-49.0
X125.0Y-50.0
X125.0Y-51.0
X125.0Y-52.0
X125.0Y-53.0
X125.0Y-54.0
X125.0Y-55.0
X125.0Y-56.0
X125.0Y-57.0
X125.0Y-58.0
X125.0Y-59.0
X125.0Y-74.4
X125.0Y-77.6
X125.0Y-78.4
X125.0Y-79.2
X125.0Y-80.0
X125.0Y-111.0
X125.0Y-112.0
X125.2Y-83.0
X125.2Y-83.8
X125.2Y-84.6
X125.2Y-85.8
X125.2Y-86.6
X125.6Y-72.5
X125.6Y-66.0
X125.6Y-67.2
X125.6Y-68.0
X126.0Y-38.0
X126.0Y-39.0
X126.0Y-48.0
X126.0Y-49.0
X126.0Y-50.0
X126.0Y-51.0
X126.0Y-52.0
X126.0Y-53.0
X126.0Y-54.0
X126.0Y-55.0
X126.0Y-56.0
X126.0Y-57.0
X126.0Y-58.0
X126.0Y-59.0
X126.0Y-68.6
X126.0Y-77.6
X126.0Y-78.4
X126.0Y-79.2
X126.0Y-80.0
X126.0Y-94.0
X126.0Y-96.0
X126.0Y-98.0
X126.0Y-100.0
X126.0Y-102.0
X126.0Y-111.0
X126.0Y-112.0
X126.2Y-83.0
X126.2Y-83.8
X126.2Y-84.6
X126.2Y-85.8
X126.2Y-86.6
X126.2Y-88.6
X126.2Y-89.4
X126.4Y-73.75
X126.4Y-66.0
X126.6Y-67.2
X126.6Y-68.0
X126.7Y-69.1
X127.0Y-38.0
X127.0Y-39.0
X127.0Y-48.0
X127.0Y-49.0
X127.0Y-50.0
X127.0Y-51.0
X127.0Y-52.0
X127.0Y-53.0
X127.0Y-54.0
X127.0Y-55.0
X127.0Y-56.0
X127.0Y-57.0
X127.0Y-58.0
X127.0Y-59.0
X127.0Y-77.6
X127.0Y-78.4
X127.0Y-79.2
X127.0Y-80.0
X127.0Y-111.0
X127.0Y-112.0
X127.2Y-83.0
X127.2Y-83.8
X127.2Y-84.6
X127.2Y-85.8
X127.2Y-86.6
X127.2Y-88.6
X127.2Y-90.0
X127.4Y-65.0
X127.4Y-74.8
X128.0Y-38.0
X128.0Y-39.0
X128.0Y-48.0
X128.0Y-49.0
X128.0Y-50.0
X128.0Y-51.0
X128.0Y-52.0
X128.0Y-53.0
X128.0Y-54.0
X128.0Y-55.0
X128.0Y-56.0
X128.0Y-57.0
X128.0Y-58.0
X128.0Y-59.0
X128.0Y-77.6
X128.0Y-78.4
X128.0Y-79.2
X128.0Y-80.0
X128.0Y-111.0
X128.0Y-112.0
X128.2Y-83.0
X128.2Y-83.8
X128.2Y-84.6
X128.2Y-85.8
X128.2Y-86.6
X128.2Y-88.6
X128.2Y-89.4
X128.2Y-75.75
X128.4Y-65.2
X128.4Y-67.2
X128.4Y-66.0
X128.4Y-68.0
X128.4Y-73.2
X129.0Y-38.0
X129.0Y-39.0
X129.0Y-48.0
X129.0Y-49.0
X129.0Y-50.0
X129.0Y-51.0
X129.0Y-52.0
X129.0Y-53.0
X129.0Y-54.0
X129.0Y-55.0
X129.0Y-56.0
X129.0Y-57.0
X129.0Y-58.0
X129.0Y-59.0
X129.0Y-77.0
X129.0Y-78.4
X129.0Y-79.2
X129.0Y-80.0
X129.0Y-94.0
X129.0Y-96.0
X129.0Y-98.0
X129.0Y-100.0
X129.0Y-102.0
X129.0Y-111.0
X129.0Y-112.0
X129.2Y-83.0
X129.2Y-71.0
X129.2Y-83.8
X129.2Y-84.6
X129.2Y-85.8
X129.2Y-86.6
X129.2Y-88.6
X129.2Y-89.4
X129.4Y-65.2
X129.4Y-66.0
X129.4Y-67.2
X129.4Y-68.0
X129.7Y-90.6
X130.0Y-38.0
X130.0Y-39.0
X130.0Y-80.75
X130.0Y-111.0
X130.0Y-112.0
X130.2Y-83.0
X130.2Y-70.5
X130.2Y-83.8
X130.2Y-84.6
X130.2Y-85.8
X130.2Y-86.6
X130.2Y-88.6
X130.2Y-89.4
X130.4Y-65.2
X130.4Y-66.0
X130.4Y-67.2
X130.4Y-68.0
X130.8Y-81.5
X131.0Y-38.0
X131.0Y-39.0
X131.0Y-72.668
X131.0Y-94.0
X131.0Y-96.0
X131.0Y-98.0
X131.0Y-100.0
X131.0Y-102.0
X131.0Y-111.0
X131.0Y-112.0
X131.2Y-83.0
X131.2Y-67.2
X131.2Y-68.0
X131.2Y-83.8
X131.2Y-84.6
X131.2Y-85.8
X131.2Y-86.6
X131.2Y-88.6
X131.2Y-89.4
X131.4Y-65.2
X131.4Y-66.0
X131.6Y-82.0
X131.8Y-68.4
X132.0Y-38.0
X132.0Y-39.0
X132.0Y-67.2
X132.0Y-91.25
X132.0Y-111.0
X132.0Y-112.0
X132.2Y-83.8
X132.2Y-84.6
X132.2Y-85.8
X132.2Y-86.6
X132.2Y-88.6
X132.2Y-89.4
X132.4Y-65.2
X132.4Y-66.0
X132.4Y-67.8
X132.6Y-82.5
X132.8Y-67.2
X133.0Y-38.0
X133.0Y-39.0
X133.0Y-94.0
X133.0Y-96.0
X133.0Y-98.0
X133.0Y-100.0
X133.0Y-102.0
X133.0Y-111.0
X133.0Y-112.0
X133.094Y-71.493
X133.2Y-88.6
X133.2Y-89.4
X133.4Y-65.2
X133.4Y-66.0
X133.6Y-67.2
X133.675Y-85.075
X134.0Y-38.0
X134.0Y-39.0
X134.0Y-67.8
X134.0Y-111.0
X134.0Y-112.0
X134.2Y-88.6
X134.2Y-89.4
X134.4Y-65.2
X134.4Y-66.0
X134.4Y-67.2
X134.6Y-85.8
X134.7Y-70.8
X134.8Y-91.8
X135.0Y-38.0
X135.0Y-39.0
X135.0Y-111.0
X135.0Y-112.0
X135.2Y-67.2
X135.2Y-88.6
X135.2Y-89.4
X135.4Y-65.2
X135.4Y-66.0
X135.8Y-72.3
X135.8Y-85.8
X136.0Y-38.0
X136.0Y-39.0
X136.0Y-94.0
X136.0Y-96.0
X136.0Y-98.0
X136.0Y-100.0
X136.0Y-102.0
X136.0Y-111.0
X136.0Y-112.0
X136.0Y-67.2
X136.4Y-65.2
X136.4Y-66.0
X136.4Y-90.0
X137.0Y-38.0
X137.0Y-39.0
X137.0Y-111.0
X137.0Y-112.0
X137.1Y-67.269
X137.2Y-90.6
X137.4Y-65.2
X137.4Y-66.0
X137.6Y-68.7
X138.0Y-38.0
X138.0Y-39.0
X138.0Y-94.0
X138.0Y-96.0
X138.0Y-98.0
X138.0Y-100.0
X138.0Y-102.0
X138.0Y-111.0
X138.0Y-112.0
X138.2Y-70.0
X138.2Y-91.0
X139.0Y-38.0
X139.0Y-39.0
X139.0Y-91.8
X139.0Y-111.0
X139.0Y-112.0
X139.2Y-65.8
X139.8Y-92.2
X140.0Y-38.0
X140.0Y-39.0
X140.0Y-98.0
X140.0Y-100.0
X140.0Y-102.0
X140.0Y-111.0
X140.0Y-112.0
X140.202Y-66.0
X140.8Y-73.4
X141.0Y-38.0
X141.0Y-39.0
X141.0Y-56.0
X141.0Y-58.0
X141.0Y-59.0
X141.0Y-60.0
X141.0Y-61.0
X141.0Y-62.0
X141.0Y-63.0
X141.0Y-64.0
X141.0Y-65.0
X141.0Y-77.0
X141.0Y-78.0
X141.0Y-79.0
X141.0Y-80.0
X141.0Y-81.0
X141.0Y-82.0
X141.0Y-83.0
X141.0Y-84.0
X141.0Y-85.0
X141.0Y-86.0
X141.0Y-87.0
X141.0Y-88.0
X141.0Y-89.0
X141.0Y-90.0
X141.0Y-111.0
X141.0Y-112.0
X141.6Y-54.8
X141.6Y-55.6
X141.6Y-92.6
X142.0Y-38.0
X142.0Y-39.0
X142.0Y-94.0
X142.0Y-95.0
X142.0Y-98.0
X142.0Y-100.0
X142.0Y-102.0
X142.0Y-111.0
X142.0Y-112.0
X142.2Y-54.0
X142.532Y-73.709
X142.6Y-75.0
X142.6Y-76.0
X142.6Y-77.0
X142.6Y-78.0
X142.6Y-79.0
X142.6Y-80.0
X142.6Y-81.0
X142.6Y-82.0
X142.6Y-83.0
X142.6Y-84.0
X142.6Y-85.0
X142.6Y-86.0
X142.6Y-87.0
X142.6Y-88.0
X142.6Y-89.0
X142.6Y-90.0
X142.6Y-91.0
X142.6Y-92.0
X142.6Y-93.0
X142.6Y-94.0
X142.6Y-95.0
X142.8Y-53.4
X142.978Y-68.707
X143.0Y-38.0
X143.0Y-39.0
X143.0Y-55.0
X143.0Y-56.0
X143.0Y-58.0
X143.0Y-59.0
X143.0Y-60.0
X143.0Y-61.0
X143.0Y-62.0
X143.0Y-63.0
X143.0Y-64.0
X143.0Y-65.0
X143.0Y-111.0
X143.0Y-112.0
X143.4Y-52.8
X143.6Y-69.2
X144.0Y-38.0
X144.0Y-39.0
X144.0Y-52.2
X144.0Y-54.0
X144.0Y-55.0
X144.0Y-56.0
X144.0Y-100.0
X144.0Y-102.0
X144.0Y-111.0
X144.0Y-112.0
X144.25Y-94.0
X144.25Y-95.0
X144.6Y-51.6
X144.6Y-53.4
X144.846Y-63.04
X144.846Y-80.52
X144.846Y-86.04
X144.846Y-87.88
X144.846Y-63.96
X144.846Y-70.4
X144.846Y-73.16
X144.846Y-86.96
X144.846Y-88.8
X144.846Y-58.44
X144.846Y-82.36
X144.846Y-84.2
X144.846Y-91.56
X144.846Y-61.2
X144.846Y-62.12
X144.846Y-75.0
X144.846Y-76.84
X144.846Y-78.68
X144.846Y-89.72
X144.846Y-90.64
X145.0Y-38.0
X145.0Y-39.0
X145.0Y-55.0
X145.0Y-56.0
X145.0Y-94.0
X145.0Y-95.0
X145.0Y-98.0
X145.0Y-111.0
X145.0Y-112.0
X145.2Y-51.0
X145.2Y-52.8
X145.643Y-58.9
X145.643Y-63.5
X145.643Y-86.5
X145.643Y-89.26
X145.643Y-91.1
X145.643Y-61.66
X145.643Y-77.3
X145.643Y-82.82
X145.643Y-88.34
X145.643Y-60.74
X145.643Y-68.1
X145.643Y-69.94
X145.643Y-71.78
X145.643Y-79.14
X145.643Y-59.82
X145.643Y-84.66
X145.643Y-62.58
X145.643Y-75.46
X145.643Y-80.98
X145.643Y-87.42
X145.643Y-90.18
X145.643Y-65.34
X145.8Y-50.4
X145.8Y-52.2
X146.0Y-38.0
X146.0Y-39.0
X146.0Y-55.0
X146.0Y-56.0
X146.0Y-94.0
X146.0Y-95.0
X146.0Y-102.0
X146.0Y-111.0
X146.0Y-112.0
X146.4Y-49.8
X146.4Y-51.6
X146.44Y-63.04
X146.44Y-71.32
X146.44Y-86.96
X146.44Y-63.96
X146.44Y-75.92
X146.44Y-79.6
X146.44Y-81.44
X146.44Y-90.64
X146.44Y-76.84
X146.44Y-77.76
X146.44Y-78.68
X146.44Y-83.28
X146.44Y-84.2
X146.44Y-59.36
X146.44Y-62.12
X146.44Y-73.16
X146.44Y-82.36
X146.44Y-85.12
X146.44Y-87.88
X146.44Y-75.0
X146.44Y-80.52
X146.44Y-86.04
X147.0Y-38.0
X147.0Y-39.0
X147.0Y-49.2
X147.0Y-51.0
X147.0Y-55.0
X147.0Y-56.0
X147.0Y-94.0
X147.0Y-95.0
X147.0Y-98.0
X147.0Y-100.0
X147.0Y-111.0
X147.0Y-112.0
X147.236Y-64.42
X147.236Y-75.46
X147.236Y-90.18
X147.236Y-59.82
X147.237Y-62.58
X147.237Y-65.34
X147.237Y-67.18
X147.237Y-69.02
X147.237Y-70.86
X147.237Y-72.7
X147.237Y-78.22
X147.237Y-80.06
X147.237Y-83.74
X147.237Y-85.58
X147.237Y-81.9
X147.237Y-87.42
X147.237Y-76.38
X147.6Y-50.4
X147.6Y-48.6
X148.0Y-38.0
X148.0Y-39.0
X148.0Y-55.0
X148.0Y-56.0
X148.0Y-94.0
X148.0Y-95.0
X148.0Y-111.0
X148.0Y-112.0
X148.033Y-63.04
X148.033Y-75.92
X148.033Y-81.44
X148.033Y-90.64
X148.033Y-65.8
X148.033Y-67.64
X148.033Y-69.48
X148.033Y-71.32
X148.033Y-77.76
X148.033Y-79.6
X148.033Y-83.28
X148.033Y-85.12
X148.033Y-87.88
X148.033Y-59.36
X148.033Y-62.12
X148.033Y-86.96
X148.033Y-75.0
X148.033Y-73.16
X148.2Y-48.0
X148.2Y-46.4
X148.2Y-47.2
X148.2Y-49.8
X148.8Y-49.2
X148.83Y-62.58
X148.83Y-71.78
X148.83Y-85.58
X148.83Y-86.5
X148.83Y-87.42
X148.83Y-90.18
X148.83Y-74.54
X148.83Y-77.3
X148.83Y-82.82
X148.83Y-83.74
X148.83Y-84.66
X148.83Y-59.82
X148.83Y-80.06
X148.83Y-65.34
X148.83Y-70.86
X148.83Y-78.22
X148.83Y-64.42
X148.83Y-75.46
X148.83Y-79.14
X148.83Y-81.9
X148.83Y-76.38
X148.83Y-80.98
X149.0Y-38.0
X149.0Y-39.0
X149.0Y-55.0
X149.0Y-56.0
X149.0Y-94.0
X149.0Y-95.0
X149.0Y-98.0
X149.0Y-100.0
X149.0Y-102.0
X149.0Y-111.0
X149.0Y-112.0
X149.2Y-48.6
X149.627Y-75.0
X149.627Y-78.68
X149.627Y-59.36
X149.627Y-73.16
X149.627Y-84.2
X149.627Y-87.88
X149.627Y-90.64
X149.627Y-62.12
X149.627Y-66.75
X149.627Y-67.64
X149.627Y-68.56
X149.627Y-82.36
X149.627Y-63.96
X149.627Y-70.4
X149.627Y-71.32
X149.627Y-76.84
X149.627Y-80.52
X149.627Y-86.04
X149.627Y-86.96
X149.8Y-46.4
X149.8Y-47.2
X149.8Y-48.0
X150.0Y-38.0
X150.0Y-39.0
X150.0Y-55.0
X150.0Y-56.0
X150.0Y-94.0
X150.0Y-95.0
X150.0Y-111.0
X150.0Y-112.0
X150.424Y-77.3
X150.424Y-59.82
X150.424Y-66.26
X150.424Y-68.1
X150.424Y-69.94
X150.424Y-65.34
X150.424Y-70.86
X150.424Y-71.78
X150.424Y-74.54
X150.424Y-75.46
X150.424Y-79.14
X150.424Y-82.82
X150.424Y-84.66
X150.424Y-87.42
X150.424Y-90.18
X150.424Y-63.5
X150.424Y-86.5
X150.424Y-80.98
X151.0Y-38.0
X151.0Y-39.0
X151.0Y-55.0
X151.0Y-56.0
X151.0Y-94.0
X151.0Y-95.0
X151.0Y-98.0
X151.0Y-100.0
X151.0Y-102.0
X151.0Y-111.0
X151.0Y-112.0
X151.22Y-63.96
X151.22Y-68.56
X151.22Y-79.6
X151.22Y-86.04
X151.22Y-86.96
X151.22Y-71.32
X151.22Y-83.28
X151.22Y-59.36
X151.22Y-63.04
X151.22Y-64.88
X151.22Y-65.8
X151.22Y-67.64
X151.22Y-69.48
X151.22Y-70.4
X151.22Y-77.76
X151.22Y-82.36
X151.22Y-90.64
X151.22Y-62.12
X151.22Y-74.08
X151.22Y-75.92
X151.22Y-84.2
X151.22Y-80.52
X151.22Y-81.44
X151.22Y-85.12
X151.22Y-87.88
X152.0Y-38.0
X152.0Y-39.0
X152.0Y-55.0
X152.0Y-56.0
X152.0Y-94.0
X152.0Y-95.0
X152.0Y-111.0
X152.0Y-112.0
X152.017Y-63.5
X152.017Y-68.1
X152.017Y-69.02
X152.017Y-73.62
X152.017Y-83.74
X152.017Y-64.42
X152.017Y-65.34
X152.017Y-67.18
X152.017Y-75.46
X152.017Y-79.14
X152.017Y-81.9
X152.017Y-82.82
X152.017Y-84.66
X152.017Y-85.58
X152.017Y-74.54
X152.017Y-78.22
X152.017Y-90.18
X152.017Y-59.82
X152.017Y-72.7
X152.017Y-77.3
X152.017Y-80.06
X152.017Y-86.5
X152.018Y-76.38
X152.018Y-80.98
X152.814Y-59.36
X152.814Y-67.64
X152.814Y-75.0
X152.814Y-77.76
X152.814Y-81.44
X152.814Y-78.68
X152.814Y-68.56
X152.814Y-76.84
X152.814Y-80.52
X152.814Y-82.36
X152.814Y-83.28
X152.814Y-86.04
X152.814Y-86.96
X152.814Y-90.64
X152.814Y-66.75
X152.814Y-74.08
X152.814Y-75.92
X152.814Y-84.2
X152.814Y-62.12
X152.814Y-63.04
X152.814Y-63.96
X152.814Y-72.24
X152.814Y-79.6
X152.814Y-85.12
X152.814Y-87.88
X153.0Y-38.0
X153.0Y-39.0
X153.0Y-55.0
X153.0Y-56.0
X153.0Y-94.0
X153.0Y-95.0
X153.0Y-98.0
X153.0Y-100.0
X153.0Y-102.0
X153.0Y-111.0
X153.0Y-112.0
X153.611Y-71.78
X153.611Y-63.5
X153.611Y-77.3
X153.611Y-87.42
X153.611Y-66.26
X153.611Y-84.66
X153.611Y-85.58
X153.611Y-90.18
X153.611Y-69.94
X153.611Y-70.86
X153.611Y-74.54
X153.611Y-75.46
X153.611Y-79.14
X153.611Y-80.06
X153.611Y-82.82
X153.611Y-83.74
X153.611Y-59.82
X153.611Y-65.34
X153.611Y-67.18
X153.611Y-78.22
X153.611Y-81.9
X153.611Y-62.58
X153.611Y-86.5
X153.611Y-76.38
X153.611Y-80.98
X154.0Y-38.0
X154.0Y-39.0
X154.0Y-55.0
X154.0Y-56.0
X154.0Y-94.0
X154.0Y-95.0
X154.0Y-111.0
X154.0Y-112.0
X154.407Y-63.04
X154.407Y-66.75
X154.407Y-79.6
X154.407Y-80.52
X154.407Y-86.04
X154.407Y-86.96
X154.407Y-62.12
X154.407Y-65.8
X154.407Y-84.2
X154.407Y-85.12
X154.407Y-90.64
X154.407Y-59.36
X154.407Y-70.4
X154.407Y-71.32
X154.407Y-72.24
X154.407Y-74.08
X154.407Y-75.92
X154.407Y-77.76
X154.407Y-78.68
X154.407Y-64.88
X154.407Y-82.36
X154.407Y-83.28
X154.407Y-87.88
X154.407Y-69.48
X154.407Y-73.16
X154.407Y-75.0
X154.407Y-76.84
X154.407Y-81.44
X155.0Y-38.0
X155.0Y-39.0
X155.0Y-55.0
X155.0Y-56.0
X155.0Y-94.0
X155.0Y-95.0
X155.0Y-98.0
X155.0Y-100.0
X155.0Y-102.0
X155.0Y-111.0
X155.0Y-112.0
X155.204Y-69.02
X155.204Y-72.7
X155.204Y-85.58
X155.204Y-86.5
X155.204Y-87.42
X155.204Y-90.18
X155.204Y-59.82
X155.204Y-66.26
X155.204Y-69.94
X155.204Y-70.86
X155.204Y-71.78
X155.204Y-73.62
X155.204Y-74.54
X155.204Y-75.46
X155.204Y-78.22
X155.204Y-79.14
X155.204Y-80.06
X155.204Y-82.82
X155.204Y-83.74
X155.204Y-84.66
X155.204Y-64.42
X155.204Y-65.34
X155.204Y-68.1
X155.204Y-81.9
X155.205Y-76.38
X155.205Y-80.98
X156.0Y-38.0
X156.0Y-39.0
X156.0Y-55.0
X156.0Y-56.0
X156.0Y-94.0
X156.0Y-95.0
X156.0Y-111.0
X156.0Y-112.0
X156.001Y-74.08
X156.001Y-73.16
X156.001Y-59.36
X156.001Y-64.88
X156.001Y-68.56
X156.001Y-69.48
X156.001Y-72.24
X156.001Y-75.92
X156.001Y-77.76
X156.001Y-80.52
X156.001Y-81.44
X156.001Y-82.36
X156.001Y-83.28
X156.001Y-84.2
X156.001Y-85.12
X156.001Y-86.04
X156.001Y-86.96
X156.001Y-87.88
X156.001Y-90.64
X156.001Y-63.04
X156.001Y-63.96
X156.001Y-67.64
X156.001Y-70.4
X156.001Y-79.6
X156.798Y-80.06
X156.798Y-85.58
X156.798Y-87.42
X156.798Y-59.82
X156.798Y-63.5
X156.798Y-64.42
X156.798Y-66.26
X156.798Y-67.18
X156.798Y-69.94
X156.798Y-70.86
X156.798Y-71.78
X156.798Y-72.7
X156.798Y-73.62
X156.798Y-74.54
X156.798Y-75.46
X156.798Y-77.3
X156.798Y-78.22
X156.798Y-79.14
X156.798Y-81.9
X156.798Y-82.82
X156.798Y-83.74
X156.798Y-84.66
X156.798Y-90.18
X156.798Y-68.1
X156.798Y-69.02
X156.798Y-86.5
X156.798Y-76.38
X156.798Y-80.98
X157.0Y-38.0
X157.0Y-39.0
X157.0Y-55.0
X157.0Y-56.0
X157.0Y-94.0
X157.0Y-95.0
X157.0Y-98.0
X157.0Y-100.0
X157.0Y-102.0
X157.0Y-111.0
X157.0Y-112.0
X157.594Y-68.56
X157.594Y-69.48
X157.594Y-75.0
X157.594Y-59.36
X157.594Y-78.68
X157.594Y-81.44
X157.594Y-82.36
X157.594Y-83.28
X157.594Y-84.2
X157.594Y-63.04
X157.594Y-65.8
X157.594Y-67.64
X157.594Y-71.32
X157.594Y-72.24
X157.594Y-76.84
X157.594Y-80.52
X157.594Y-70.4
X157.594Y-73.16
X157.594Y-74.08
X157.594Y-75.92
X157.594Y-77.76
X157.594Y-85.12
X157.594Y-87.88
X157.594Y-90.64
X157.594Y-62.12
X157.594Y-66.75
X157.594Y-86.04
X157.594Y-86.96
X157.6Y-79.6
X158.0Y-38.0
X158.0Y-39.0
X158.0Y-55.0
X158.0Y-56.0
X158.0Y-94.0
X158.0Y-95.0
X158.0Y-111.0
X158.0Y-112.0
X158.39Y-80.06
X158.391Y-82.82
X158.391Y-85.58
X158.391Y-71.78
X158.391Y-72.7
X158.391Y-78.22
X158.391Y-59.82
X158.391Y-65.34
X158.391Y-68.1
X158.391Y-81.9
X158.391Y-84.66
X158.391Y-62.58
X158.391Y-70.86
X158.391Y-73.62
X158.391Y-77.3
X158.391Y-79.14
X158.391Y-90.18
X158.391Y-66.26
X158.391Y-67.18
X158.391Y-69.02
X158.391Y-69.94
X158.391Y-74.54
X158.391Y-75.46
X158.391Y-87.42
X158.392Y-76.38
X158.392Y-80.98
X159.0Y-38.0
X159.0Y-39.0
X159.0Y-55.0
X159.0Y-56.0
X159.0Y-94.0
X159.0Y-95.0
X159.0Y-111.0
X159.0Y-112.0
X159.188Y-63.96
X159.188Y-66.75
X159.188Y-67.64
X159.188Y-70.4
X159.188Y-86.04
X159.188Y-90.64
X159.188Y-62.12
X159.188Y-64.88
X159.188Y-69.48
X159.188Y-59.36
X159.188Y-71.32
X159.188Y-72.24
X159.188Y-73.16
X159.188Y-75.0
X159.188Y-76.84
X159.188Y-77.76
X159.188Y-78.68
X159.188Y-81.44
X159.188Y-82.36
X159.188Y-83.28
X159.188Y-84.2
X159.188Y-85.12
X159.188Y-80.52
X159.188Y-74.08
X159.188Y-75.92
X159.188Y-79.6
X159.188Y-86.96
X159.188Y-87.88
X159.985Y-63.5
X159.985Y-82.82
X159.985Y-74.54
X159.985Y-75.46
X159.985Y-83.74
X159.985Y-59.82
X159.985Y-67.18
X159.985Y-69.94
X159.985Y-70.86
X159.985Y-71.78
X159.985Y-72.7
X159.985Y-73.62
X159.985Y-77.3
X159.985Y-78.22
X159.985Y-79.14
X159.985Y-80.06
X159.985Y-81.9
X159.985Y-84.66
X159.985Y-85.58
X159.985Y-86.5
X159.985Y-87.42
X159.985Y-90.18
X159.985Y-64.42
X159.986Y-80.98
X159.986Y-76.38
X160.0Y-38.0
X160.0Y-39.0
X160.0Y-55.0
X160.0Y-56.0
X160.0Y-94.0
X160.0Y-95.0
X160.0Y-98.0
X160.0Y-100.0
X160.0Y-102.0
X160.0Y-111.0
X160.0Y-112.0
X160.781Y-63.04
X160.781Y-67.64
X160.781Y-80.52
X160.781Y-82.36
X160.781Y-85.12
X160.781Y-66.75
X160.781Y-69.48
X160.781Y-71.32
X160.781Y-73.16
X160.781Y-74.08
X160.781Y-77.76
X160.781Y-78.68
X160.781Y-90.64
X160.781Y-63.96
X160.781Y-72.24
X160.781Y-59.36
X160.781Y-64.88
X160.781Y-65.8
X160.781Y-68.56
X160.781Y-70.4
X160.781Y-75.0
X160.781Y-75.92
X160.781Y-76.84
X160.781Y-79.6
X160.781Y-81.44
X160.781Y-87.88
X161.0Y-38.0
X161.0Y-39.0
X161.0Y-55.0
X161.0Y-56.0
X161.0Y-94.0
X161.0Y-95.0
X161.0Y-111.0
X161.0Y-112.0
X161.578Y-63.5
X161.578Y-69.02
X161.578Y-74.54
X161.578Y-86.5
X161.578Y-64.42
X161.578Y-68.1
X161.578Y-79.14
X161.578Y-81.9
X161.578Y-84.66
X161.578Y-90.18
X161.578Y-67.18
X161.578Y-69.94
X161.578Y-70.86
X161.578Y-71.78
X161.578Y-77.3
X161.578Y-78.22
X161.578Y-82.82
X161.578Y-83.74
X161.578Y-62.58
X161.578Y-72.7
X161.578Y-73.62
X161.578Y-85.58
X161.578Y-87.42
X161.578Y-59.82
X161.578Y-65.34
X161.578Y-66.26
X161.578Y-75.46
X161.578Y-80.06
X161.579Y-76.38
X161.579Y-80.98
X162.0Y-38.0
X162.0Y-39.0
X162.0Y-56.0
X162.0Y-94.0
X162.0Y-98.0
X162.0Y-100.0
X162.0Y-102.0
X162.0Y-111.0
X162.0Y-112.0
X162.375Y-58.44
X162.375Y-65.8
X162.375Y-69.48
X162.375Y-75.0
X162.375Y-81.44
X162.375Y-91.56
X162.375Y-92.48
X162.375Y-57.52
X162.375Y-62.12
X162.375Y-64.88
X162.375Y-70.4
X162.375Y-84.2
X162.375Y-87.88
X162.375Y-88.8
X162.375Y-63.04
X162.375Y-72.24
X162.375Y-73.16
X162.375Y-77.76
X162.375Y-78.68
X162.375Y-82.36
X162.375Y-83.28
X162.375Y-85.12
X162.375Y-63.96
X162.375Y-66.75
X162.375Y-67.64
X162.375Y-71.32
X162.375Y-76.84
X162.375Y-79.6
X162.375Y-89.72
X162.375Y-90.64
X162.375Y-68.56
X162.375Y-74.08
X162.375Y-75.92
X162.375Y-80.52
X162.375Y-86.04
X162.375Y-86.96
X163.0Y-38.0
X163.0Y-39.0
X163.0Y-55.0
X163.0Y-56.0
X163.0Y-94.0
X163.0Y-95.0
X163.0Y-111.0
X163.0Y-112.0
X163.172Y-59.82
X163.172Y-70.86
X163.172Y-73.62
X163.172Y-82.82
X163.172Y-85.58
X163.172Y-87.42
X163.172Y-90.18
X163.172Y-67.18
X163.172Y-71.78
X163.172Y-72.7
X163.172Y-74.54
X163.172Y-75.46
X163.172Y-77.3
X163.172Y-78.22
X163.172Y-79.14
X163.172Y-84.66
X163.172Y-62.58
X163.172Y-64.42
X163.172Y-63.5
X163.172Y-69.94
X163.172Y-80.06
X163.172Y-81.9
X163.173Y-76.38
X163.173Y-80.98
X163.968Y-62.12
X163.968Y-68.56
X163.968Y-80.52
X163.968Y-63.04
X163.968Y-67.64
X163.968Y-75.92
X163.968Y-82.36
X163.968Y-83.28
X163.968Y-86.04
X163.969Y-59.36
X163.969Y-71.32
X163.969Y-72.24
X163.969Y-73.16
X163.969Y-76.84
X163.969Y-77.76
X163.969Y-78.68
X163.969Y-79.6
X163.969Y-84.2
X163.969Y-85.12
X163.969Y-90.64
X163.969Y-63.96
X163.969Y-64.88
X163.969Y-66.75
X163.969Y-74.08
X163.969Y-81.44
X163.969Y-86.96
X163.969Y-87.88
X163.969Y-65.8
X163.969Y-69.48
X163.969Y-70.4
X163.969Y-75.0
X164.0Y-38.0
X164.0Y-39.0
X164.0Y-55.0
X164.0Y-56.0
X164.0Y-94.0
X164.0Y-95.0
X164.0Y-98.0
X164.0Y-100.0
X164.0Y-102.0
X164.0Y-111.0
X164.0Y-112.0
X164.765Y-59.82
X164.765Y-63.5
X164.765Y-65.34
X164.765Y-69.94
X164.765Y-70.86
X164.765Y-74.54
X164.765Y-80.06
X164.765Y-82.82
X164.765Y-64.42
X164.765Y-67.18
X164.765Y-68.1
X164.765Y-66.26
X164.765Y-72.7
X164.765Y-73.62
X164.765Y-75.46
X164.765Y-77.3
X164.765Y-78.22
X164.765Y-79.14
X164.765Y-81.9
X164.765Y-83.74
X164.765Y-84.66
X164.765Y-85.58
X164.765Y-62.58
X164.765Y-71.78
X164.765Y-69.02
X164.765Y-86.5
X164.765Y-87.42
X164.765Y-90.18
X164.766Y-80.98
X164.766Y-76.38
X165.0Y-38.0
X165.0Y-39.0
X165.0Y-55.0
X165.0Y-56.0
X165.0Y-94.0
X165.0Y-95.0
X165.0Y-111.0
X165.0Y-112.0
X165.562Y-64.88
X165.562Y-71.32
X165.562Y-77.76
X165.562Y-59.36
X165.562Y-62.12
X165.562Y-81.44
X165.562Y-82.36
X165.562Y-85.12
X165.562Y-67.64
X165.562Y-69.48
X165.562Y-72.24
X165.562Y-78.68
X165.562Y-63.96
X165.562Y-66.75
X165.562Y-70.4
X165.562Y-74.08
X165.562Y-75.92
X165.562Y-76.84
X165.562Y-79.6
X165.562Y-90.64
X165.562Y-63.04
X165.562Y-73.16
X165.562Y-75.0
X165.562Y-80.52
X165.562Y-87.88
X165.75Y-54.75
X165.75Y-55.75
X166.0Y-38.0
X166.0Y-39.0
X166.0Y-94.0
X166.0Y-95.0
X166.0Y-98.0
X166.0Y-100.0
X166.0Y-102.0
X166.0Y-111.0
X166.0Y-112.0
X166.25Y-55.25
X166.359Y-71.78
X166.359Y-85.58
X166.359Y-86.5
X166.359Y-63.5
X166.359Y-65.34
X166.359Y-69.94
X166.359Y-79.14
X166.359Y-64.42
X166.359Y-66.26
X166.359Y-72.7
X166.359Y-73.62
X166.359Y-74.54
X166.359Y-75.46
X166.359Y-77.3
X166.359Y-78.22
X166.359Y-82.82
X166.359Y-83.74
X166.359Y-59.82
X166.359Y-67.18
X166.359Y-70.86
X166.359Y-84.66
X166.359Y-90.18
X166.359Y-62.58
X166.359Y-68.1
X166.359Y-69.02
X166.359Y-80.06
X166.359Y-81.9
X166.359Y-87.42
X166.36Y-76.38
X166.36Y-80.98
X166.75Y-54.75
X167.0Y-38.0
X167.0Y-39.0
X167.0Y-56.0
X167.0Y-94.0
X167.0Y-95.0
X167.0Y-111.0
X167.0Y-112.0
X167.155Y-64.88
X167.155Y-69.48
X167.155Y-71.32
X167.155Y-74.08
X167.155Y-75.0
X167.155Y-80.52
X167.155Y-86.04
X167.155Y-87.88
X167.155Y-63.96
X167.155Y-67.64
X167.155Y-73.16
X167.155Y-76.84
X167.155Y-77.76
X167.155Y-78.68
X167.155Y-90.64
X167.155Y-59.36
X167.155Y-65.8
X167.155Y-66.75
X167.155Y-68.56
X167.155Y-82.36
X167.155Y-83.28
X167.155Y-84.2
X167.155Y-85.12
X167.155Y-86.96
X167.155Y-62.12
X167.155Y-63.04
X167.155Y-70.4
X167.155Y-72.24
X167.155Y-75.92
X167.155Y-79.6
X167.155Y-81.44
X167.25Y-54.25
X167.5Y-55.5
X167.75Y-53.75
X167.952Y-63.5
X167.952Y-69.02
X167.952Y-75.46
X167.952Y-67.18
X167.952Y-68.1
X167.952Y-73.62
X167.952Y-85.58
X167.952Y-59.82
X167.952Y-64.42
X167.952Y-65.34
X167.952Y-66.26
X167.952Y-70.86
X167.952Y-71.78
X167.952Y-72.7
X167.952Y-77.3
X167.952Y-78.22
X167.952Y-79.14
X167.952Y-82.82
X167.952Y-83.74
X167.952Y-84.66
X167.952Y-90.18
X167.952Y-62.58
X167.952Y-69.94
X167.952Y-74.54
X167.952Y-80.06
X167.952Y-81.9
X167.952Y-87.42
X167.952Y-86.5
X167.954Y-76.38
X167.954Y-80.98
X168.0Y-38.0
X168.0Y-39.0
X168.0Y-55.0
X168.0Y-56.0
X168.0Y-94.0
X168.0Y-95.0
X168.0Y-98.0
X168.0Y-100.0
X168.0Y-102.0
X168.0Y-111.0
X168.0Y-112.0
X168.25Y-53.25
X168.5Y-54.5
X168.749Y-75.0
X168.749Y-79.6
X168.749Y-80.52
X168.749Y-59.36
X168.749Y-62.12
X168.749Y-63.04
X168.749Y-65.8
X168.749Y-66.75
X168.749Y-67.64
X168.749Y-70.4
X168.749Y-72.24
X168.749Y-77.76
X168.749Y-84.2
X168.749Y-85.12
X168.749Y-86.04
X168.749Y-86.96
X168.749Y-90.64
X168.749Y-83.28
X168.749Y-63.96
X168.749Y-64.88
X168.749Y-68.56
X168.749Y-69.48
X168.749Y-81.44
X168.749Y-82.36
X168.749Y-87.88
X168.75Y-52.75
X169.0Y-38.0
X169.0Y-39.0
X169.0Y-54.0
X169.0Y-55.0
X169.0Y-56.0
X169.0Y-94.0
X169.0Y-95.0
X169.0Y-111.0
X169.0Y-112.0
X169.25Y-52.25
X169.5Y-53.5
X169.546Y-63.5
X169.546Y-69.02
X169.546Y-83.74
X169.546Y-86.5
X169.546Y-90.18
X169.546Y-62.58
X169.546Y-64.42
X169.546Y-68.1
X169.546Y-69.94
X169.546Y-74.54
X169.546Y-80.06
X169.546Y-81.9
X169.546Y-85.58
X169.546Y-87.42
X169.546Y-59.82
X169.546Y-65.34
X169.546Y-66.26
X169.546Y-67.18
X169.546Y-72.7
X169.546Y-77.3
X169.546Y-82.82
X169.546Y-84.66
X169.546Y-75.46
X169.547Y-80.98
X169.75Y-51.75
X170.0Y-38.0
X170.0Y-39.0
X170.0Y-53.0
X170.0Y-55.0
X170.0Y-56.0
X170.0Y-94.0
X170.0Y-95.0
X170.0Y-98.0
X170.0Y-100.0
X170.0Y-102.0
X170.0Y-111.0
X170.0Y-112.0
X170.342Y-68.56
X170.342Y-75.92
X170.342Y-79.6
X170.342Y-80.52
X170.342Y-87.88
X170.342Y-59.36
X170.342Y-72.24
X170.342Y-77.76
X170.342Y-78.68
X170.342Y-64.88
X170.342Y-70.4
X170.342Y-83.28
X170.342Y-84.2
X170.342Y-65.8
X170.342Y-66.75
X170.342Y-67.64
X170.342Y-71.32
X170.342Y-73.16
X170.342Y-75.0
X170.342Y-76.84
X170.342Y-82.36
X170.342Y-90.64
X170.342Y-62.12
X170.342Y-63.04
X170.342Y-63.96
X170.342Y-69.48
X170.342Y-74.08
X170.342Y-81.44
X170.342Y-85.12
X170.342Y-86.04
X170.342Y-86.96
X170.4Y-51.0
X170.5Y-52.5
X170.6Y-46.4
X170.6Y-47.0
X170.6Y-47.8
X170.6Y-48.5
X170.6Y-49.25
X170.6Y-50.0
X171.0Y-38.0
X171.0Y-39.0
X171.0Y-52.0
X171.0Y-55.0
X171.0Y-56.0
X171.0Y-94.0
X171.0Y-95.0
X171.0Y-111.0
X171.0Y-112.0
X171.139Y-62.58
X171.139Y-63.5
X171.139Y-64.42
X171.139Y-68.1
X171.139Y-69.02
X171.139Y-74.54
X171.139Y-75.46
X171.139Y-80.06
X171.139Y-81.9
X171.139Y-59.82
X171.139Y-67.18
X171.139Y-70.86
X171.139Y-71.78
X171.139Y-72.7
X171.139Y-73.62
X171.139Y-82.82
X171.139Y-85.58
X171.139Y-90.18
X171.139Y-66.26
X171.139Y-78.22
X171.139Y-83.74
X171.139Y-65.34
X171.139Y-77.3
X171.139Y-79.14
X171.139Y-84.66
X171.139Y-69.94
X171.139Y-86.5
X171.139Y-87.42
X171.141Y-76.38
X171.141Y-80.98
X171.5Y-51.5
X171.936Y-63.04
X171.936Y-63.96
X171.936Y-65.8
X171.936Y-69.48
X171.936Y-64.88
X171.936Y-68.56
X171.936Y-81.44
X171.936Y-85.12
X171.936Y-66.75
X171.936Y-72.24
X171.936Y-77.76
X171.936Y-79.6
X171.936Y-83.28
X171.936Y-84.2
X171.936Y-59.36
X171.936Y-67.64
X171.936Y-70.4
X171.936Y-82.36
X171.936Y-90.64
X171.936Y-75.0
X171.936Y-80.52
X171.936Y-86.04
X172.0Y-38.0
X172.0Y-39.0
X172.0Y-46.4
X172.0Y-47.0
X172.0Y-47.8
X172.0Y-48.5
X172.0Y-49.25
X172.0Y-50.0
X172.0Y-50.75
X172.0Y-55.0
X172.0Y-56.0
X172.0Y-94.0
X172.0Y-95.0
X172.0Y-98.0
X172.0Y-100.0
X172.0Y-102.0
X172.0Y-111.0
X172.0Y-112.0
X172.733Y-63.5
X172.733Y-64.42
X172.733Y-69.02
X172.733Y-69.94
X172.733Y-74.54
X172.733Y-75.46
X172.733Y-59.82
X172.733Y-78.22
X172.733Y-66.26
X172.733Y-67.18
X172.733Y-70.86
X172.733Y-71.78
X172.733Y-72.7
X172.733Y-73.62
X172.733Y-77.3
X172.733Y-80.06
X172.733Y-82.82
X172.733Y-84.66
X172.733Y-85.58
X172.733Y-90.18
X172.733Y-83.74
X172.733Y-65.34
X172.733Y-68.1
X172.733Y-79.14
X172.733Y-81.9
X172.733Y-86.5
X172.734Y-76.38
X172.734Y-80.98
X173.0Y-38.0
X173.0Y-39.0
X173.0Y-55.0
X173.0Y-56.0
X173.0Y-94.0
X173.0Y-95.0
X173.0Y-111.0
X173.0Y-112.0
X173.529Y-69.48
X173.529Y-70.4
X173.529Y-75.0
X173.529Y-80.52
X173.529Y-63.04
X173.529Y-68.56
X173.529Y-81.44
X173.529Y-59.36
X173.529Y-64.88
X173.529Y-65.8
X173.529Y-66.75
X173.529Y-67.64
X173.529Y-72.24
X173.529Y-73.16
X173.529Y-74.08
X173.529Y-75.92
X173.529Y-76.84
X173.529Y-77.76
X173.529Y-78.68
X173.529Y-79.6
X173.529Y-82.36
X173.529Y-83.28
X173.529Y-84.2
X173.529Y-85.12
X173.529Y-90.64
X173.529Y-63.96
X173.529Y-71.32
X173.529Y-86.04
X174.0Y-38.0
X174.0Y-39.0
X174.0Y-55.0
X174.0Y-56.0
X174.0Y-94.0
X174.0Y-95.0
X174.0Y-111.0
X174.0Y-112.0
X174.326Y-63.5
X174.326Y-69.02
X174.326Y-86.5
X174.326Y-67.18
X174.326Y-72.7
X174.326Y-79.14
X174.326Y-59.82
X174.326Y-65.34
X174.326Y-70.86
X174.326Y-77.3
X174.326Y-84.66
X174.326Y-90.18
X174.326Y-74.54
X174.326Y-75.46
X174.326Y-82.82
X174.326Y-87.42
X174.328Y-80.98
X175.0Y-38.0
X175.0Y-39.0
X175.0Y-55.0
X175.0Y-56.0
X175.0Y-94.0
X175.0Y-95.0
X175.0Y-111.0
X175.0Y-112.0
X175.123Y-63.04
X175.123Y-63.96
X175.123Y-69.48
X175.123Y-75.0
X175.123Y-80.52
X175.123Y-86.04
X175.123Y-65.8
X175.123Y-71.32
X175.123Y-76.84
X175.123Y-78.68
X175.123Y-84.2
X175.123Y-86.96
X175.123Y-59.36
X175.123Y-67.64
X175.123Y-73.16
X175.123Y-82.36
X175.123Y-87.88
X175.123Y-90.64
X175.92Y-63.5
X175.92Y-74.54
X175.92Y-67.18
X175.92Y-79.14
X175.92Y-84.66
X175.92Y-85.58
X175.92Y-87.42
X175.92Y-90.18
X175.92Y-66.26
X175.92Y-69.02
X175.92Y-71.78
X175.92Y-72.7
X175.92Y-78.22
X175.92Y-82.82
X175.92Y-83.74
X175.92Y-59.82
X175.92Y-64.42
X175.92Y-65.34
X175.92Y-68.1
X175.92Y-73.62
X175.92Y-77.3
X175.92Y-81.9
X175.92Y-69.94
X175.92Y-70.86
X175.92Y-75.46
X175.92Y-80.06
X175.92Y-86.5
X175.921Y-80.98
X175.921Y-76.38
X176.0Y-38.0
X176.0Y-39.0
X176.0Y-55.0
X176.0Y-56.0
X176.0Y-94.0
X176.0Y-95.0
X176.0Y-98.0
X176.0Y-102.0
X176.0Y-111.0
X176.0Y-112.0
X176.717Y-68.56
X176.717Y-70.4
X176.717Y-75.0
X176.717Y-85.12
X176.717Y-87.88
X176.717Y-59.36
X176.717Y-66.75
X176.717Y-72.24
X176.717Y-74.08
X176.717Y-75.92
X176.717Y-79.6
X176.717Y-83.28
X176.717Y-90.64
X176.717Y-77.76
X176.717Y-63.04
X176.717Y-64.88
X176.717Y-81.44
X176.717Y-86.96
X177.0Y-38.0
X177.0Y-39.0
X177.0Y-55.0
X177.0Y-56.0
X177.0Y-94.0
X177.0Y-95.0
X177.0Y-111.0
X177.0Y-112.0
X177.513Y-64.42
X177.513Y-66.26
X177.513Y-69.94
X177.513Y-71.78
X177.513Y-73.62
X177.513Y-74.54
X177.513Y-75.46
X177.513Y-78.22
X177.513Y-80.06
X177.513Y-81.9
X177.513Y-83.74
X177.513Y-85.58
X177.513Y-87.42
X177.513Y-90.18
X177.513Y-68.1
X177.513Y-59.82
X177.515Y-76.38
X178.0Y-38.0
X178.0Y-39.0
X178.0Y-55.0
X178.0Y-56.0
X178.0Y-94.0
X178.0Y-95.0
X178.0Y-100.0
X178.0Y-102.0
X178.0Y-111.0
X178.0Y-112.0
X178.31Y-68.56
X178.31Y-71.32
X178.31Y-79.6
X178.31Y-82.36
X178.31Y-59.36
X178.31Y-63.04
X178.31Y-63.96
X178.31Y-66.75
X178.31Y-69.48
X178.31Y-72.24
X178.31Y-73.16
X178.31Y-74.08
X178.31Y-76.84
X178.31Y-77.76
X178.31Y-78.68
X178.31Y-83.28
X178.31Y-85.12
X178.31Y-87.88
X178.31Y-90.64
X178.31Y-65.8
X178.31Y-84.2
X178.31Y-64.88
X178.31Y-67.64
X178.31Y-70.4
X178.31Y-75.0
X178.31Y-75.92
X178.31Y-80.52
X178.31Y-81.44
X178.31Y-86.04
X178.31Y-86.96
X179.0Y-38.0
X179.0Y-39.0
X179.0Y-55.0
X179.0Y-56.0
X179.0Y-94.0
X179.0Y-95.0
X179.0Y-111.0
X179.0Y-112.0
X179.107Y-69.02
X179.107Y-74.54
X179.107Y-84.66
X179.107Y-88.34
X179.107Y-59.82
X179.107Y-77.3
X179.107Y-79.14
X179.107Y-90.18
X179.107Y-63.5
X179.107Y-65.34
X179.107Y-67.18
X179.107Y-70.86
X179.107Y-72.7
X179.107Y-82.82
X179.107Y-86.5
X179.107Y-89.26
X179.107Y-58.9
X179.107Y-91.1
X179.107Y-75.46
X179.107Y-87.42
X179.109Y-80.98
X179.903Y-69.48
X179.903Y-75.0
X179.903Y-67.64
X179.903Y-71.32
X179.903Y-76.84
X179.903Y-78.68
X179.903Y-84.2
X179.903Y-90.64
X179.903Y-60.28
X179.903Y-65.8
X179.903Y-86.04
X179.903Y-86.96
X179.903Y-87.88
X179.903Y-88.8
X179.903Y-59.36
X179.903Y-73.16
X179.903Y-89.72
X179.903Y-58.44
X179.903Y-63.96
X179.903Y-80.52
X179.903Y-82.36
X179.903Y-91.56
X180.0Y-38.0
X180.0Y-39.0
X180.0Y-94.0
X180.0Y-95.0
X180.0Y-98.0
X180.0Y-100.0
X180.0Y-102.0
X180.0Y-111.0
X180.0Y-112.0
X181.0Y-38.0
X181.0Y-39.0
X181.0Y-111.0
X181.0Y-112.0
X182.0Y-38.0
X182.0Y-39.0
X182.0Y-63.0
X182.0Y-64.0
X182.0Y-65.0
X182.0Y-66.0
X182.0Y-67.0
X182.0Y-68.0
X182.0Y-69.0
X182.0Y-70.0
X182.0Y-71.0
X182.0Y-72.0
X182.0Y-73.0
X182.0Y-74.0
X182.0Y-76.0
X182.0Y-77.0
X182.0Y-78.0
X182.0Y-79.0
X182.0Y-80.0
X182.0Y-81.0
X182.0Y-82.0
X182.0Y-83.0
X182.0Y-84.0
X182.0Y-85.0
X182.0Y-86.0
X182.0Y-87.0
X182.0Y-88.0
X182.0Y-89.0
X182.0Y-90.0
X182.0Y-91.0
X182.0Y-92.0
X182.0Y-93.0
X182.0Y-94.0
X182.0Y-95.0
X182.0Y-98.0
X182.0Y-100.0
X182.0Y-102.0
X182.0Y-111.0
X182.0Y-112.0
X182.2Y-44.0
X183.0Y-38.0
X183.0Y-39.0
X183.0Y-63.0
X183.0Y-64.0
X183.0Y-65.0
X183.0Y-66.0
X183.0Y-67.0
X183.0Y-68.0
X183.0Y-69.0
X183.0Y-70.0
X183.0Y-71.0
X183.0Y-72.0
X183.0Y-73.0
X183.0Y-77.0
X183.0Y-78.0
X183.0Y-79.0
X183.0Y-80.0
X183.0Y-81.0
X183.0Y-82.0
X183.0Y-83.0
X183.0Y-84.0
X183.0Y-85.0
X183.0Y-86.0
X183.0Y-87.0
X183.0Y-88.0
X183.0Y-89.0
X183.0Y-90.0
X183.0Y-91.0
X183.0Y-92.0
X183.0Y-93.0
X183.0Y-94.0
X183.0Y-111.0
X183.0Y-112.0
X184.0Y-38.0
X184.0Y-39.0
X184.0Y-111.0
X184.0Y-112.0
X184.2Y-105.0
X185.0Y-38.0
X185.0Y-39.0
X185.0Y-111.0
X185.0Y-112.0
X186.0Y-38.0
X186.0Y-39.0
X186.0Y-111.0
X186.0Y-112.0
X187.0Y-38.0
X187.0Y-39.0
X187.0Y-111.0
X187.0Y-112.0
X188.0Y-38.0
X188.0Y-39.0
X188.0Y-111.0
X188.0Y-112.0
X189.0Y-38.0
X189.0Y-39.0
X189.0Y-111.0
X189.0Y-112.0
X190.0Y-38.0
X190.0Y-39.0
X190.0Y-111.0
X190.0Y-112.0
X191.0Y-38.0
X191.0Y-39.0
X191.0Y-111.0
X191.0Y-112.0
X192.0Y-38.0
X192.0Y-39.0
X192.0Y-40.0
X192.0Y-41.0
X192.0Y-42.0
X192.0Y-43.0
X192.0Y-44.0
X192.0Y-45.0
X192.0Y-46.0
X192.0Y-47.0
X192.0Y-48.0
X192.0Y-49.0
X192.0Y-50.0
X192.0Y-51.0
X192.0Y-52.0
X192.0Y-53.0
X192.0Y-54.0
X192.0Y-55.0
X192.0Y-56.0
X192.0Y-57.0
X192.0Y-58.0
X192.0Y-59.0
X192.0Y-60.0
X192.0Y-61.0
X192.0Y-62.0
X192.0Y-63.0
X192.0Y-64.0
X192.0Y-65.0
X192.0Y-66.0
X192.0Y-67.0
X192.0Y-68.0
X192.0Y-69.0
X192.0Y-70.0
X192.0Y-71.0
X192.0Y-72.0
X192.0Y-73.0
X192.0Y-74.0
X192.0Y-75.0
X192.0Y-76.0
X192.0Y-77.0
X192.0Y-78.0
X192.0Y-79.0
X192.0Y-80.0
X192.0Y-81.0
X192.0Y-82.0
X192.0Y-83.0
X192.0Y-84.0
X192.0Y-85.0
X192.0Y-86.0
X192.0Y-87.0
X192.0Y-88.0
X192.0Y-89.0
X192.0Y-90.0
X192.0Y-91.0
X192.0Y-92.0
X192.0Y-93.0
X192.0Y-94.0
X192.0Y-95.0
X192.0Y-96.0
X192.0Y-97.0
X192.0Y-98.0
X192.0Y-99.0
X192.0Y-100.0
X192.0Y-101.0
X192.0Y-102.0
X192.0Y-103.0
X192.0Y-104.0
X192.0Y-105.0
X192.0Y-106.0
X192.0Y-107.0
X192.0Y-108.0
X192.0Y-109.0
X192.0Y-110.0
X192.0Y-111.0
X192.0Y-112.0
X193.0Y-38.0
X193.0Y-39.0
X193.0Y-40.0
X193.0Y-41.0
X193.0Y-42.0
X193.0Y-43.0
X193.0Y-44.0
X193.0Y-45.0
X193.0Y-46.0
X193.0Y-47.0
X193.0Y-48.0
X193.0Y-49.0
X193.0Y-50.0
X193.0Y-51.0
X193.0Y-52.0
X193.0Y-53.0
X193.0Y-54.0
X193.0Y-55.0
X193.0Y-56.0
X193.0Y-57.0
X193.0Y-58.0
X193.0Y-59.0
X193.0Y-60.0
X193.0Y-61.0
X193.0Y-62.0
X193.0Y-63.0
X193.0Y-64.0
X193.0Y-65.0
X193.0Y-66.0
X193.0Y-67.0
X193.0Y-68.0
X193.0Y-69.0
X193.0Y-70.0
X193.0Y-71.0
X193.0Y-72.0
X193.0Y-73.0
X193.0Y-74.0
X193.0Y-75.0
X193.0Y-76.0
X193.0Y-77.0
X193.0Y-78.0
X193.0Y-79.0
X193.0Y-80.0
X193.0Y-81.0
X193.0Y-82.0
X193.0Y-83.0
X193.0Y-84.0
X193.0Y-85.0
X193.0Y-86.0
X193.0Y-87.0
X193.0Y-88.0
X193.0Y-89.0
X193.0Y-90.0
X193.0Y-91.0
X193.0Y-92.0
X193.0Y-93.0
X193.0Y-94.0
X193.0Y-95.0
X193.0Y-96.0
X193.0Y-97.0
X193.0Y-98.0
X193.0Y-99.0
X193.0Y-100.0
X193.0Y-101.0
X193.0Y-102.0
X193.0Y-103.0
X193.0Y-104.0
X193.0Y-105.0
X193.0Y-106.0
X193.0Y-107.0
X193.0Y-108.0
X193.0Y-109.0
X193.0Y-110.0
X193.0Y-111.0
X193.0Y-112.0
T2
X48.591Y-81.032
X49.6Y-72.2
X49.775Y-61.05
X50.025Y-100.95
X50.25Y-50.05
X51.1Y-99.7
X51.2Y-84.6
X51.2Y-90.1
X51.2Y-90.9
X51.3Y-69.4
X51.3Y-70.5
X51.3Y-81.0
X51.3Y-85.4
X51.3Y-95.1
X51.3Y-95.9
X51.4Y-74.2
X51.4Y-80.0
X51.5Y-63.9
X51.5Y-65.1
X51.5Y-75.2
X51.6Y-57.5
X51.6Y-58.7
X51.6Y-60.0
X51.7Y-52.4
X52.231Y-49.7
X52.7Y-54.8
X53.0Y-56.1
X54.0Y-51.1
X54.0Y-53.7
X54.2Y-65.1
X54.2Y-73.7
X54.2Y-76.6
X54.2Y-80.2
X54.5Y-84.4
X54.5Y-93.2
X54.5Y-94.0
X54.5Y-97.2
X54.5Y-98.4
X54.8Y-46.6
X54.8Y-47.4
X54.8Y-48.2
X54.8Y-49.0
X56.1Y-60.9
X56.2Y-49.8
X56.3Y-53.2
X56.3Y-76.1
X56.3Y-79.2
X56.3Y-83.6
X56.3Y-95.5
X56.3Y-99.3
X56.4Y-64.1
X56.4Y-68.0
X56.4Y-87.1
X56.5Y-56.9
X56.6Y-90.9
X57.7Y-71.8
X57.9Y-97.9
X58.1Y-89.8
X59.1Y-70.7
X59.4Y-52.9
X59.5Y-77.9
X59.5Y-93.3
X59.6Y-55.0
X59.6Y-62.7
X59.6Y-66.7
X59.8Y-59.6
X60.1Y-80.2
X60.5Y-74.3
X60.5Y-86.1
X72.7Y-50.3
X73.1Y-60.08
X73.25Y-49.75
X73.8Y-49.2
X73.925Y-60.075
X74.35Y-48.65
X74.6Y-59.4
X74.9Y-48.1
X75.15Y-58.85
X75.7Y-58.3
X75.9Y-47.7
X76.25Y-57.75
X76.8Y-47.7
X76.8Y-57.2
X124.0Y-71.0
X131.575Y-61.8
X157.6Y-102.6
X158.8Y-99.7
X174.1Y-100.1
X179.0Y-108.5
T3
X134.975Y-44.0
X135.568Y-42.568
X135.568Y-45.432
X137.0Y-41.975
X137.0Y-46.025
X138.432Y-42.568
X138.432Y-45.432
X139.025Y-44.0
X140.975Y-106.0
X141.568Y-104.568
X141.568Y-107.432
X143.0Y-103.975
X143.0Y-108.025
X144.432Y-104.568
X144.432Y-107.432
X145.025Y-106.0
X185.975Y-44.0
X185.975Y-106.0
X186.568Y-42.568
X186.568Y-45.432
X186.568Y-104.568
X186.568Y-107.432
X188.0Y-41.975
X188.0Y-46.025
X188.0Y-103.975
X188.0Y-108.025
X189.432Y-42.568
X189.432Y-45.432
X189.432Y-104.568
X189.432Y-107.432
X190.025Y-44.0
X190.025Y-106.0
T4
X140.638Y-91.282
X183.362Y-56.178
T5
X43.2Y-103.16
X43.2Y-105.7
X43.2Y-108.24
X66.0Y-48.46
X66.0Y-51.0
X66.0Y-53.54
X66.0Y-57.54
X66.0Y-60.08
X66.0Y-62.62
X72.16Y-68.7
X74.7Y-68.7
X76.71Y-96.75
X76.71Y-102.0
X77.24Y-68.7
X79.25Y-96.75
X79.25Y-102.0
X81.79Y-96.75
X81.79Y-102.0
X85.086Y-105.08
X85.086Y-107.62
X87.626Y-105.08
X87.626Y-107.62
X90.166Y-105.08
X90.166Y-107.62
X92.706Y-105.08
X92.706Y-107.62
X95.246Y-105.08
X95.246Y-107.62
X97.786Y-105.08
X97.786Y-107.62
X100.326Y-105.08
X100.326Y-107.62
X101.42Y-70.75
X102.866Y-105.08
X102.866Y-107.62
X103.96Y-70.75
X105.406Y-105.08
X105.406Y-107.62
X106.5Y-70.75
X107.946Y-105.08
X107.946Y-107.62
X111.976Y-105.08
X111.976Y-107.62
X114.516Y-105.08
X114.516Y-107.62
X117.056Y-105.08
X117.056Y-107.62
X119.596Y-105.08
X119.596Y-107.62
X122.136Y-105.08
X122.136Y-107.62
X124.676Y-105.08
X124.676Y-107.62
X127.216Y-105.08
X127.216Y-107.62
X129.756Y-105.08
X129.756Y-107.62
X132.296Y-105.08
X132.296Y-107.62
X132.8Y-50.76
X132.8Y-53.3
X132.8Y-55.84
X134.836Y-105.08
X134.836Y-107.62
X153.786Y-105.08
X153.786Y-107.62
X156.326Y-105.08
X156.326Y-107.62
X158.866Y-105.08
X158.866Y-107.62
X161.406Y-105.08
X161.406Y-107.62
X163.946Y-105.08
X163.946Y-107.62
X166.486Y-105.08
X166.486Y-107.62
X169.026Y-105.08
X169.026Y-107.62
X171.566Y-105.08
X171.566Y-107.62
X174.106Y-105.08
X174.106Y-107.62
X176.646Y-105.08
X176.646Y-107.62
T6
X68.84Y-105.4
X71.38Y-105.4
X73.92Y-105.4
X76.46Y-105.4
X79.0Y-105.4
X81.54Y-105.4
T7
X67.275Y-86.525
X67.5Y-97.0
X149.0Y-45.0
X171.275Y-45.0
T8
X64.55Y-83.8
X64.55Y-89.25
X64.775Y-94.275
X64.775Y-99.725
X70.0Y-83.8
X70.0Y-89.25
X70.225Y-94.275
X70.225Y-99.725
X146.275Y-42.275
X146.275Y-47.725
X151.725Y-42.275
X151.725Y-47.725
X168.55Y-42.275
X168.55Y-47.725
X174.0Y-42.275
X174.0Y-47.725
T9
X140.638Y-53.638
X140.638Y-75.0
X140.638Y-96.362
X162.0Y-53.638
X162.0Y-96.362
X183.362Y-53.638
X183.362Y-75.0
X183.362Y-96.362
T10
X86.0Y-45.25
X86.0Y-60.75
X105.0Y-45.25
X105.0Y-60.75
X124.0Y-45.25
X124.0Y-60.75
T11
X57.406Y-43.6
X57.406Y-106.6
X137.0Y-44.0
X143.0Y-106.0
X188.0Y-44.0
X188.0Y-106.0
M30
