G04 #@! TF.GenerationSoftware,KiCad,Pcbnew,8.0.3*
G04 #@! TF.CreationDate,2024-07-10T11:58:07-07:00*
G04 #@! TF.ProjectId,maveric-board,6d617665-7269-4632-9d62-6f6172642e6b,rev?*
G04 #@! TF.SameCoordinates,Original*
G04 #@! TF.FileFunction,Paste,Top*
G04 #@! TF.FilePolarity,Positive*
%FSLAX46Y46*%
G04 Gerber Fmt 4.6, Leading zero omitted, Abs format (unit mm)*
G04 Created by KiCad (PCBNEW 8.0.3) date 2024-07-10 11:58:07*
%MOMM*%
%LPD*%
G01*
G04 APERTURE LIST*
G04 Aperture macros list*
%AMRoundRect*
0 Rectangle with rounded corners*
0 $1 Rounding radius*
0 $2 $3 $4 $5 $6 $7 $8 $9 X,Y pos of 4 corners*
0 Add a 4 corners polygon primitive as box body*
4,1,4,$2,$3,$4,$5,$6,$7,$8,$9,$2,$3,0*
0 Add four circle primitives for the rounded corners*
1,1,$1+$1,$2,$3*
1,1,$1+$1,$4,$5*
1,1,$1+$1,$6,$7*
1,1,$1+$1,$8,$9*
0 Add four rect primitives between the rounded corners*
20,1,$1+$1,$2,$3,$4,$5,0*
20,1,$1+$1,$4,$5,$6,$7,0*
20,1,$1+$1,$6,$7,$8,$9,0*
20,1,$1+$1,$8,$9,$2,$3,0*%
G04 Aperture macros list end*
%ADD10RoundRect,0.200000X0.200000X0.275000X-0.200000X0.275000X-0.200000X-0.275000X0.200000X-0.275000X0*%
%ADD11R,4.000000X2.200000*%
%ADD12RoundRect,0.250000X0.650000X-0.325000X0.650000X0.325000X-0.650000X0.325000X-0.650000X-0.325000X0*%
%ADD13RoundRect,0.225000X0.250000X-0.225000X0.250000X0.225000X-0.250000X0.225000X-0.250000X-0.225000X0*%
%ADD14R,2.200000X4.000000*%
%ADD15RoundRect,0.200000X-0.200000X-0.275000X0.200000X-0.275000X0.200000X0.275000X-0.200000X0.275000X0*%
%ADD16RoundRect,0.215000X0.215000X0.465000X-0.215000X0.465000X-0.215000X-0.465000X0.215000X-0.465000X0*%
%ADD17R,0.800000X0.900000*%
%ADD18RoundRect,0.072500X-0.532500X-0.217500X0.532500X-0.217500X0.532500X0.217500X-0.532500X0.217500X0*%
%ADD19RoundRect,0.200000X0.275000X-0.200000X0.275000X0.200000X-0.275000X0.200000X-0.275000X-0.200000X0*%
%ADD20R,1.500000X1.000000*%
G04 APERTURE END LIST*
D10*
X47825000Y-48000000D03*
X46175000Y-48000000D03*
D11*
X66400000Y-68100000D03*
D12*
X48300000Y-44475000D03*
X48300000Y-41525000D03*
D11*
X134500000Y-61200000D03*
D12*
X51000000Y-44475000D03*
X51000000Y-41525000D03*
D10*
X77100000Y-71800000D03*
X75450000Y-71800000D03*
D13*
X110000000Y-70775000D03*
X110000000Y-69225000D03*
D10*
X47825000Y-81080010D03*
X46175000Y-81080010D03*
D14*
X180000000Y-44000000D03*
D15*
X42175000Y-95080010D03*
X43825000Y-95080010D03*
X42175000Y-83000000D03*
X43825000Y-83000000D03*
X42175000Y-61000000D03*
X43825000Y-61000000D03*
D16*
X43975000Y-52000000D03*
X42025000Y-52000000D03*
X43975000Y-63000000D03*
X42025000Y-63000000D03*
D10*
X73725000Y-72800000D03*
X72075000Y-72800000D03*
D17*
X47000000Y-63080010D03*
X47950000Y-61080010D03*
X46050000Y-61080010D03*
D11*
X76375000Y-42675000D03*
D18*
X50745000Y-106050000D03*
X50745000Y-107000000D03*
X50745000Y-107950000D03*
X53255000Y-107950000D03*
X53255000Y-107000000D03*
X53255000Y-106050000D03*
D10*
X47825000Y-93000000D03*
X46175000Y-93000000D03*
D17*
X47000000Y-74000000D03*
X47950000Y-72000000D03*
X46050000Y-72000000D03*
D16*
X43975000Y-74000010D03*
X42025000Y-74000010D03*
D14*
X182000000Y-105000000D03*
D16*
X43975000Y-85000000D03*
X42025000Y-85000000D03*
D10*
X47825000Y-59000000D03*
X46175000Y-59000000D03*
D15*
X42175000Y-50000000D03*
X43825000Y-50000000D03*
D17*
X47000000Y-85080010D03*
X47950000Y-83080010D03*
X46050000Y-83080010D03*
D10*
X47825000Y-70000000D03*
X46175000Y-70000000D03*
D19*
X112000000Y-70825000D03*
X112000000Y-69175000D03*
D12*
X71500000Y-50975000D03*
X71500000Y-48025000D03*
X68900000Y-50975000D03*
X68900000Y-48025000D03*
D16*
X43975000Y-97080010D03*
X42025000Y-97080010D03*
D17*
X47000000Y-52000000D03*
X47950000Y-50000000D03*
X46050000Y-50000000D03*
D15*
X42175000Y-72000010D03*
X43825000Y-72000010D03*
D11*
X71100000Y-42675000D03*
D14*
X63200000Y-106700000D03*
D18*
X45945000Y-106050000D03*
X45945000Y-107000000D03*
X45945000Y-107950000D03*
X48455000Y-107950000D03*
X48455000Y-107000000D03*
X48455000Y-106050000D03*
D12*
X68800000Y-60075000D03*
X68800000Y-57125000D03*
D10*
X66825000Y-73700000D03*
X65175000Y-73700000D03*
D11*
X43000000Y-42000000D03*
D12*
X71500000Y-60075000D03*
X71500000Y-57125000D03*
D20*
X114050000Y-70750000D03*
X121950000Y-70750000D03*
D10*
X70650000Y-75000000D03*
X69000000Y-75000000D03*
D17*
X47000000Y-97000000D03*
X47950000Y-95000000D03*
X46050000Y-95000000D03*
M02*
