G04 #@! TF.GenerationSoftware,KiCad,Pcbnew,8.0.3*
G04 #@! TF.CreationDate,2024-07-10T11:58:07-07:00*
G04 #@! TF.ProjectId,maveric-board,6d617665-7269-4632-9d62-6f6172642e6b,rev?*
G04 #@! TF.SameCoordinates,Original*
G04 #@! TF.FileFunction,Paste,Bot*
G04 #@! TF.FilePolarity,Positive*
%FSLAX46Y46*%
G04 Gerber Fmt 4.6, Leading zero omitted, Abs format (unit mm)*
G04 Created by KiCad (PCBNEW 8.0.3) date 2024-07-10 11:58:07*
%MOMM*%
%LPD*%
G01*
G04 APERTURE LIST*
G04 Aperture macros list*
%AMRoundRect*
0 Rectangle with rounded corners*
0 $1 Rounding radius*
0 $2 $3 $4 $5 $6 $7 $8 $9 X,Y pos of 4 corners*
0 Add a 4 corners polygon primitive as box body*
4,1,4,$2,$3,$4,$5,$6,$7,$8,$9,$2,$3,0*
0 Add four circle primitives for the rounded corners*
1,1,$1+$1,$2,$3*
1,1,$1+$1,$4,$5*
1,1,$1+$1,$6,$7*
1,1,$1+$1,$8,$9*
0 Add four rect primitives between the rounded corners*
20,1,$1+$1,$2,$3,$4,$5,0*
20,1,$1+$1,$4,$5,$6,$7,0*
20,1,$1+$1,$6,$7,$8,$9,0*
20,1,$1+$1,$8,$9,$2,$3,0*%
G04 Aperture macros list end*
%ADD10RoundRect,0.200000X0.275000X-0.200000X0.275000X0.200000X-0.275000X0.200000X-0.275000X-0.200000X0*%
%ADD11RoundRect,0.200000X-0.275000X0.200000X-0.275000X-0.200000X0.275000X-0.200000X0.275000X0.200000X0*%
%ADD12RoundRect,0.225000X-0.250000X0.225000X-0.250000X-0.225000X0.250000X-0.225000X0.250000X0.225000X0*%
%ADD13RoundRect,0.225000X-0.225000X-0.250000X0.225000X-0.250000X0.225000X0.250000X-0.225000X0.250000X0*%
%ADD14RoundRect,0.225000X0.225000X0.250000X-0.225000X0.250000X-0.225000X-0.250000X0.225000X-0.250000X0*%
%ADD15RoundRect,0.200000X0.200000X0.275000X-0.200000X0.275000X-0.200000X-0.275000X0.200000X-0.275000X0*%
%ADD16C,0.894000*%
%ADD17RoundRect,0.225000X0.250000X-0.225000X0.250000X0.225000X-0.250000X0.225000X-0.250000X-0.225000X0*%
G04 APERTURE END LIST*
D10*
X174100000Y-102825000D03*
X174100000Y-101175000D03*
D11*
X105500000Y-85250000D03*
X105500000Y-86900000D03*
D12*
X50700000Y-106025000D03*
X50700000Y-107575000D03*
X48500000Y-106025000D03*
X48500000Y-107575000D03*
D13*
X158825000Y-68500000D03*
X160375000Y-68500000D03*
D14*
X165175000Y-86500000D03*
X163625000Y-86500000D03*
D11*
X108000000Y-88000000D03*
X108000000Y-89650000D03*
X124500000Y-87300000D03*
X124500000Y-88950000D03*
D15*
X152025000Y-70900000D03*
X150375000Y-70900000D03*
D14*
X165175000Y-68500000D03*
X163625000Y-68500000D03*
X160375000Y-83700000D03*
X158825000Y-83700000D03*
D11*
X97750000Y-77000000D03*
X97750000Y-78650000D03*
D16*
X52231410Y-99845010D03*
X52231410Y-98575010D03*
X52231410Y-97305010D03*
X52231410Y-96035010D03*
X52231410Y-94765010D03*
X52231410Y-93495010D03*
X52231410Y-92225010D03*
X52231410Y-90955010D03*
X52231410Y-89685010D03*
X52231410Y-88415010D03*
X52231410Y-87145010D03*
X52231410Y-85875010D03*
X52231410Y-84605010D03*
X52231410Y-83335010D03*
X52231410Y-82065010D03*
X52231410Y-80795010D03*
X52231410Y-79525010D03*
X52231410Y-78255010D03*
X52231410Y-76985010D03*
X52231410Y-75715010D03*
X52231410Y-74445010D03*
X52231410Y-73175010D03*
X52231410Y-71905010D03*
X52231410Y-70635010D03*
X52231410Y-69365010D03*
X52231410Y-68095010D03*
X52231410Y-66825010D03*
X52231410Y-65555010D03*
X52231410Y-64285010D03*
X52231410Y-63015010D03*
X52231410Y-61745010D03*
X52231410Y-60475010D03*
X52231410Y-59205010D03*
X52231410Y-57935010D03*
X52231410Y-56665010D03*
X52231410Y-55395010D03*
X52231410Y-54125010D03*
X52231410Y-52855010D03*
X52231410Y-51585010D03*
X52231410Y-50315010D03*
X53501410Y-99845010D03*
X53501410Y-98575010D03*
X53501410Y-97305010D03*
X53501410Y-96035010D03*
X53501410Y-94765010D03*
X53501410Y-93495010D03*
X53501410Y-92225010D03*
X53501410Y-90955010D03*
X53501410Y-89685010D03*
X53501410Y-88415010D03*
X53501410Y-87145010D03*
X53501410Y-85875010D03*
X53501410Y-84605010D03*
X53501410Y-83335010D03*
X53501410Y-82065010D03*
X53501410Y-80795010D03*
X53501410Y-79525010D03*
X53501410Y-78255010D03*
X53501410Y-76985010D03*
X53501410Y-75715010D03*
X53501410Y-74445010D03*
X53501410Y-73175010D03*
X53501410Y-71905010D03*
X53501410Y-70635010D03*
X53501410Y-69365010D03*
X53501410Y-68095010D03*
X53501410Y-66825010D03*
X53501410Y-65555010D03*
X53501410Y-64285010D03*
X53501410Y-63015010D03*
X53501410Y-61745010D03*
X53501410Y-60475010D03*
X53501410Y-59205010D03*
X53501410Y-57935010D03*
X53501410Y-56665010D03*
X53501410Y-55395010D03*
X53501410Y-54125010D03*
X53501410Y-52855010D03*
X53501410Y-51585010D03*
X53501410Y-50315010D03*
X57311410Y-99845010D03*
X57311410Y-98575010D03*
X57311410Y-97305010D03*
X57311410Y-96035010D03*
X57311410Y-94765010D03*
X57311410Y-93495010D03*
X57311410Y-92225010D03*
X57311410Y-90955010D03*
X57311410Y-89685010D03*
X57311410Y-88415010D03*
X57311410Y-87145010D03*
X57311410Y-85875010D03*
X57311410Y-84605010D03*
X57311410Y-83335010D03*
X57311410Y-82065010D03*
X57311410Y-80795010D03*
X57311410Y-79525010D03*
X57311410Y-78255010D03*
X57311410Y-76985010D03*
X57311410Y-75715010D03*
X57311410Y-74445010D03*
X57311410Y-73175010D03*
X57311410Y-71905010D03*
X57311410Y-70635010D03*
X57311410Y-69365010D03*
X57311410Y-68095010D03*
X57311410Y-66825010D03*
X57311410Y-65555010D03*
X57311410Y-64285010D03*
X57311410Y-63015010D03*
X57311410Y-61745010D03*
X57311410Y-60475010D03*
X57311410Y-59205010D03*
X57311410Y-57935010D03*
X57311410Y-56665010D03*
X57311410Y-55395010D03*
X57311410Y-54125010D03*
X57311410Y-52855010D03*
X57311410Y-51585010D03*
X57311410Y-50315010D03*
X58581410Y-99845010D03*
X58581410Y-98575010D03*
X58581410Y-97305010D03*
X58581410Y-96035010D03*
X58581410Y-94765010D03*
X58581410Y-93495010D03*
X58581410Y-92225010D03*
X58581410Y-90955010D03*
X58581410Y-89685010D03*
X58581410Y-88415010D03*
X58581410Y-87145010D03*
X58581410Y-85875010D03*
X58581410Y-84605010D03*
X58581410Y-83335010D03*
X58581410Y-82065010D03*
X58581410Y-80795010D03*
X58581410Y-79525010D03*
X58581410Y-78255010D03*
X58581410Y-76985010D03*
X58581410Y-75715010D03*
X58581410Y-74445010D03*
X58581410Y-73175010D03*
X58581410Y-71905010D03*
X58581410Y-70635010D03*
X58581410Y-69365010D03*
X58581410Y-68095010D03*
X58581410Y-66825010D03*
X58581410Y-65555010D03*
X58581410Y-64285010D03*
X58581410Y-63015010D03*
X58581410Y-61745010D03*
X58581410Y-60475010D03*
X58581410Y-59205010D03*
X58581410Y-57935010D03*
X58581410Y-56665010D03*
X58581410Y-55395010D03*
X58581410Y-54125010D03*
X58581410Y-52855010D03*
X58581410Y-51585010D03*
X58581410Y-50315010D03*
D11*
X79000000Y-72800000D03*
X79000000Y-74450000D03*
X95000000Y-75750000D03*
X95000000Y-77400000D03*
D12*
X53300000Y-106025000D03*
X53300000Y-107575000D03*
D11*
X69000000Y-73700000D03*
X69000000Y-75350000D03*
D14*
X151875000Y-76900000D03*
X150325000Y-76900000D03*
D11*
X100250000Y-81500000D03*
X100250000Y-83150000D03*
D13*
X168425000Y-78700000D03*
X169975000Y-78700000D03*
X172325000Y-71400000D03*
X173875000Y-71400000D03*
D11*
X132000000Y-91275000D03*
X132000000Y-92925000D03*
D14*
X165175000Y-83732410D03*
X163625000Y-83732410D03*
D11*
X72500000Y-75000000D03*
X72500000Y-76650000D03*
D13*
X168425000Y-71400000D03*
X169975000Y-71400000D03*
X168425000Y-73500000D03*
X169975000Y-73500000D03*
D14*
X151875000Y-78700000D03*
X150325000Y-78700000D03*
X155975000Y-78700000D03*
X154425000Y-78700000D03*
D13*
X168425000Y-76500000D03*
X169975000Y-76500000D03*
D11*
X116750000Y-76425000D03*
X116750000Y-78075000D03*
X129700000Y-90575000D03*
X129700000Y-92225000D03*
D14*
X155975000Y-76900000D03*
X154425000Y-76900000D03*
D13*
X152725000Y-73200000D03*
X154275000Y-73200000D03*
D12*
X45900000Y-106000000D03*
X45900000Y-107550000D03*
D11*
X158800000Y-100875000D03*
X158800000Y-102525000D03*
D10*
X81000000Y-73525000D03*
X81000000Y-71875000D03*
D11*
X127200000Y-89975000D03*
X127200000Y-91625000D03*
X102750000Y-82500000D03*
X102750000Y-84150000D03*
D14*
X155975000Y-71300000D03*
X154425000Y-71300000D03*
D11*
X119200000Y-80775000D03*
X119200000Y-82425000D03*
D13*
X172325000Y-78700000D03*
X173875000Y-78700000D03*
X158825000Y-65800000D03*
X160375000Y-65800000D03*
X172325000Y-76500000D03*
X173875000Y-76500000D03*
X172325000Y-73500000D03*
X173875000Y-73500000D03*
D11*
X122100000Y-82000000D03*
X122100000Y-83650000D03*
X134800000Y-91800000D03*
X134800000Y-93450000D03*
D17*
X179000000Y-107275000D03*
X179000000Y-105725000D03*
D14*
X160375000Y-86500000D03*
X158825000Y-86500000D03*
X151875000Y-75000000D03*
X150325000Y-75000000D03*
X155975000Y-75000000D03*
X154425000Y-75000000D03*
X165175000Y-65800000D03*
X163625000Y-65800000D03*
M02*
