G04 #@! TF.GenerationSoftware,KiCad,Pcbnew,8.0.3*
G04 #@! TF.CreationDate,2024-07-10T11:58:07-07:00*
G04 #@! TF.ProjectId,maveric-board,6d617665-7269-4632-9d62-6f6172642e6b,rev?*
G04 #@! TF.SameCoordinates,Original*
G04 #@! TF.FileFunction,Legend,Bot*
G04 #@! TF.FilePolarity,Positive*
%FSLAX46Y46*%
G04 Gerber Fmt 4.6, Leading zero omitted, Abs format (unit mm)*
G04 Created by KiCad (PCBNEW 8.0.3) date 2024-07-10 11:58:07*
%MOMM*%
%LPD*%
G01*
G04 APERTURE LIST*
G04 Aperture macros list*
%AMRoundRect*
0 Rectangle with rounded corners*
0 $1 Rounding radius*
0 $2 $3 $4 $5 $6 $7 $8 $9 X,Y pos of 4 corners*
0 Add a 4 corners polygon primitive as box body*
4,1,4,$2,$3,$4,$5,$6,$7,$8,$9,$2,$3,0*
0 Add four circle primitives for the rounded corners*
1,1,$1+$1,$2,$3*
1,1,$1+$1,$4,$5*
1,1,$1+$1,$6,$7*
1,1,$1+$1,$8,$9*
0 Add four rect primitives between the rounded corners*
20,1,$1+$1,$2,$3,$4,$5,0*
20,1,$1+$1,$4,$5,$6,$7,0*
20,1,$1+$1,$6,$7,$8,$9,0*
20,1,$1+$1,$8,$9,$2,$3,0*%
G04 Aperture macros list end*
%ADD10C,0.150000*%
%ADD11C,0.025400*%
%ADD12C,0.120000*%
%ADD13C,0.127000*%
%ADD14C,0.200000*%
%ADD15C,2.082800*%
%ADD16C,1.117600*%
%ADD17RoundRect,0.102000X0.825000X0.825000X-0.825000X0.825000X-0.825000X-0.825000X0.825000X-0.825000X0*%
%ADD18C,1.854000*%
%ADD19C,2.600000*%
%ADD20C,2.000000*%
%ADD21C,2.100000*%
%ADD22RoundRect,0.102000X0.825000X-0.825000X0.825000X0.825000X-0.825000X0.825000X-0.825000X-0.825000X0*%
%ADD23RoundRect,0.102000X-0.825000X-0.825000X0.825000X-0.825000X0.825000X0.825000X-0.825000X0.825000X0*%
%ADD24C,0.800000*%
%ADD25C,5.400000*%
%ADD26C,3.000000*%
%ADD27RoundRect,0.102000X-0.825000X0.825000X-0.825000X-0.825000X0.825000X-0.825000X0.825000X0.825000X0*%
%ADD28R,1.800000X1.800000*%
%ADD29C,1.800000*%
%ADD30RoundRect,0.200000X0.275000X-0.200000X0.275000X0.200000X-0.275000X0.200000X-0.275000X-0.200000X0*%
%ADD31RoundRect,0.200000X-0.275000X0.200000X-0.275000X-0.200000X0.275000X-0.200000X0.275000X0.200000X0*%
%ADD32RoundRect,0.225000X-0.250000X0.225000X-0.250000X-0.225000X0.250000X-0.225000X0.250000X0.225000X0*%
%ADD33RoundRect,0.225000X-0.225000X-0.250000X0.225000X-0.250000X0.225000X0.250000X-0.225000X0.250000X0*%
%ADD34RoundRect,0.225000X0.225000X0.250000X-0.225000X0.250000X-0.225000X-0.250000X0.225000X-0.250000X0*%
%ADD35RoundRect,0.200000X0.200000X0.275000X-0.200000X0.275000X-0.200000X-0.275000X0.200000X-0.275000X0*%
%ADD36C,3.700000*%
%ADD37C,1.270000*%
%ADD38C,0.844000*%
%ADD39RoundRect,0.225000X0.250000X-0.225000X0.250000X0.225000X-0.250000X0.225000X-0.250000X-0.225000X0*%
G04 APERTURE END LIST*
D10*
X82377506Y-77869819D02*
X82377506Y-78584104D01*
X82377506Y-78584104D02*
X82425125Y-78726961D01*
X82425125Y-78726961D02*
X82520363Y-78822200D01*
X82520363Y-78822200D02*
X82663220Y-78869819D01*
X82663220Y-78869819D02*
X82758458Y-78869819D01*
X82044172Y-77869819D02*
X81472744Y-77869819D01*
X81758458Y-78869819D02*
X81758458Y-77869819D01*
X81187029Y-78584104D02*
X80710839Y-78584104D01*
X81282267Y-78869819D02*
X80948934Y-77869819D01*
X80948934Y-77869819D02*
X80615601Y-78869819D01*
X79758458Y-77917438D02*
X79853696Y-77869819D01*
X79853696Y-77869819D02*
X79996553Y-77869819D01*
X79996553Y-77869819D02*
X80139410Y-77917438D01*
X80139410Y-77917438D02*
X80234648Y-78012676D01*
X80234648Y-78012676D02*
X80282267Y-78107914D01*
X80282267Y-78107914D02*
X80329886Y-78298390D01*
X80329886Y-78298390D02*
X80329886Y-78441247D01*
X80329886Y-78441247D02*
X80282267Y-78631723D01*
X80282267Y-78631723D02*
X80234648Y-78726961D01*
X80234648Y-78726961D02*
X80139410Y-78822200D01*
X80139410Y-78822200D02*
X79996553Y-78869819D01*
X79996553Y-78869819D02*
X79901315Y-78869819D01*
X79901315Y-78869819D02*
X79758458Y-78822200D01*
X79758458Y-78822200D02*
X79710839Y-78774580D01*
X79710839Y-78774580D02*
X79710839Y-78441247D01*
X79710839Y-78441247D02*
X79901315Y-78441247D01*
X78520362Y-78203152D02*
X78520362Y-79203152D01*
X78520362Y-78250771D02*
X78425124Y-78203152D01*
X78425124Y-78203152D02*
X78234648Y-78203152D01*
X78234648Y-78203152D02*
X78139410Y-78250771D01*
X78139410Y-78250771D02*
X78091791Y-78298390D01*
X78091791Y-78298390D02*
X78044172Y-78393628D01*
X78044172Y-78393628D02*
X78044172Y-78679342D01*
X78044172Y-78679342D02*
X78091791Y-78774580D01*
X78091791Y-78774580D02*
X78139410Y-78822200D01*
X78139410Y-78822200D02*
X78234648Y-78869819D01*
X78234648Y-78869819D02*
X78425124Y-78869819D01*
X78425124Y-78869819D02*
X78520362Y-78822200D01*
X77187029Y-78203152D02*
X77187029Y-78869819D01*
X77615600Y-78203152D02*
X77615600Y-78726961D01*
X77615600Y-78726961D02*
X77567981Y-78822200D01*
X77567981Y-78822200D02*
X77472743Y-78869819D01*
X77472743Y-78869819D02*
X77329886Y-78869819D01*
X77329886Y-78869819D02*
X77234648Y-78822200D01*
X77234648Y-78822200D02*
X77187029Y-78774580D01*
X76567981Y-78869819D02*
X76663219Y-78822200D01*
X76663219Y-78822200D02*
X76710838Y-78726961D01*
X76710838Y-78726961D02*
X76710838Y-77869819D01*
X76044171Y-78869819D02*
X76139409Y-78822200D01*
X76139409Y-78822200D02*
X76187028Y-78726961D01*
X76187028Y-78726961D02*
X76187028Y-77869819D01*
X75234647Y-78203152D02*
X75234647Y-78869819D01*
X75663218Y-78203152D02*
X75663218Y-78726961D01*
X75663218Y-78726961D02*
X75615599Y-78822200D01*
X75615599Y-78822200D02*
X75520361Y-78869819D01*
X75520361Y-78869819D02*
X75377504Y-78869819D01*
X75377504Y-78869819D02*
X75282266Y-78822200D01*
X75282266Y-78822200D02*
X75234647Y-78774580D01*
X74758456Y-78203152D02*
X74758456Y-79203152D01*
X74758456Y-78250771D02*
X74663218Y-78203152D01*
X74663218Y-78203152D02*
X74472742Y-78203152D01*
X74472742Y-78203152D02*
X74377504Y-78250771D01*
X74377504Y-78250771D02*
X74329885Y-78298390D01*
X74329885Y-78298390D02*
X74282266Y-78393628D01*
X74282266Y-78393628D02*
X74282266Y-78679342D01*
X74282266Y-78679342D02*
X74329885Y-78774580D01*
X74329885Y-78774580D02*
X74377504Y-78822200D01*
X74377504Y-78822200D02*
X74472742Y-78869819D01*
X74472742Y-78869819D02*
X74663218Y-78869819D01*
X74663218Y-78869819D02*
X74758456Y-78822200D01*
X73901313Y-78822200D02*
X73806075Y-78869819D01*
X73806075Y-78869819D02*
X73615599Y-78869819D01*
X73615599Y-78869819D02*
X73520361Y-78822200D01*
X73520361Y-78822200D02*
X73472742Y-78726961D01*
X73472742Y-78726961D02*
X73472742Y-78679342D01*
X73472742Y-78679342D02*
X73520361Y-78584104D01*
X73520361Y-78584104D02*
X73615599Y-78536485D01*
X73615599Y-78536485D02*
X73758456Y-78536485D01*
X73758456Y-78536485D02*
X73853694Y-78488866D01*
X73853694Y-78488866D02*
X73901313Y-78393628D01*
X73901313Y-78393628D02*
X73901313Y-78346009D01*
X73901313Y-78346009D02*
X73853694Y-78250771D01*
X73853694Y-78250771D02*
X73758456Y-78203152D01*
X73758456Y-78203152D02*
X73615599Y-78203152D01*
X73615599Y-78203152D02*
X73520361Y-78250771D01*
X72329885Y-77822200D02*
X73187027Y-79107914D01*
X71567980Y-78869819D02*
X71567980Y-77869819D01*
X71567980Y-78822200D02*
X71663218Y-78869819D01*
X71663218Y-78869819D02*
X71853694Y-78869819D01*
X71853694Y-78869819D02*
X71948932Y-78822200D01*
X71948932Y-78822200D02*
X71996551Y-78774580D01*
X71996551Y-78774580D02*
X72044170Y-78679342D01*
X72044170Y-78679342D02*
X72044170Y-78393628D01*
X72044170Y-78393628D02*
X71996551Y-78298390D01*
X71996551Y-78298390D02*
X71948932Y-78250771D01*
X71948932Y-78250771D02*
X71853694Y-78203152D01*
X71853694Y-78203152D02*
X71663218Y-78203152D01*
X71663218Y-78203152D02*
X71567980Y-78250771D01*
X70948932Y-78869819D02*
X71044170Y-78822200D01*
X71044170Y-78822200D02*
X71091789Y-78774580D01*
X71091789Y-78774580D02*
X71139408Y-78679342D01*
X71139408Y-78679342D02*
X71139408Y-78393628D01*
X71139408Y-78393628D02*
X71091789Y-78298390D01*
X71091789Y-78298390D02*
X71044170Y-78250771D01*
X71044170Y-78250771D02*
X70948932Y-78203152D01*
X70948932Y-78203152D02*
X70806075Y-78203152D01*
X70806075Y-78203152D02*
X70710837Y-78250771D01*
X70710837Y-78250771D02*
X70663218Y-78298390D01*
X70663218Y-78298390D02*
X70615599Y-78393628D01*
X70615599Y-78393628D02*
X70615599Y-78679342D01*
X70615599Y-78679342D02*
X70663218Y-78774580D01*
X70663218Y-78774580D02*
X70710837Y-78822200D01*
X70710837Y-78822200D02*
X70806075Y-78869819D01*
X70806075Y-78869819D02*
X70948932Y-78869819D01*
X70282265Y-78203152D02*
X70091789Y-78869819D01*
X70091789Y-78869819D02*
X69901313Y-78393628D01*
X69901313Y-78393628D02*
X69710837Y-78869819D01*
X69710837Y-78869819D02*
X69520361Y-78203152D01*
X69139408Y-78203152D02*
X69139408Y-78869819D01*
X69139408Y-78298390D02*
X69091789Y-78250771D01*
X69091789Y-78250771D02*
X68996551Y-78203152D01*
X68996551Y-78203152D02*
X68853694Y-78203152D01*
X68853694Y-78203152D02*
X68758456Y-78250771D01*
X68758456Y-78250771D02*
X68710837Y-78346009D01*
X68710837Y-78346009D02*
X68710837Y-78869819D01*
X68282265Y-78822200D02*
X68187027Y-78869819D01*
X68187027Y-78869819D02*
X67996551Y-78869819D01*
X67996551Y-78869819D02*
X67901313Y-78822200D01*
X67901313Y-78822200D02*
X67853694Y-78726961D01*
X67853694Y-78726961D02*
X67853694Y-78679342D01*
X67853694Y-78679342D02*
X67901313Y-78584104D01*
X67901313Y-78584104D02*
X67996551Y-78536485D01*
X67996551Y-78536485D02*
X68139408Y-78536485D01*
X68139408Y-78536485D02*
X68234646Y-78488866D01*
X68234646Y-78488866D02*
X68282265Y-78393628D01*
X68282265Y-78393628D02*
X68282265Y-78346009D01*
X68282265Y-78346009D02*
X68234646Y-78250771D01*
X68234646Y-78250771D02*
X68139408Y-78203152D01*
X68139408Y-78203152D02*
X67996551Y-78203152D01*
X67996551Y-78203152D02*
X67901313Y-78250771D01*
X176054819Y-101357142D02*
X175578628Y-101023809D01*
X176054819Y-100785714D02*
X175054819Y-100785714D01*
X175054819Y-100785714D02*
X175054819Y-101166666D01*
X175054819Y-101166666D02*
X175102438Y-101261904D01*
X175102438Y-101261904D02*
X175150057Y-101309523D01*
X175150057Y-101309523D02*
X175245295Y-101357142D01*
X175245295Y-101357142D02*
X175388152Y-101357142D01*
X175388152Y-101357142D02*
X175483390Y-101309523D01*
X175483390Y-101309523D02*
X175531009Y-101261904D01*
X175531009Y-101261904D02*
X175578628Y-101166666D01*
X175578628Y-101166666D02*
X175578628Y-100785714D01*
X175054819Y-101690476D02*
X175054819Y-102309523D01*
X175054819Y-102309523D02*
X175435771Y-101976190D01*
X175435771Y-101976190D02*
X175435771Y-102119047D01*
X175435771Y-102119047D02*
X175483390Y-102214285D01*
X175483390Y-102214285D02*
X175531009Y-102261904D01*
X175531009Y-102261904D02*
X175626247Y-102309523D01*
X175626247Y-102309523D02*
X175864342Y-102309523D01*
X175864342Y-102309523D02*
X175959580Y-102261904D01*
X175959580Y-102261904D02*
X176007200Y-102214285D01*
X176007200Y-102214285D02*
X176054819Y-102119047D01*
X176054819Y-102119047D02*
X176054819Y-101833333D01*
X176054819Y-101833333D02*
X176007200Y-101738095D01*
X176007200Y-101738095D02*
X175959580Y-101690476D01*
X176054819Y-103261904D02*
X176054819Y-102690476D01*
X176054819Y-102976190D02*
X175054819Y-102976190D01*
X175054819Y-102976190D02*
X175197676Y-102880952D01*
X175197676Y-102880952D02*
X175292914Y-102785714D01*
X175292914Y-102785714D02*
X175340533Y-102690476D01*
X105566666Y-84354819D02*
X105899999Y-83878628D01*
X106138094Y-84354819D02*
X106138094Y-83354819D01*
X106138094Y-83354819D02*
X105757142Y-83354819D01*
X105757142Y-83354819D02*
X105661904Y-83402438D01*
X105661904Y-83402438D02*
X105614285Y-83450057D01*
X105614285Y-83450057D02*
X105566666Y-83545295D01*
X105566666Y-83545295D02*
X105566666Y-83688152D01*
X105566666Y-83688152D02*
X105614285Y-83783390D01*
X105614285Y-83783390D02*
X105661904Y-83831009D01*
X105661904Y-83831009D02*
X105757142Y-83878628D01*
X105757142Y-83878628D02*
X106138094Y-83878628D01*
X105233332Y-83354819D02*
X104566666Y-83354819D01*
X104566666Y-83354819D02*
X104995237Y-84354819D01*
X51059580Y-109157142D02*
X51107200Y-109109523D01*
X51107200Y-109109523D02*
X51154819Y-108966666D01*
X51154819Y-108966666D02*
X51154819Y-108871428D01*
X51154819Y-108871428D02*
X51107200Y-108728571D01*
X51107200Y-108728571D02*
X51011961Y-108633333D01*
X51011961Y-108633333D02*
X50916723Y-108585714D01*
X50916723Y-108585714D02*
X50726247Y-108538095D01*
X50726247Y-108538095D02*
X50583390Y-108538095D01*
X50583390Y-108538095D02*
X50392914Y-108585714D01*
X50392914Y-108585714D02*
X50297676Y-108633333D01*
X50297676Y-108633333D02*
X50202438Y-108728571D01*
X50202438Y-108728571D02*
X50154819Y-108871428D01*
X50154819Y-108871428D02*
X50154819Y-108966666D01*
X50154819Y-108966666D02*
X50202438Y-109109523D01*
X50202438Y-109109523D02*
X50250057Y-109157142D01*
X51154819Y-110109523D02*
X51154819Y-109538095D01*
X51154819Y-109823809D02*
X50154819Y-109823809D01*
X50154819Y-109823809D02*
X50297676Y-109728571D01*
X50297676Y-109728571D02*
X50392914Y-109633333D01*
X50392914Y-109633333D02*
X50440533Y-109538095D01*
X50154819Y-110728571D02*
X50154819Y-110823809D01*
X50154819Y-110823809D02*
X50202438Y-110919047D01*
X50202438Y-110919047D02*
X50250057Y-110966666D01*
X50250057Y-110966666D02*
X50345295Y-111014285D01*
X50345295Y-111014285D02*
X50535771Y-111061904D01*
X50535771Y-111061904D02*
X50773866Y-111061904D01*
X50773866Y-111061904D02*
X50964342Y-111014285D01*
X50964342Y-111014285D02*
X51059580Y-110966666D01*
X51059580Y-110966666D02*
X51107200Y-110919047D01*
X51107200Y-110919047D02*
X51154819Y-110823809D01*
X51154819Y-110823809D02*
X51154819Y-110728571D01*
X51154819Y-110728571D02*
X51107200Y-110633333D01*
X51107200Y-110633333D02*
X51059580Y-110585714D01*
X51059580Y-110585714D02*
X50964342Y-110538095D01*
X50964342Y-110538095D02*
X50773866Y-110490476D01*
X50773866Y-110490476D02*
X50535771Y-110490476D01*
X50535771Y-110490476D02*
X50345295Y-110538095D01*
X50345295Y-110538095D02*
X50250057Y-110585714D01*
X50250057Y-110585714D02*
X50202438Y-110633333D01*
X50202438Y-110633333D02*
X50154819Y-110728571D01*
X48859580Y-109233333D02*
X48907200Y-109185714D01*
X48907200Y-109185714D02*
X48954819Y-109042857D01*
X48954819Y-109042857D02*
X48954819Y-108947619D01*
X48954819Y-108947619D02*
X48907200Y-108804762D01*
X48907200Y-108804762D02*
X48811961Y-108709524D01*
X48811961Y-108709524D02*
X48716723Y-108661905D01*
X48716723Y-108661905D02*
X48526247Y-108614286D01*
X48526247Y-108614286D02*
X48383390Y-108614286D01*
X48383390Y-108614286D02*
X48192914Y-108661905D01*
X48192914Y-108661905D02*
X48097676Y-108709524D01*
X48097676Y-108709524D02*
X48002438Y-108804762D01*
X48002438Y-108804762D02*
X47954819Y-108947619D01*
X47954819Y-108947619D02*
X47954819Y-109042857D01*
X47954819Y-109042857D02*
X48002438Y-109185714D01*
X48002438Y-109185714D02*
X48050057Y-109233333D01*
X48954819Y-109709524D02*
X48954819Y-109900000D01*
X48954819Y-109900000D02*
X48907200Y-109995238D01*
X48907200Y-109995238D02*
X48859580Y-110042857D01*
X48859580Y-110042857D02*
X48716723Y-110138095D01*
X48716723Y-110138095D02*
X48526247Y-110185714D01*
X48526247Y-110185714D02*
X48145295Y-110185714D01*
X48145295Y-110185714D02*
X48050057Y-110138095D01*
X48050057Y-110138095D02*
X48002438Y-110090476D01*
X48002438Y-110090476D02*
X47954819Y-109995238D01*
X47954819Y-109995238D02*
X47954819Y-109804762D01*
X47954819Y-109804762D02*
X48002438Y-109709524D01*
X48002438Y-109709524D02*
X48050057Y-109661905D01*
X48050057Y-109661905D02*
X48145295Y-109614286D01*
X48145295Y-109614286D02*
X48383390Y-109614286D01*
X48383390Y-109614286D02*
X48478628Y-109661905D01*
X48478628Y-109661905D02*
X48526247Y-109709524D01*
X48526247Y-109709524D02*
X48573866Y-109804762D01*
X48573866Y-109804762D02*
X48573866Y-109995238D01*
X48573866Y-109995238D02*
X48526247Y-110090476D01*
X48526247Y-110090476D02*
X48478628Y-110138095D01*
X48478628Y-110138095D02*
X48383390Y-110185714D01*
X160242857Y-70359580D02*
X160290476Y-70407200D01*
X160290476Y-70407200D02*
X160433333Y-70454819D01*
X160433333Y-70454819D02*
X160528571Y-70454819D01*
X160528571Y-70454819D02*
X160671428Y-70407200D01*
X160671428Y-70407200D02*
X160766666Y-70311961D01*
X160766666Y-70311961D02*
X160814285Y-70216723D01*
X160814285Y-70216723D02*
X160861904Y-70026247D01*
X160861904Y-70026247D02*
X160861904Y-69883390D01*
X160861904Y-69883390D02*
X160814285Y-69692914D01*
X160814285Y-69692914D02*
X160766666Y-69597676D01*
X160766666Y-69597676D02*
X160671428Y-69502438D01*
X160671428Y-69502438D02*
X160528571Y-69454819D01*
X160528571Y-69454819D02*
X160433333Y-69454819D01*
X160433333Y-69454819D02*
X160290476Y-69502438D01*
X160290476Y-69502438D02*
X160242857Y-69550057D01*
X159861904Y-69550057D02*
X159814285Y-69502438D01*
X159814285Y-69502438D02*
X159719047Y-69454819D01*
X159719047Y-69454819D02*
X159480952Y-69454819D01*
X159480952Y-69454819D02*
X159385714Y-69502438D01*
X159385714Y-69502438D02*
X159338095Y-69550057D01*
X159338095Y-69550057D02*
X159290476Y-69645295D01*
X159290476Y-69645295D02*
X159290476Y-69740533D01*
X159290476Y-69740533D02*
X159338095Y-69883390D01*
X159338095Y-69883390D02*
X159909523Y-70454819D01*
X159909523Y-70454819D02*
X159290476Y-70454819D01*
X158671428Y-69454819D02*
X158576190Y-69454819D01*
X158576190Y-69454819D02*
X158480952Y-69502438D01*
X158480952Y-69502438D02*
X158433333Y-69550057D01*
X158433333Y-69550057D02*
X158385714Y-69645295D01*
X158385714Y-69645295D02*
X158338095Y-69835771D01*
X158338095Y-69835771D02*
X158338095Y-70073866D01*
X158338095Y-70073866D02*
X158385714Y-70264342D01*
X158385714Y-70264342D02*
X158433333Y-70359580D01*
X158433333Y-70359580D02*
X158480952Y-70407200D01*
X158480952Y-70407200D02*
X158576190Y-70454819D01*
X158576190Y-70454819D02*
X158671428Y-70454819D01*
X158671428Y-70454819D02*
X158766666Y-70407200D01*
X158766666Y-70407200D02*
X158814285Y-70359580D01*
X158814285Y-70359580D02*
X158861904Y-70264342D01*
X158861904Y-70264342D02*
X158909523Y-70073866D01*
X158909523Y-70073866D02*
X158909523Y-69835771D01*
X158909523Y-69835771D02*
X158861904Y-69645295D01*
X158861904Y-69645295D02*
X158814285Y-69550057D01*
X158814285Y-69550057D02*
X158766666Y-69502438D01*
X158766666Y-69502438D02*
X158671428Y-69454819D01*
X165042857Y-88459580D02*
X165090476Y-88507200D01*
X165090476Y-88507200D02*
X165233333Y-88554819D01*
X165233333Y-88554819D02*
X165328571Y-88554819D01*
X165328571Y-88554819D02*
X165471428Y-88507200D01*
X165471428Y-88507200D02*
X165566666Y-88411961D01*
X165566666Y-88411961D02*
X165614285Y-88316723D01*
X165614285Y-88316723D02*
X165661904Y-88126247D01*
X165661904Y-88126247D02*
X165661904Y-87983390D01*
X165661904Y-87983390D02*
X165614285Y-87792914D01*
X165614285Y-87792914D02*
X165566666Y-87697676D01*
X165566666Y-87697676D02*
X165471428Y-87602438D01*
X165471428Y-87602438D02*
X165328571Y-87554819D01*
X165328571Y-87554819D02*
X165233333Y-87554819D01*
X165233333Y-87554819D02*
X165090476Y-87602438D01*
X165090476Y-87602438D02*
X165042857Y-87650057D01*
X164661904Y-87650057D02*
X164614285Y-87602438D01*
X164614285Y-87602438D02*
X164519047Y-87554819D01*
X164519047Y-87554819D02*
X164280952Y-87554819D01*
X164280952Y-87554819D02*
X164185714Y-87602438D01*
X164185714Y-87602438D02*
X164138095Y-87650057D01*
X164138095Y-87650057D02*
X164090476Y-87745295D01*
X164090476Y-87745295D02*
X164090476Y-87840533D01*
X164090476Y-87840533D02*
X164138095Y-87983390D01*
X164138095Y-87983390D02*
X164709523Y-88554819D01*
X164709523Y-88554819D02*
X164090476Y-88554819D01*
X163233333Y-87888152D02*
X163233333Y-88554819D01*
X163471428Y-87507200D02*
X163709523Y-88221485D01*
X163709523Y-88221485D02*
X163090476Y-88221485D01*
X108166666Y-87054819D02*
X108499999Y-86578628D01*
X108738094Y-87054819D02*
X108738094Y-86054819D01*
X108738094Y-86054819D02*
X108357142Y-86054819D01*
X108357142Y-86054819D02*
X108261904Y-86102438D01*
X108261904Y-86102438D02*
X108214285Y-86150057D01*
X108214285Y-86150057D02*
X108166666Y-86245295D01*
X108166666Y-86245295D02*
X108166666Y-86388152D01*
X108166666Y-86388152D02*
X108214285Y-86483390D01*
X108214285Y-86483390D02*
X108261904Y-86531009D01*
X108261904Y-86531009D02*
X108357142Y-86578628D01*
X108357142Y-86578628D02*
X108738094Y-86578628D01*
X107595237Y-86483390D02*
X107690475Y-86435771D01*
X107690475Y-86435771D02*
X107738094Y-86388152D01*
X107738094Y-86388152D02*
X107785713Y-86292914D01*
X107785713Y-86292914D02*
X107785713Y-86245295D01*
X107785713Y-86245295D02*
X107738094Y-86150057D01*
X107738094Y-86150057D02*
X107690475Y-86102438D01*
X107690475Y-86102438D02*
X107595237Y-86054819D01*
X107595237Y-86054819D02*
X107404761Y-86054819D01*
X107404761Y-86054819D02*
X107309523Y-86102438D01*
X107309523Y-86102438D02*
X107261904Y-86150057D01*
X107261904Y-86150057D02*
X107214285Y-86245295D01*
X107214285Y-86245295D02*
X107214285Y-86292914D01*
X107214285Y-86292914D02*
X107261904Y-86388152D01*
X107261904Y-86388152D02*
X107309523Y-86435771D01*
X107309523Y-86435771D02*
X107404761Y-86483390D01*
X107404761Y-86483390D02*
X107595237Y-86483390D01*
X107595237Y-86483390D02*
X107690475Y-86531009D01*
X107690475Y-86531009D02*
X107738094Y-86578628D01*
X107738094Y-86578628D02*
X107785713Y-86673866D01*
X107785713Y-86673866D02*
X107785713Y-86864342D01*
X107785713Y-86864342D02*
X107738094Y-86959580D01*
X107738094Y-86959580D02*
X107690475Y-87007200D01*
X107690475Y-87007200D02*
X107595237Y-87054819D01*
X107595237Y-87054819D02*
X107404761Y-87054819D01*
X107404761Y-87054819D02*
X107309523Y-87007200D01*
X107309523Y-87007200D02*
X107261904Y-86959580D01*
X107261904Y-86959580D02*
X107214285Y-86864342D01*
X107214285Y-86864342D02*
X107214285Y-86673866D01*
X107214285Y-86673866D02*
X107261904Y-86578628D01*
X107261904Y-86578628D02*
X107309523Y-86531009D01*
X107309523Y-86531009D02*
X107404761Y-86483390D01*
X125142857Y-86354819D02*
X125476190Y-85878628D01*
X125714285Y-86354819D02*
X125714285Y-85354819D01*
X125714285Y-85354819D02*
X125333333Y-85354819D01*
X125333333Y-85354819D02*
X125238095Y-85402438D01*
X125238095Y-85402438D02*
X125190476Y-85450057D01*
X125190476Y-85450057D02*
X125142857Y-85545295D01*
X125142857Y-85545295D02*
X125142857Y-85688152D01*
X125142857Y-85688152D02*
X125190476Y-85783390D01*
X125190476Y-85783390D02*
X125238095Y-85831009D01*
X125238095Y-85831009D02*
X125333333Y-85878628D01*
X125333333Y-85878628D02*
X125714285Y-85878628D01*
X124190476Y-86354819D02*
X124761904Y-86354819D01*
X124476190Y-86354819D02*
X124476190Y-85354819D01*
X124476190Y-85354819D02*
X124571428Y-85497676D01*
X124571428Y-85497676D02*
X124666666Y-85592914D01*
X124666666Y-85592914D02*
X124761904Y-85640533D01*
X123809523Y-85450057D02*
X123761904Y-85402438D01*
X123761904Y-85402438D02*
X123666666Y-85354819D01*
X123666666Y-85354819D02*
X123428571Y-85354819D01*
X123428571Y-85354819D02*
X123333333Y-85402438D01*
X123333333Y-85402438D02*
X123285714Y-85450057D01*
X123285714Y-85450057D02*
X123238095Y-85545295D01*
X123238095Y-85545295D02*
X123238095Y-85640533D01*
X123238095Y-85640533D02*
X123285714Y-85783390D01*
X123285714Y-85783390D02*
X123857142Y-86354819D01*
X123857142Y-86354819D02*
X123238095Y-86354819D01*
X148766666Y-71354819D02*
X149099999Y-70878628D01*
X149338094Y-71354819D02*
X149338094Y-70354819D01*
X149338094Y-70354819D02*
X148957142Y-70354819D01*
X148957142Y-70354819D02*
X148861904Y-70402438D01*
X148861904Y-70402438D02*
X148814285Y-70450057D01*
X148814285Y-70450057D02*
X148766666Y-70545295D01*
X148766666Y-70545295D02*
X148766666Y-70688152D01*
X148766666Y-70688152D02*
X148814285Y-70783390D01*
X148814285Y-70783390D02*
X148861904Y-70831009D01*
X148861904Y-70831009D02*
X148957142Y-70878628D01*
X148957142Y-70878628D02*
X149338094Y-70878628D01*
X147814285Y-71354819D02*
X148385713Y-71354819D01*
X148099999Y-71354819D02*
X148099999Y-70354819D01*
X148099999Y-70354819D02*
X148195237Y-70497676D01*
X148195237Y-70497676D02*
X148290475Y-70592914D01*
X148290475Y-70592914D02*
X148385713Y-70640533D01*
X165042857Y-70359580D02*
X165090476Y-70407200D01*
X165090476Y-70407200D02*
X165233333Y-70454819D01*
X165233333Y-70454819D02*
X165328571Y-70454819D01*
X165328571Y-70454819D02*
X165471428Y-70407200D01*
X165471428Y-70407200D02*
X165566666Y-70311961D01*
X165566666Y-70311961D02*
X165614285Y-70216723D01*
X165614285Y-70216723D02*
X165661904Y-70026247D01*
X165661904Y-70026247D02*
X165661904Y-69883390D01*
X165661904Y-69883390D02*
X165614285Y-69692914D01*
X165614285Y-69692914D02*
X165566666Y-69597676D01*
X165566666Y-69597676D02*
X165471428Y-69502438D01*
X165471428Y-69502438D02*
X165328571Y-69454819D01*
X165328571Y-69454819D02*
X165233333Y-69454819D01*
X165233333Y-69454819D02*
X165090476Y-69502438D01*
X165090476Y-69502438D02*
X165042857Y-69550057D01*
X164090476Y-70454819D02*
X164661904Y-70454819D01*
X164376190Y-70454819D02*
X164376190Y-69454819D01*
X164376190Y-69454819D02*
X164471428Y-69597676D01*
X164471428Y-69597676D02*
X164566666Y-69692914D01*
X164566666Y-69692914D02*
X164661904Y-69740533D01*
X163233333Y-69788152D02*
X163233333Y-70454819D01*
X163471428Y-69407200D02*
X163709523Y-70121485D01*
X163709523Y-70121485D02*
X163090476Y-70121485D01*
X160242857Y-82629580D02*
X160290476Y-82677200D01*
X160290476Y-82677200D02*
X160433333Y-82724819D01*
X160433333Y-82724819D02*
X160528571Y-82724819D01*
X160528571Y-82724819D02*
X160671428Y-82677200D01*
X160671428Y-82677200D02*
X160766666Y-82581961D01*
X160766666Y-82581961D02*
X160814285Y-82486723D01*
X160814285Y-82486723D02*
X160861904Y-82296247D01*
X160861904Y-82296247D02*
X160861904Y-82153390D01*
X160861904Y-82153390D02*
X160814285Y-81962914D01*
X160814285Y-81962914D02*
X160766666Y-81867676D01*
X160766666Y-81867676D02*
X160671428Y-81772438D01*
X160671428Y-81772438D02*
X160528571Y-81724819D01*
X160528571Y-81724819D02*
X160433333Y-81724819D01*
X160433333Y-81724819D02*
X160290476Y-81772438D01*
X160290476Y-81772438D02*
X160242857Y-81820057D01*
X159861904Y-81820057D02*
X159814285Y-81772438D01*
X159814285Y-81772438D02*
X159719047Y-81724819D01*
X159719047Y-81724819D02*
X159480952Y-81724819D01*
X159480952Y-81724819D02*
X159385714Y-81772438D01*
X159385714Y-81772438D02*
X159338095Y-81820057D01*
X159338095Y-81820057D02*
X159290476Y-81915295D01*
X159290476Y-81915295D02*
X159290476Y-82010533D01*
X159290476Y-82010533D02*
X159338095Y-82153390D01*
X159338095Y-82153390D02*
X159909523Y-82724819D01*
X159909523Y-82724819D02*
X159290476Y-82724819D01*
X158338095Y-82724819D02*
X158909523Y-82724819D01*
X158623809Y-82724819D02*
X158623809Y-81724819D01*
X158623809Y-81724819D02*
X158719047Y-81867676D01*
X158719047Y-81867676D02*
X158814285Y-81962914D01*
X158814285Y-81962914D02*
X158909523Y-82010533D01*
X97966666Y-76054819D02*
X98299999Y-75578628D01*
X98538094Y-76054819D02*
X98538094Y-75054819D01*
X98538094Y-75054819D02*
X98157142Y-75054819D01*
X98157142Y-75054819D02*
X98061904Y-75102438D01*
X98061904Y-75102438D02*
X98014285Y-75150057D01*
X98014285Y-75150057D02*
X97966666Y-75245295D01*
X97966666Y-75245295D02*
X97966666Y-75388152D01*
X97966666Y-75388152D02*
X98014285Y-75483390D01*
X98014285Y-75483390D02*
X98061904Y-75531009D01*
X98061904Y-75531009D02*
X98157142Y-75578628D01*
X98157142Y-75578628D02*
X98538094Y-75578628D01*
X97109523Y-75388152D02*
X97109523Y-76054819D01*
X97347618Y-75007200D02*
X97585713Y-75721485D01*
X97585713Y-75721485D02*
X96966666Y-75721485D01*
X48084819Y-44670476D02*
X48799104Y-44670476D01*
X48799104Y-44670476D02*
X48941961Y-44622857D01*
X48941961Y-44622857D02*
X49037200Y-44527619D01*
X49037200Y-44527619D02*
X49084819Y-44384762D01*
X49084819Y-44384762D02*
X49084819Y-44289524D01*
X49084819Y-45670476D02*
X49084819Y-45099048D01*
X49084819Y-45384762D02*
X48084819Y-45384762D01*
X48084819Y-45384762D02*
X48227676Y-45289524D01*
X48227676Y-45289524D02*
X48322914Y-45194286D01*
X48322914Y-45194286D02*
X48370533Y-45099048D01*
X48084819Y-46003810D02*
X48084819Y-46670476D01*
X48084819Y-46670476D02*
X49084819Y-46241905D01*
X59276229Y-45916789D02*
X58276229Y-45916789D01*
X58752419Y-45916789D02*
X58752419Y-46488217D01*
X59276229Y-46488217D02*
X58276229Y-46488217D01*
X52680990Y-46488217D02*
X52728610Y-46440598D01*
X52728610Y-46440598D02*
X52776229Y-46297741D01*
X52776229Y-46297741D02*
X52776229Y-46202503D01*
X52776229Y-46202503D02*
X52728610Y-46059646D01*
X52728610Y-46059646D02*
X52633371Y-45964408D01*
X52633371Y-45964408D02*
X52538133Y-45916789D01*
X52538133Y-45916789D02*
X52347657Y-45869170D01*
X52347657Y-45869170D02*
X52204800Y-45869170D01*
X52204800Y-45869170D02*
X52014324Y-45916789D01*
X52014324Y-45916789D02*
X51919086Y-45964408D01*
X51919086Y-45964408D02*
X51823848Y-46059646D01*
X51823848Y-46059646D02*
X51776229Y-46202503D01*
X51776229Y-46202503D02*
X51776229Y-46297741D01*
X51776229Y-46297741D02*
X51823848Y-46440598D01*
X51823848Y-46440598D02*
X51871467Y-46488217D01*
X54276229Y-45916789D02*
X53276229Y-45916789D01*
X53276229Y-45916789D02*
X53276229Y-46154884D01*
X53276229Y-46154884D02*
X53323848Y-46297741D01*
X53323848Y-46297741D02*
X53419086Y-46392979D01*
X53419086Y-46392979D02*
X53514324Y-46440598D01*
X53514324Y-46440598D02*
X53704800Y-46488217D01*
X53704800Y-46488217D02*
X53847657Y-46488217D01*
X53847657Y-46488217D02*
X54038133Y-46440598D01*
X54038133Y-46440598D02*
X54133371Y-46392979D01*
X54133371Y-46392979D02*
X54228610Y-46297741D01*
X54228610Y-46297741D02*
X54276229Y-46154884D01*
X54276229Y-46154884D02*
X54276229Y-45916789D01*
X46859562Y-49845360D02*
X47526229Y-49845360D01*
X46478610Y-49607265D02*
X47192895Y-49369170D01*
X47192895Y-49369170D02*
X47192895Y-49988217D01*
X46526229Y-50559646D02*
X46526229Y-50654884D01*
X46526229Y-50654884D02*
X46573848Y-50750122D01*
X46573848Y-50750122D02*
X46621467Y-50797741D01*
X46621467Y-50797741D02*
X46716705Y-50845360D01*
X46716705Y-50845360D02*
X46907181Y-50892979D01*
X46907181Y-50892979D02*
X47145276Y-50892979D01*
X47145276Y-50892979D02*
X47335752Y-50845360D01*
X47335752Y-50845360D02*
X47430990Y-50797741D01*
X47430990Y-50797741D02*
X47478610Y-50750122D01*
X47478610Y-50750122D02*
X47526229Y-50654884D01*
X47526229Y-50654884D02*
X47526229Y-50559646D01*
X47526229Y-50559646D02*
X47478610Y-50464408D01*
X47478610Y-50464408D02*
X47430990Y-50416789D01*
X47430990Y-50416789D02*
X47335752Y-50369170D01*
X47335752Y-50369170D02*
X47145276Y-50321551D01*
X47145276Y-50321551D02*
X46907181Y-50321551D01*
X46907181Y-50321551D02*
X46716705Y-50369170D01*
X46716705Y-50369170D02*
X46621467Y-50416789D01*
X46621467Y-50416789D02*
X46573848Y-50464408D01*
X46573848Y-50464408D02*
X46526229Y-50559646D01*
X54026229Y-103666789D02*
X53026229Y-103666789D01*
X53026229Y-103666789D02*
X53026229Y-103904884D01*
X53026229Y-103904884D02*
X53073848Y-104047741D01*
X53073848Y-104047741D02*
X53169086Y-104142979D01*
X53169086Y-104142979D02*
X53264324Y-104190598D01*
X53264324Y-104190598D02*
X53454800Y-104238217D01*
X53454800Y-104238217D02*
X53597657Y-104238217D01*
X53597657Y-104238217D02*
X53788133Y-104190598D01*
X53788133Y-104190598D02*
X53883371Y-104142979D01*
X53883371Y-104142979D02*
X53978610Y-104047741D01*
X53978610Y-104047741D02*
X54026229Y-103904884D01*
X54026229Y-103904884D02*
X54026229Y-103666789D01*
X59276229Y-103666789D02*
X58276229Y-103666789D01*
X58752419Y-103666789D02*
X58752419Y-104238217D01*
X59276229Y-104238217D02*
X58276229Y-104238217D01*
X47526229Y-100190598D02*
X47526229Y-99619170D01*
X47526229Y-99904884D02*
X46526229Y-99904884D01*
X46526229Y-99904884D02*
X46669086Y-99809646D01*
X46669086Y-99809646D02*
X46764324Y-99714408D01*
X46764324Y-99714408D02*
X46811943Y-99619170D01*
X56823848Y-46440598D02*
X56776229Y-46345360D01*
X56776229Y-46345360D02*
X56776229Y-46202503D01*
X56776229Y-46202503D02*
X56823848Y-46059646D01*
X56823848Y-46059646D02*
X56919086Y-45964408D01*
X56919086Y-45964408D02*
X57014324Y-45916789D01*
X57014324Y-45916789D02*
X57204800Y-45869170D01*
X57204800Y-45869170D02*
X57347657Y-45869170D01*
X57347657Y-45869170D02*
X57538133Y-45916789D01*
X57538133Y-45916789D02*
X57633371Y-45964408D01*
X57633371Y-45964408D02*
X57728610Y-46059646D01*
X57728610Y-46059646D02*
X57776229Y-46202503D01*
X57776229Y-46202503D02*
X57776229Y-46297741D01*
X57776229Y-46297741D02*
X57728610Y-46440598D01*
X57728610Y-46440598D02*
X57680990Y-46488217D01*
X57680990Y-46488217D02*
X57347657Y-46488217D01*
X57347657Y-46488217D02*
X57347657Y-46297741D01*
X52680990Y-104738217D02*
X52728610Y-104690598D01*
X52728610Y-104690598D02*
X52776229Y-104547741D01*
X52776229Y-104547741D02*
X52776229Y-104452503D01*
X52776229Y-104452503D02*
X52728610Y-104309646D01*
X52728610Y-104309646D02*
X52633371Y-104214408D01*
X52633371Y-104214408D02*
X52538133Y-104166789D01*
X52538133Y-104166789D02*
X52347657Y-104119170D01*
X52347657Y-104119170D02*
X52204800Y-104119170D01*
X52204800Y-104119170D02*
X52014324Y-104166789D01*
X52014324Y-104166789D02*
X51919086Y-104214408D01*
X51919086Y-104214408D02*
X51823848Y-104309646D01*
X51823848Y-104309646D02*
X51776229Y-104452503D01*
X51776229Y-104452503D02*
X51776229Y-104547741D01*
X51776229Y-104547741D02*
X51823848Y-104690598D01*
X51823848Y-104690598D02*
X51871467Y-104738217D01*
X56823848Y-104190598D02*
X56776229Y-104095360D01*
X56776229Y-104095360D02*
X56776229Y-103952503D01*
X56776229Y-103952503D02*
X56823848Y-103809646D01*
X56823848Y-103809646D02*
X56919086Y-103714408D01*
X56919086Y-103714408D02*
X57014324Y-103666789D01*
X57014324Y-103666789D02*
X57204800Y-103619170D01*
X57204800Y-103619170D02*
X57347657Y-103619170D01*
X57347657Y-103619170D02*
X57538133Y-103666789D01*
X57538133Y-103666789D02*
X57633371Y-103714408D01*
X57633371Y-103714408D02*
X57728610Y-103809646D01*
X57728610Y-103809646D02*
X57776229Y-103952503D01*
X57776229Y-103952503D02*
X57776229Y-104047741D01*
X57776229Y-104047741D02*
X57728610Y-104190598D01*
X57728610Y-104190598D02*
X57680990Y-104238217D01*
X57680990Y-104238217D02*
X57347657Y-104238217D01*
X57347657Y-104238217D02*
X57347657Y-104047741D01*
X78024819Y-72982142D02*
X77548628Y-72648809D01*
X78024819Y-72410714D02*
X77024819Y-72410714D01*
X77024819Y-72410714D02*
X77024819Y-72791666D01*
X77024819Y-72791666D02*
X77072438Y-72886904D01*
X77072438Y-72886904D02*
X77120057Y-72934523D01*
X77120057Y-72934523D02*
X77215295Y-72982142D01*
X77215295Y-72982142D02*
X77358152Y-72982142D01*
X77358152Y-72982142D02*
X77453390Y-72934523D01*
X77453390Y-72934523D02*
X77501009Y-72886904D01*
X77501009Y-72886904D02*
X77548628Y-72791666D01*
X77548628Y-72791666D02*
X77548628Y-72410714D01*
X77024819Y-73315476D02*
X77024819Y-73934523D01*
X77024819Y-73934523D02*
X77405771Y-73601190D01*
X77405771Y-73601190D02*
X77405771Y-73744047D01*
X77405771Y-73744047D02*
X77453390Y-73839285D01*
X77453390Y-73839285D02*
X77501009Y-73886904D01*
X77501009Y-73886904D02*
X77596247Y-73934523D01*
X77596247Y-73934523D02*
X77834342Y-73934523D01*
X77834342Y-73934523D02*
X77929580Y-73886904D01*
X77929580Y-73886904D02*
X77977200Y-73839285D01*
X77977200Y-73839285D02*
X78024819Y-73744047D01*
X78024819Y-73744047D02*
X78024819Y-73458333D01*
X78024819Y-73458333D02*
X77977200Y-73363095D01*
X77977200Y-73363095D02*
X77929580Y-73315476D01*
X77024819Y-74267857D02*
X77024819Y-74886904D01*
X77024819Y-74886904D02*
X77405771Y-74553571D01*
X77405771Y-74553571D02*
X77405771Y-74696428D01*
X77405771Y-74696428D02*
X77453390Y-74791666D01*
X77453390Y-74791666D02*
X77501009Y-74839285D01*
X77501009Y-74839285D02*
X77596247Y-74886904D01*
X77596247Y-74886904D02*
X77834342Y-74886904D01*
X77834342Y-74886904D02*
X77929580Y-74839285D01*
X77929580Y-74839285D02*
X77977200Y-74791666D01*
X77977200Y-74791666D02*
X78024819Y-74696428D01*
X78024819Y-74696428D02*
X78024819Y-74410714D01*
X78024819Y-74410714D02*
X77977200Y-74315476D01*
X77977200Y-74315476D02*
X77929580Y-74267857D01*
X95166666Y-74854819D02*
X95499999Y-74378628D01*
X95738094Y-74854819D02*
X95738094Y-73854819D01*
X95738094Y-73854819D02*
X95357142Y-73854819D01*
X95357142Y-73854819D02*
X95261904Y-73902438D01*
X95261904Y-73902438D02*
X95214285Y-73950057D01*
X95214285Y-73950057D02*
X95166666Y-74045295D01*
X95166666Y-74045295D02*
X95166666Y-74188152D01*
X95166666Y-74188152D02*
X95214285Y-74283390D01*
X95214285Y-74283390D02*
X95261904Y-74331009D01*
X95261904Y-74331009D02*
X95357142Y-74378628D01*
X95357142Y-74378628D02*
X95738094Y-74378628D01*
X94833332Y-73854819D02*
X94214285Y-73854819D01*
X94214285Y-73854819D02*
X94547618Y-74235771D01*
X94547618Y-74235771D02*
X94404761Y-74235771D01*
X94404761Y-74235771D02*
X94309523Y-74283390D01*
X94309523Y-74283390D02*
X94261904Y-74331009D01*
X94261904Y-74331009D02*
X94214285Y-74426247D01*
X94214285Y-74426247D02*
X94214285Y-74664342D01*
X94214285Y-74664342D02*
X94261904Y-74759580D01*
X94261904Y-74759580D02*
X94309523Y-74807200D01*
X94309523Y-74807200D02*
X94404761Y-74854819D01*
X94404761Y-74854819D02*
X94690475Y-74854819D01*
X94690475Y-74854819D02*
X94785713Y-74807200D01*
X94785713Y-74807200D02*
X94833332Y-74759580D01*
X53659580Y-109157142D02*
X53707200Y-109109523D01*
X53707200Y-109109523D02*
X53754819Y-108966666D01*
X53754819Y-108966666D02*
X53754819Y-108871428D01*
X53754819Y-108871428D02*
X53707200Y-108728571D01*
X53707200Y-108728571D02*
X53611961Y-108633333D01*
X53611961Y-108633333D02*
X53516723Y-108585714D01*
X53516723Y-108585714D02*
X53326247Y-108538095D01*
X53326247Y-108538095D02*
X53183390Y-108538095D01*
X53183390Y-108538095D02*
X52992914Y-108585714D01*
X52992914Y-108585714D02*
X52897676Y-108633333D01*
X52897676Y-108633333D02*
X52802438Y-108728571D01*
X52802438Y-108728571D02*
X52754819Y-108871428D01*
X52754819Y-108871428D02*
X52754819Y-108966666D01*
X52754819Y-108966666D02*
X52802438Y-109109523D01*
X52802438Y-109109523D02*
X52850057Y-109157142D01*
X53754819Y-110109523D02*
X53754819Y-109538095D01*
X53754819Y-109823809D02*
X52754819Y-109823809D01*
X52754819Y-109823809D02*
X52897676Y-109728571D01*
X52897676Y-109728571D02*
X52992914Y-109633333D01*
X52992914Y-109633333D02*
X53040533Y-109538095D01*
X53754819Y-111061904D02*
X53754819Y-110490476D01*
X53754819Y-110776190D02*
X52754819Y-110776190D01*
X52754819Y-110776190D02*
X52897676Y-110680952D01*
X52897676Y-110680952D02*
X52992914Y-110585714D01*
X52992914Y-110585714D02*
X53040533Y-110490476D01*
X68024819Y-73882142D02*
X67548628Y-73548809D01*
X68024819Y-73310714D02*
X67024819Y-73310714D01*
X67024819Y-73310714D02*
X67024819Y-73691666D01*
X67024819Y-73691666D02*
X67072438Y-73786904D01*
X67072438Y-73786904D02*
X67120057Y-73834523D01*
X67120057Y-73834523D02*
X67215295Y-73882142D01*
X67215295Y-73882142D02*
X67358152Y-73882142D01*
X67358152Y-73882142D02*
X67453390Y-73834523D01*
X67453390Y-73834523D02*
X67501009Y-73786904D01*
X67501009Y-73786904D02*
X67548628Y-73691666D01*
X67548628Y-73691666D02*
X67548628Y-73310714D01*
X67024819Y-74215476D02*
X67024819Y-74834523D01*
X67024819Y-74834523D02*
X67405771Y-74501190D01*
X67405771Y-74501190D02*
X67405771Y-74644047D01*
X67405771Y-74644047D02*
X67453390Y-74739285D01*
X67453390Y-74739285D02*
X67501009Y-74786904D01*
X67501009Y-74786904D02*
X67596247Y-74834523D01*
X67596247Y-74834523D02*
X67834342Y-74834523D01*
X67834342Y-74834523D02*
X67929580Y-74786904D01*
X67929580Y-74786904D02*
X67977200Y-74739285D01*
X67977200Y-74739285D02*
X68024819Y-74644047D01*
X68024819Y-74644047D02*
X68024819Y-74358333D01*
X68024819Y-74358333D02*
X67977200Y-74263095D01*
X67977200Y-74263095D02*
X67929580Y-74215476D01*
X67024819Y-75739285D02*
X67024819Y-75263095D01*
X67024819Y-75263095D02*
X67501009Y-75215476D01*
X67501009Y-75215476D02*
X67453390Y-75263095D01*
X67453390Y-75263095D02*
X67405771Y-75358333D01*
X67405771Y-75358333D02*
X67405771Y-75596428D01*
X67405771Y-75596428D02*
X67453390Y-75691666D01*
X67453390Y-75691666D02*
X67501009Y-75739285D01*
X67501009Y-75739285D02*
X67596247Y-75786904D01*
X67596247Y-75786904D02*
X67834342Y-75786904D01*
X67834342Y-75786904D02*
X67929580Y-75739285D01*
X67929580Y-75739285D02*
X67977200Y-75691666D01*
X67977200Y-75691666D02*
X68024819Y-75596428D01*
X68024819Y-75596428D02*
X68024819Y-75358333D01*
X68024819Y-75358333D02*
X67977200Y-75263095D01*
X67977200Y-75263095D02*
X67929580Y-75215476D01*
X148642857Y-77259580D02*
X148690476Y-77307200D01*
X148690476Y-77307200D02*
X148833333Y-77354819D01*
X148833333Y-77354819D02*
X148928571Y-77354819D01*
X148928571Y-77354819D02*
X149071428Y-77307200D01*
X149071428Y-77307200D02*
X149166666Y-77211961D01*
X149166666Y-77211961D02*
X149214285Y-77116723D01*
X149214285Y-77116723D02*
X149261904Y-76926247D01*
X149261904Y-76926247D02*
X149261904Y-76783390D01*
X149261904Y-76783390D02*
X149214285Y-76592914D01*
X149214285Y-76592914D02*
X149166666Y-76497676D01*
X149166666Y-76497676D02*
X149071428Y-76402438D01*
X149071428Y-76402438D02*
X148928571Y-76354819D01*
X148928571Y-76354819D02*
X148833333Y-76354819D01*
X148833333Y-76354819D02*
X148690476Y-76402438D01*
X148690476Y-76402438D02*
X148642857Y-76450057D01*
X148309523Y-76354819D02*
X147690476Y-76354819D01*
X147690476Y-76354819D02*
X148023809Y-76735771D01*
X148023809Y-76735771D02*
X147880952Y-76735771D01*
X147880952Y-76735771D02*
X147785714Y-76783390D01*
X147785714Y-76783390D02*
X147738095Y-76831009D01*
X147738095Y-76831009D02*
X147690476Y-76926247D01*
X147690476Y-76926247D02*
X147690476Y-77164342D01*
X147690476Y-77164342D02*
X147738095Y-77259580D01*
X147738095Y-77259580D02*
X147785714Y-77307200D01*
X147785714Y-77307200D02*
X147880952Y-77354819D01*
X147880952Y-77354819D02*
X148166666Y-77354819D01*
X148166666Y-77354819D02*
X148261904Y-77307200D01*
X148261904Y-77307200D02*
X148309523Y-77259580D01*
X146738095Y-77354819D02*
X147309523Y-77354819D01*
X147023809Y-77354819D02*
X147023809Y-76354819D01*
X147023809Y-76354819D02*
X147119047Y-76497676D01*
X147119047Y-76497676D02*
X147214285Y-76592914D01*
X147214285Y-76592914D02*
X147309523Y-76640533D01*
X100366666Y-80554819D02*
X100699999Y-80078628D01*
X100938094Y-80554819D02*
X100938094Y-79554819D01*
X100938094Y-79554819D02*
X100557142Y-79554819D01*
X100557142Y-79554819D02*
X100461904Y-79602438D01*
X100461904Y-79602438D02*
X100414285Y-79650057D01*
X100414285Y-79650057D02*
X100366666Y-79745295D01*
X100366666Y-79745295D02*
X100366666Y-79888152D01*
X100366666Y-79888152D02*
X100414285Y-79983390D01*
X100414285Y-79983390D02*
X100461904Y-80031009D01*
X100461904Y-80031009D02*
X100557142Y-80078628D01*
X100557142Y-80078628D02*
X100938094Y-80078628D01*
X99461904Y-79554819D02*
X99938094Y-79554819D01*
X99938094Y-79554819D02*
X99985713Y-80031009D01*
X99985713Y-80031009D02*
X99938094Y-79983390D01*
X99938094Y-79983390D02*
X99842856Y-79935771D01*
X99842856Y-79935771D02*
X99604761Y-79935771D01*
X99604761Y-79935771D02*
X99509523Y-79983390D01*
X99509523Y-79983390D02*
X99461904Y-80031009D01*
X99461904Y-80031009D02*
X99414285Y-80126247D01*
X99414285Y-80126247D02*
X99414285Y-80364342D01*
X99414285Y-80364342D02*
X99461904Y-80459580D01*
X99461904Y-80459580D02*
X99509523Y-80507200D01*
X99509523Y-80507200D02*
X99604761Y-80554819D01*
X99604761Y-80554819D02*
X99842856Y-80554819D01*
X99842856Y-80554819D02*
X99938094Y-80507200D01*
X99938094Y-80507200D02*
X99985713Y-80459580D01*
X169842857Y-80559580D02*
X169890476Y-80607200D01*
X169890476Y-80607200D02*
X170033333Y-80654819D01*
X170033333Y-80654819D02*
X170128571Y-80654819D01*
X170128571Y-80654819D02*
X170271428Y-80607200D01*
X170271428Y-80607200D02*
X170366666Y-80511961D01*
X170366666Y-80511961D02*
X170414285Y-80416723D01*
X170414285Y-80416723D02*
X170461904Y-80226247D01*
X170461904Y-80226247D02*
X170461904Y-80083390D01*
X170461904Y-80083390D02*
X170414285Y-79892914D01*
X170414285Y-79892914D02*
X170366666Y-79797676D01*
X170366666Y-79797676D02*
X170271428Y-79702438D01*
X170271428Y-79702438D02*
X170128571Y-79654819D01*
X170128571Y-79654819D02*
X170033333Y-79654819D01*
X170033333Y-79654819D02*
X169890476Y-79702438D01*
X169890476Y-79702438D02*
X169842857Y-79750057D01*
X168890476Y-80654819D02*
X169461904Y-80654819D01*
X169176190Y-80654819D02*
X169176190Y-79654819D01*
X169176190Y-79654819D02*
X169271428Y-79797676D01*
X169271428Y-79797676D02*
X169366666Y-79892914D01*
X169366666Y-79892914D02*
X169461904Y-79940533D01*
X167985714Y-79654819D02*
X168461904Y-79654819D01*
X168461904Y-79654819D02*
X168509523Y-80131009D01*
X168509523Y-80131009D02*
X168461904Y-80083390D01*
X168461904Y-80083390D02*
X168366666Y-80035771D01*
X168366666Y-80035771D02*
X168128571Y-80035771D01*
X168128571Y-80035771D02*
X168033333Y-80083390D01*
X168033333Y-80083390D02*
X167985714Y-80131009D01*
X167985714Y-80131009D02*
X167938095Y-80226247D01*
X167938095Y-80226247D02*
X167938095Y-80464342D01*
X167938095Y-80464342D02*
X167985714Y-80559580D01*
X167985714Y-80559580D02*
X168033333Y-80607200D01*
X168033333Y-80607200D02*
X168128571Y-80654819D01*
X168128571Y-80654819D02*
X168366666Y-80654819D01*
X168366666Y-80654819D02*
X168461904Y-80607200D01*
X168461904Y-80607200D02*
X168509523Y-80559580D01*
X173742857Y-70359580D02*
X173790476Y-70407200D01*
X173790476Y-70407200D02*
X173933333Y-70454819D01*
X173933333Y-70454819D02*
X174028571Y-70454819D01*
X174028571Y-70454819D02*
X174171428Y-70407200D01*
X174171428Y-70407200D02*
X174266666Y-70311961D01*
X174266666Y-70311961D02*
X174314285Y-70216723D01*
X174314285Y-70216723D02*
X174361904Y-70026247D01*
X174361904Y-70026247D02*
X174361904Y-69883390D01*
X174361904Y-69883390D02*
X174314285Y-69692914D01*
X174314285Y-69692914D02*
X174266666Y-69597676D01*
X174266666Y-69597676D02*
X174171428Y-69502438D01*
X174171428Y-69502438D02*
X174028571Y-69454819D01*
X174028571Y-69454819D02*
X173933333Y-69454819D01*
X173933333Y-69454819D02*
X173790476Y-69502438D01*
X173790476Y-69502438D02*
X173742857Y-69550057D01*
X173409523Y-69454819D02*
X172790476Y-69454819D01*
X172790476Y-69454819D02*
X173123809Y-69835771D01*
X173123809Y-69835771D02*
X172980952Y-69835771D01*
X172980952Y-69835771D02*
X172885714Y-69883390D01*
X172885714Y-69883390D02*
X172838095Y-69931009D01*
X172838095Y-69931009D02*
X172790476Y-70026247D01*
X172790476Y-70026247D02*
X172790476Y-70264342D01*
X172790476Y-70264342D02*
X172838095Y-70359580D01*
X172838095Y-70359580D02*
X172885714Y-70407200D01*
X172885714Y-70407200D02*
X172980952Y-70454819D01*
X172980952Y-70454819D02*
X173266666Y-70454819D01*
X173266666Y-70454819D02*
X173361904Y-70407200D01*
X173361904Y-70407200D02*
X173409523Y-70359580D01*
X172409523Y-69550057D02*
X172361904Y-69502438D01*
X172361904Y-69502438D02*
X172266666Y-69454819D01*
X172266666Y-69454819D02*
X172028571Y-69454819D01*
X172028571Y-69454819D02*
X171933333Y-69502438D01*
X171933333Y-69502438D02*
X171885714Y-69550057D01*
X171885714Y-69550057D02*
X171838095Y-69645295D01*
X171838095Y-69645295D02*
X171838095Y-69740533D01*
X171838095Y-69740533D02*
X171885714Y-69883390D01*
X171885714Y-69883390D02*
X172457142Y-70454819D01*
X172457142Y-70454819D02*
X171838095Y-70454819D01*
X132642857Y-90254819D02*
X132976190Y-89778628D01*
X133214285Y-90254819D02*
X133214285Y-89254819D01*
X133214285Y-89254819D02*
X132833333Y-89254819D01*
X132833333Y-89254819D02*
X132738095Y-89302438D01*
X132738095Y-89302438D02*
X132690476Y-89350057D01*
X132690476Y-89350057D02*
X132642857Y-89445295D01*
X132642857Y-89445295D02*
X132642857Y-89588152D01*
X132642857Y-89588152D02*
X132690476Y-89683390D01*
X132690476Y-89683390D02*
X132738095Y-89731009D01*
X132738095Y-89731009D02*
X132833333Y-89778628D01*
X132833333Y-89778628D02*
X133214285Y-89778628D01*
X131690476Y-90254819D02*
X132261904Y-90254819D01*
X131976190Y-90254819D02*
X131976190Y-89254819D01*
X131976190Y-89254819D02*
X132071428Y-89397676D01*
X132071428Y-89397676D02*
X132166666Y-89492914D01*
X132166666Y-89492914D02*
X132261904Y-89540533D01*
X130785714Y-89254819D02*
X131261904Y-89254819D01*
X131261904Y-89254819D02*
X131309523Y-89731009D01*
X131309523Y-89731009D02*
X131261904Y-89683390D01*
X131261904Y-89683390D02*
X131166666Y-89635771D01*
X131166666Y-89635771D02*
X130928571Y-89635771D01*
X130928571Y-89635771D02*
X130833333Y-89683390D01*
X130833333Y-89683390D02*
X130785714Y-89731009D01*
X130785714Y-89731009D02*
X130738095Y-89826247D01*
X130738095Y-89826247D02*
X130738095Y-90064342D01*
X130738095Y-90064342D02*
X130785714Y-90159580D01*
X130785714Y-90159580D02*
X130833333Y-90207200D01*
X130833333Y-90207200D02*
X130928571Y-90254819D01*
X130928571Y-90254819D02*
X131166666Y-90254819D01*
X131166666Y-90254819D02*
X131261904Y-90207200D01*
X131261904Y-90207200D02*
X131309523Y-90159580D01*
X165042857Y-82659580D02*
X165090476Y-82707200D01*
X165090476Y-82707200D02*
X165233333Y-82754819D01*
X165233333Y-82754819D02*
X165328571Y-82754819D01*
X165328571Y-82754819D02*
X165471428Y-82707200D01*
X165471428Y-82707200D02*
X165566666Y-82611961D01*
X165566666Y-82611961D02*
X165614285Y-82516723D01*
X165614285Y-82516723D02*
X165661904Y-82326247D01*
X165661904Y-82326247D02*
X165661904Y-82183390D01*
X165661904Y-82183390D02*
X165614285Y-81992914D01*
X165614285Y-81992914D02*
X165566666Y-81897676D01*
X165566666Y-81897676D02*
X165471428Y-81802438D01*
X165471428Y-81802438D02*
X165328571Y-81754819D01*
X165328571Y-81754819D02*
X165233333Y-81754819D01*
X165233333Y-81754819D02*
X165090476Y-81802438D01*
X165090476Y-81802438D02*
X165042857Y-81850057D01*
X164661904Y-81850057D02*
X164614285Y-81802438D01*
X164614285Y-81802438D02*
X164519047Y-81754819D01*
X164519047Y-81754819D02*
X164280952Y-81754819D01*
X164280952Y-81754819D02*
X164185714Y-81802438D01*
X164185714Y-81802438D02*
X164138095Y-81850057D01*
X164138095Y-81850057D02*
X164090476Y-81945295D01*
X164090476Y-81945295D02*
X164090476Y-82040533D01*
X164090476Y-82040533D02*
X164138095Y-82183390D01*
X164138095Y-82183390D02*
X164709523Y-82754819D01*
X164709523Y-82754819D02*
X164090476Y-82754819D01*
X163709523Y-81850057D02*
X163661904Y-81802438D01*
X163661904Y-81802438D02*
X163566666Y-81754819D01*
X163566666Y-81754819D02*
X163328571Y-81754819D01*
X163328571Y-81754819D02*
X163233333Y-81802438D01*
X163233333Y-81802438D02*
X163185714Y-81850057D01*
X163185714Y-81850057D02*
X163138095Y-81945295D01*
X163138095Y-81945295D02*
X163138095Y-82040533D01*
X163138095Y-82040533D02*
X163185714Y-82183390D01*
X163185714Y-82183390D02*
X163757142Y-82754819D01*
X163757142Y-82754819D02*
X163138095Y-82754819D01*
X71524819Y-75182142D02*
X71048628Y-74848809D01*
X71524819Y-74610714D02*
X70524819Y-74610714D01*
X70524819Y-74610714D02*
X70524819Y-74991666D01*
X70524819Y-74991666D02*
X70572438Y-75086904D01*
X70572438Y-75086904D02*
X70620057Y-75134523D01*
X70620057Y-75134523D02*
X70715295Y-75182142D01*
X70715295Y-75182142D02*
X70858152Y-75182142D01*
X70858152Y-75182142D02*
X70953390Y-75134523D01*
X70953390Y-75134523D02*
X71001009Y-75086904D01*
X71001009Y-75086904D02*
X71048628Y-74991666D01*
X71048628Y-74991666D02*
X71048628Y-74610714D01*
X70524819Y-75515476D02*
X70524819Y-76134523D01*
X70524819Y-76134523D02*
X70905771Y-75801190D01*
X70905771Y-75801190D02*
X70905771Y-75944047D01*
X70905771Y-75944047D02*
X70953390Y-76039285D01*
X70953390Y-76039285D02*
X71001009Y-76086904D01*
X71001009Y-76086904D02*
X71096247Y-76134523D01*
X71096247Y-76134523D02*
X71334342Y-76134523D01*
X71334342Y-76134523D02*
X71429580Y-76086904D01*
X71429580Y-76086904D02*
X71477200Y-76039285D01*
X71477200Y-76039285D02*
X71524819Y-75944047D01*
X71524819Y-75944047D02*
X71524819Y-75658333D01*
X71524819Y-75658333D02*
X71477200Y-75563095D01*
X71477200Y-75563095D02*
X71429580Y-75515476D01*
X70858152Y-76991666D02*
X71524819Y-76991666D01*
X70477200Y-76753571D02*
X71191485Y-76515476D01*
X71191485Y-76515476D02*
X71191485Y-77134523D01*
X169842857Y-70359580D02*
X169890476Y-70407200D01*
X169890476Y-70407200D02*
X170033333Y-70454819D01*
X170033333Y-70454819D02*
X170128571Y-70454819D01*
X170128571Y-70454819D02*
X170271428Y-70407200D01*
X170271428Y-70407200D02*
X170366666Y-70311961D01*
X170366666Y-70311961D02*
X170414285Y-70216723D01*
X170414285Y-70216723D02*
X170461904Y-70026247D01*
X170461904Y-70026247D02*
X170461904Y-69883390D01*
X170461904Y-69883390D02*
X170414285Y-69692914D01*
X170414285Y-69692914D02*
X170366666Y-69597676D01*
X170366666Y-69597676D02*
X170271428Y-69502438D01*
X170271428Y-69502438D02*
X170128571Y-69454819D01*
X170128571Y-69454819D02*
X170033333Y-69454819D01*
X170033333Y-69454819D02*
X169890476Y-69502438D01*
X169890476Y-69502438D02*
X169842857Y-69550057D01*
X168890476Y-70454819D02*
X169461904Y-70454819D01*
X169176190Y-70454819D02*
X169176190Y-69454819D01*
X169176190Y-69454819D02*
X169271428Y-69597676D01*
X169271428Y-69597676D02*
X169366666Y-69692914D01*
X169366666Y-69692914D02*
X169461904Y-69740533D01*
X168033333Y-69454819D02*
X168223809Y-69454819D01*
X168223809Y-69454819D02*
X168319047Y-69502438D01*
X168319047Y-69502438D02*
X168366666Y-69550057D01*
X168366666Y-69550057D02*
X168461904Y-69692914D01*
X168461904Y-69692914D02*
X168509523Y-69883390D01*
X168509523Y-69883390D02*
X168509523Y-70264342D01*
X168509523Y-70264342D02*
X168461904Y-70359580D01*
X168461904Y-70359580D02*
X168414285Y-70407200D01*
X168414285Y-70407200D02*
X168319047Y-70454819D01*
X168319047Y-70454819D02*
X168128571Y-70454819D01*
X168128571Y-70454819D02*
X168033333Y-70407200D01*
X168033333Y-70407200D02*
X167985714Y-70359580D01*
X167985714Y-70359580D02*
X167938095Y-70264342D01*
X167938095Y-70264342D02*
X167938095Y-70026247D01*
X167938095Y-70026247D02*
X167985714Y-69931009D01*
X167985714Y-69931009D02*
X168033333Y-69883390D01*
X168033333Y-69883390D02*
X168128571Y-69835771D01*
X168128571Y-69835771D02*
X168319047Y-69835771D01*
X168319047Y-69835771D02*
X168414285Y-69883390D01*
X168414285Y-69883390D02*
X168461904Y-69931009D01*
X168461904Y-69931009D02*
X168509523Y-70026247D01*
X166842857Y-73859580D02*
X166890476Y-73907200D01*
X166890476Y-73907200D02*
X167033333Y-73954819D01*
X167033333Y-73954819D02*
X167128571Y-73954819D01*
X167128571Y-73954819D02*
X167271428Y-73907200D01*
X167271428Y-73907200D02*
X167366666Y-73811961D01*
X167366666Y-73811961D02*
X167414285Y-73716723D01*
X167414285Y-73716723D02*
X167461904Y-73526247D01*
X167461904Y-73526247D02*
X167461904Y-73383390D01*
X167461904Y-73383390D02*
X167414285Y-73192914D01*
X167414285Y-73192914D02*
X167366666Y-73097676D01*
X167366666Y-73097676D02*
X167271428Y-73002438D01*
X167271428Y-73002438D02*
X167128571Y-72954819D01*
X167128571Y-72954819D02*
X167033333Y-72954819D01*
X167033333Y-72954819D02*
X166890476Y-73002438D01*
X166890476Y-73002438D02*
X166842857Y-73050057D01*
X165890476Y-73954819D02*
X166461904Y-73954819D01*
X166176190Y-73954819D02*
X166176190Y-72954819D01*
X166176190Y-72954819D02*
X166271428Y-73097676D01*
X166271428Y-73097676D02*
X166366666Y-73192914D01*
X166366666Y-73192914D02*
X166461904Y-73240533D01*
X165557142Y-72954819D02*
X164890476Y-72954819D01*
X164890476Y-72954819D02*
X165319047Y-73954819D01*
X151767857Y-80659580D02*
X151815476Y-80707200D01*
X151815476Y-80707200D02*
X151958333Y-80754819D01*
X151958333Y-80754819D02*
X152053571Y-80754819D01*
X152053571Y-80754819D02*
X152196428Y-80707200D01*
X152196428Y-80707200D02*
X152291666Y-80611961D01*
X152291666Y-80611961D02*
X152339285Y-80516723D01*
X152339285Y-80516723D02*
X152386904Y-80326247D01*
X152386904Y-80326247D02*
X152386904Y-80183390D01*
X152386904Y-80183390D02*
X152339285Y-79992914D01*
X152339285Y-79992914D02*
X152291666Y-79897676D01*
X152291666Y-79897676D02*
X152196428Y-79802438D01*
X152196428Y-79802438D02*
X152053571Y-79754819D01*
X152053571Y-79754819D02*
X151958333Y-79754819D01*
X151958333Y-79754819D02*
X151815476Y-79802438D01*
X151815476Y-79802438D02*
X151767857Y-79850057D01*
X151434523Y-79754819D02*
X150815476Y-79754819D01*
X150815476Y-79754819D02*
X151148809Y-80135771D01*
X151148809Y-80135771D02*
X151005952Y-80135771D01*
X151005952Y-80135771D02*
X150910714Y-80183390D01*
X150910714Y-80183390D02*
X150863095Y-80231009D01*
X150863095Y-80231009D02*
X150815476Y-80326247D01*
X150815476Y-80326247D02*
X150815476Y-80564342D01*
X150815476Y-80564342D02*
X150863095Y-80659580D01*
X150863095Y-80659580D02*
X150910714Y-80707200D01*
X150910714Y-80707200D02*
X151005952Y-80754819D01*
X151005952Y-80754819D02*
X151291666Y-80754819D01*
X151291666Y-80754819D02*
X151386904Y-80707200D01*
X151386904Y-80707200D02*
X151434523Y-80659580D01*
X149958333Y-80088152D02*
X149958333Y-80754819D01*
X150196428Y-79707200D02*
X150434523Y-80421485D01*
X150434523Y-80421485D02*
X149815476Y-80421485D01*
X159042857Y-79159580D02*
X159090476Y-79207200D01*
X159090476Y-79207200D02*
X159233333Y-79254819D01*
X159233333Y-79254819D02*
X159328571Y-79254819D01*
X159328571Y-79254819D02*
X159471428Y-79207200D01*
X159471428Y-79207200D02*
X159566666Y-79111961D01*
X159566666Y-79111961D02*
X159614285Y-79016723D01*
X159614285Y-79016723D02*
X159661904Y-78826247D01*
X159661904Y-78826247D02*
X159661904Y-78683390D01*
X159661904Y-78683390D02*
X159614285Y-78492914D01*
X159614285Y-78492914D02*
X159566666Y-78397676D01*
X159566666Y-78397676D02*
X159471428Y-78302438D01*
X159471428Y-78302438D02*
X159328571Y-78254819D01*
X159328571Y-78254819D02*
X159233333Y-78254819D01*
X159233333Y-78254819D02*
X159090476Y-78302438D01*
X159090476Y-78302438D02*
X159042857Y-78350057D01*
X158661904Y-78350057D02*
X158614285Y-78302438D01*
X158614285Y-78302438D02*
X158519047Y-78254819D01*
X158519047Y-78254819D02*
X158280952Y-78254819D01*
X158280952Y-78254819D02*
X158185714Y-78302438D01*
X158185714Y-78302438D02*
X158138095Y-78350057D01*
X158138095Y-78350057D02*
X158090476Y-78445295D01*
X158090476Y-78445295D02*
X158090476Y-78540533D01*
X158090476Y-78540533D02*
X158138095Y-78683390D01*
X158138095Y-78683390D02*
X158709523Y-79254819D01*
X158709523Y-79254819D02*
X158090476Y-79254819D01*
X157757142Y-78254819D02*
X157090476Y-78254819D01*
X157090476Y-78254819D02*
X157519047Y-79254819D01*
X166842857Y-76959580D02*
X166890476Y-77007200D01*
X166890476Y-77007200D02*
X167033333Y-77054819D01*
X167033333Y-77054819D02*
X167128571Y-77054819D01*
X167128571Y-77054819D02*
X167271428Y-77007200D01*
X167271428Y-77007200D02*
X167366666Y-76911961D01*
X167366666Y-76911961D02*
X167414285Y-76816723D01*
X167414285Y-76816723D02*
X167461904Y-76626247D01*
X167461904Y-76626247D02*
X167461904Y-76483390D01*
X167461904Y-76483390D02*
X167414285Y-76292914D01*
X167414285Y-76292914D02*
X167366666Y-76197676D01*
X167366666Y-76197676D02*
X167271428Y-76102438D01*
X167271428Y-76102438D02*
X167128571Y-76054819D01*
X167128571Y-76054819D02*
X167033333Y-76054819D01*
X167033333Y-76054819D02*
X166890476Y-76102438D01*
X166890476Y-76102438D02*
X166842857Y-76150057D01*
X165890476Y-77054819D02*
X166461904Y-77054819D01*
X166176190Y-77054819D02*
X166176190Y-76054819D01*
X166176190Y-76054819D02*
X166271428Y-76197676D01*
X166271428Y-76197676D02*
X166366666Y-76292914D01*
X166366666Y-76292914D02*
X166461904Y-76340533D01*
X165319047Y-76483390D02*
X165414285Y-76435771D01*
X165414285Y-76435771D02*
X165461904Y-76388152D01*
X165461904Y-76388152D02*
X165509523Y-76292914D01*
X165509523Y-76292914D02*
X165509523Y-76245295D01*
X165509523Y-76245295D02*
X165461904Y-76150057D01*
X165461904Y-76150057D02*
X165414285Y-76102438D01*
X165414285Y-76102438D02*
X165319047Y-76054819D01*
X165319047Y-76054819D02*
X165128571Y-76054819D01*
X165128571Y-76054819D02*
X165033333Y-76102438D01*
X165033333Y-76102438D02*
X164985714Y-76150057D01*
X164985714Y-76150057D02*
X164938095Y-76245295D01*
X164938095Y-76245295D02*
X164938095Y-76292914D01*
X164938095Y-76292914D02*
X164985714Y-76388152D01*
X164985714Y-76388152D02*
X165033333Y-76435771D01*
X165033333Y-76435771D02*
X165128571Y-76483390D01*
X165128571Y-76483390D02*
X165319047Y-76483390D01*
X165319047Y-76483390D02*
X165414285Y-76531009D01*
X165414285Y-76531009D02*
X165461904Y-76578628D01*
X165461904Y-76578628D02*
X165509523Y-76673866D01*
X165509523Y-76673866D02*
X165509523Y-76864342D01*
X165509523Y-76864342D02*
X165461904Y-76959580D01*
X165461904Y-76959580D02*
X165414285Y-77007200D01*
X165414285Y-77007200D02*
X165319047Y-77054819D01*
X165319047Y-77054819D02*
X165128571Y-77054819D01*
X165128571Y-77054819D02*
X165033333Y-77007200D01*
X165033333Y-77007200D02*
X164985714Y-76959580D01*
X164985714Y-76959580D02*
X164938095Y-76864342D01*
X164938095Y-76864342D02*
X164938095Y-76673866D01*
X164938095Y-76673866D02*
X164985714Y-76578628D01*
X164985714Y-76578628D02*
X165033333Y-76531009D01*
X165033333Y-76531009D02*
X165128571Y-76483390D01*
X116866666Y-75554819D02*
X117199999Y-75078628D01*
X117438094Y-75554819D02*
X117438094Y-74554819D01*
X117438094Y-74554819D02*
X117057142Y-74554819D01*
X117057142Y-74554819D02*
X116961904Y-74602438D01*
X116961904Y-74602438D02*
X116914285Y-74650057D01*
X116914285Y-74650057D02*
X116866666Y-74745295D01*
X116866666Y-74745295D02*
X116866666Y-74888152D01*
X116866666Y-74888152D02*
X116914285Y-74983390D01*
X116914285Y-74983390D02*
X116961904Y-75031009D01*
X116961904Y-75031009D02*
X117057142Y-75078628D01*
X117057142Y-75078628D02*
X117438094Y-75078628D01*
X116390475Y-75554819D02*
X116199999Y-75554819D01*
X116199999Y-75554819D02*
X116104761Y-75507200D01*
X116104761Y-75507200D02*
X116057142Y-75459580D01*
X116057142Y-75459580D02*
X115961904Y-75316723D01*
X115961904Y-75316723D02*
X115914285Y-75126247D01*
X115914285Y-75126247D02*
X115914285Y-74745295D01*
X115914285Y-74745295D02*
X115961904Y-74650057D01*
X115961904Y-74650057D02*
X116009523Y-74602438D01*
X116009523Y-74602438D02*
X116104761Y-74554819D01*
X116104761Y-74554819D02*
X116295237Y-74554819D01*
X116295237Y-74554819D02*
X116390475Y-74602438D01*
X116390475Y-74602438D02*
X116438094Y-74650057D01*
X116438094Y-74650057D02*
X116485713Y-74745295D01*
X116485713Y-74745295D02*
X116485713Y-74983390D01*
X116485713Y-74983390D02*
X116438094Y-75078628D01*
X116438094Y-75078628D02*
X116390475Y-75126247D01*
X116390475Y-75126247D02*
X116295237Y-75173866D01*
X116295237Y-75173866D02*
X116104761Y-75173866D01*
X116104761Y-75173866D02*
X116009523Y-75126247D01*
X116009523Y-75126247D02*
X115961904Y-75078628D01*
X115961904Y-75078628D02*
X115914285Y-74983390D01*
X130342857Y-94154819D02*
X130676190Y-93678628D01*
X130914285Y-94154819D02*
X130914285Y-93154819D01*
X130914285Y-93154819D02*
X130533333Y-93154819D01*
X130533333Y-93154819D02*
X130438095Y-93202438D01*
X130438095Y-93202438D02*
X130390476Y-93250057D01*
X130390476Y-93250057D02*
X130342857Y-93345295D01*
X130342857Y-93345295D02*
X130342857Y-93488152D01*
X130342857Y-93488152D02*
X130390476Y-93583390D01*
X130390476Y-93583390D02*
X130438095Y-93631009D01*
X130438095Y-93631009D02*
X130533333Y-93678628D01*
X130533333Y-93678628D02*
X130914285Y-93678628D01*
X129390476Y-94154819D02*
X129961904Y-94154819D01*
X129676190Y-94154819D02*
X129676190Y-93154819D01*
X129676190Y-93154819D02*
X129771428Y-93297676D01*
X129771428Y-93297676D02*
X129866666Y-93392914D01*
X129866666Y-93392914D02*
X129961904Y-93440533D01*
X128533333Y-93488152D02*
X128533333Y-94154819D01*
X128771428Y-93107200D02*
X129009523Y-93821485D01*
X129009523Y-93821485D02*
X128390476Y-93821485D01*
X158942857Y-77359580D02*
X158990476Y-77407200D01*
X158990476Y-77407200D02*
X159133333Y-77454819D01*
X159133333Y-77454819D02*
X159228571Y-77454819D01*
X159228571Y-77454819D02*
X159371428Y-77407200D01*
X159371428Y-77407200D02*
X159466666Y-77311961D01*
X159466666Y-77311961D02*
X159514285Y-77216723D01*
X159514285Y-77216723D02*
X159561904Y-77026247D01*
X159561904Y-77026247D02*
X159561904Y-76883390D01*
X159561904Y-76883390D02*
X159514285Y-76692914D01*
X159514285Y-76692914D02*
X159466666Y-76597676D01*
X159466666Y-76597676D02*
X159371428Y-76502438D01*
X159371428Y-76502438D02*
X159228571Y-76454819D01*
X159228571Y-76454819D02*
X159133333Y-76454819D01*
X159133333Y-76454819D02*
X158990476Y-76502438D01*
X158990476Y-76502438D02*
X158942857Y-76550057D01*
X158561904Y-76550057D02*
X158514285Y-76502438D01*
X158514285Y-76502438D02*
X158419047Y-76454819D01*
X158419047Y-76454819D02*
X158180952Y-76454819D01*
X158180952Y-76454819D02*
X158085714Y-76502438D01*
X158085714Y-76502438D02*
X158038095Y-76550057D01*
X158038095Y-76550057D02*
X157990476Y-76645295D01*
X157990476Y-76645295D02*
X157990476Y-76740533D01*
X157990476Y-76740533D02*
X158038095Y-76883390D01*
X158038095Y-76883390D02*
X158609523Y-77454819D01*
X158609523Y-77454819D02*
X157990476Y-77454819D01*
X157133333Y-76454819D02*
X157323809Y-76454819D01*
X157323809Y-76454819D02*
X157419047Y-76502438D01*
X157419047Y-76502438D02*
X157466666Y-76550057D01*
X157466666Y-76550057D02*
X157561904Y-76692914D01*
X157561904Y-76692914D02*
X157609523Y-76883390D01*
X157609523Y-76883390D02*
X157609523Y-77264342D01*
X157609523Y-77264342D02*
X157561904Y-77359580D01*
X157561904Y-77359580D02*
X157514285Y-77407200D01*
X157514285Y-77407200D02*
X157419047Y-77454819D01*
X157419047Y-77454819D02*
X157228571Y-77454819D01*
X157228571Y-77454819D02*
X157133333Y-77407200D01*
X157133333Y-77407200D02*
X157085714Y-77359580D01*
X157085714Y-77359580D02*
X157038095Y-77264342D01*
X157038095Y-77264342D02*
X157038095Y-77026247D01*
X157038095Y-77026247D02*
X157085714Y-76931009D01*
X157085714Y-76931009D02*
X157133333Y-76883390D01*
X157133333Y-76883390D02*
X157228571Y-76835771D01*
X157228571Y-76835771D02*
X157419047Y-76835771D01*
X157419047Y-76835771D02*
X157514285Y-76883390D01*
X157514285Y-76883390D02*
X157561904Y-76931009D01*
X157561904Y-76931009D02*
X157609523Y-77026247D01*
X151142857Y-73559580D02*
X151190476Y-73607200D01*
X151190476Y-73607200D02*
X151333333Y-73654819D01*
X151333333Y-73654819D02*
X151428571Y-73654819D01*
X151428571Y-73654819D02*
X151571428Y-73607200D01*
X151571428Y-73607200D02*
X151666666Y-73511961D01*
X151666666Y-73511961D02*
X151714285Y-73416723D01*
X151714285Y-73416723D02*
X151761904Y-73226247D01*
X151761904Y-73226247D02*
X151761904Y-73083390D01*
X151761904Y-73083390D02*
X151714285Y-72892914D01*
X151714285Y-72892914D02*
X151666666Y-72797676D01*
X151666666Y-72797676D02*
X151571428Y-72702438D01*
X151571428Y-72702438D02*
X151428571Y-72654819D01*
X151428571Y-72654819D02*
X151333333Y-72654819D01*
X151333333Y-72654819D02*
X151190476Y-72702438D01*
X151190476Y-72702438D02*
X151142857Y-72750057D01*
X150761904Y-72750057D02*
X150714285Y-72702438D01*
X150714285Y-72702438D02*
X150619047Y-72654819D01*
X150619047Y-72654819D02*
X150380952Y-72654819D01*
X150380952Y-72654819D02*
X150285714Y-72702438D01*
X150285714Y-72702438D02*
X150238095Y-72750057D01*
X150238095Y-72750057D02*
X150190476Y-72845295D01*
X150190476Y-72845295D02*
X150190476Y-72940533D01*
X150190476Y-72940533D02*
X150238095Y-73083390D01*
X150238095Y-73083390D02*
X150809523Y-73654819D01*
X150809523Y-73654819D02*
X150190476Y-73654819D01*
X149619047Y-73083390D02*
X149714285Y-73035771D01*
X149714285Y-73035771D02*
X149761904Y-72988152D01*
X149761904Y-72988152D02*
X149809523Y-72892914D01*
X149809523Y-72892914D02*
X149809523Y-72845295D01*
X149809523Y-72845295D02*
X149761904Y-72750057D01*
X149761904Y-72750057D02*
X149714285Y-72702438D01*
X149714285Y-72702438D02*
X149619047Y-72654819D01*
X149619047Y-72654819D02*
X149428571Y-72654819D01*
X149428571Y-72654819D02*
X149333333Y-72702438D01*
X149333333Y-72702438D02*
X149285714Y-72750057D01*
X149285714Y-72750057D02*
X149238095Y-72845295D01*
X149238095Y-72845295D02*
X149238095Y-72892914D01*
X149238095Y-72892914D02*
X149285714Y-72988152D01*
X149285714Y-72988152D02*
X149333333Y-73035771D01*
X149333333Y-73035771D02*
X149428571Y-73083390D01*
X149428571Y-73083390D02*
X149619047Y-73083390D01*
X149619047Y-73083390D02*
X149714285Y-73131009D01*
X149714285Y-73131009D02*
X149761904Y-73178628D01*
X149761904Y-73178628D02*
X149809523Y-73273866D01*
X149809523Y-73273866D02*
X149809523Y-73464342D01*
X149809523Y-73464342D02*
X149761904Y-73559580D01*
X149761904Y-73559580D02*
X149714285Y-73607200D01*
X149714285Y-73607200D02*
X149619047Y-73654819D01*
X149619047Y-73654819D02*
X149428571Y-73654819D01*
X149428571Y-73654819D02*
X149333333Y-73607200D01*
X149333333Y-73607200D02*
X149285714Y-73559580D01*
X149285714Y-73559580D02*
X149238095Y-73464342D01*
X149238095Y-73464342D02*
X149238095Y-73273866D01*
X149238095Y-73273866D02*
X149285714Y-73178628D01*
X149285714Y-73178628D02*
X149333333Y-73131009D01*
X149333333Y-73131009D02*
X149428571Y-73083390D01*
X46259580Y-109233333D02*
X46307200Y-109185714D01*
X46307200Y-109185714D02*
X46354819Y-109042857D01*
X46354819Y-109042857D02*
X46354819Y-108947619D01*
X46354819Y-108947619D02*
X46307200Y-108804762D01*
X46307200Y-108804762D02*
X46211961Y-108709524D01*
X46211961Y-108709524D02*
X46116723Y-108661905D01*
X46116723Y-108661905D02*
X45926247Y-108614286D01*
X45926247Y-108614286D02*
X45783390Y-108614286D01*
X45783390Y-108614286D02*
X45592914Y-108661905D01*
X45592914Y-108661905D02*
X45497676Y-108709524D01*
X45497676Y-108709524D02*
X45402438Y-108804762D01*
X45402438Y-108804762D02*
X45354819Y-108947619D01*
X45354819Y-108947619D02*
X45354819Y-109042857D01*
X45354819Y-109042857D02*
X45402438Y-109185714D01*
X45402438Y-109185714D02*
X45450057Y-109233333D01*
X45354819Y-109566667D02*
X45354819Y-110233333D01*
X45354819Y-110233333D02*
X46354819Y-109804762D01*
X157824819Y-101057142D02*
X157348628Y-100723809D01*
X157824819Y-100485714D02*
X156824819Y-100485714D01*
X156824819Y-100485714D02*
X156824819Y-100866666D01*
X156824819Y-100866666D02*
X156872438Y-100961904D01*
X156872438Y-100961904D02*
X156920057Y-101009523D01*
X156920057Y-101009523D02*
X157015295Y-101057142D01*
X157015295Y-101057142D02*
X157158152Y-101057142D01*
X157158152Y-101057142D02*
X157253390Y-101009523D01*
X157253390Y-101009523D02*
X157301009Y-100961904D01*
X157301009Y-100961904D02*
X157348628Y-100866666D01*
X157348628Y-100866666D02*
X157348628Y-100485714D01*
X156824819Y-101390476D02*
X156824819Y-102009523D01*
X156824819Y-102009523D02*
X157205771Y-101676190D01*
X157205771Y-101676190D02*
X157205771Y-101819047D01*
X157205771Y-101819047D02*
X157253390Y-101914285D01*
X157253390Y-101914285D02*
X157301009Y-101961904D01*
X157301009Y-101961904D02*
X157396247Y-102009523D01*
X157396247Y-102009523D02*
X157634342Y-102009523D01*
X157634342Y-102009523D02*
X157729580Y-101961904D01*
X157729580Y-101961904D02*
X157777200Y-101914285D01*
X157777200Y-101914285D02*
X157824819Y-101819047D01*
X157824819Y-101819047D02*
X157824819Y-101533333D01*
X157824819Y-101533333D02*
X157777200Y-101438095D01*
X157777200Y-101438095D02*
X157729580Y-101390476D01*
X156920057Y-102390476D02*
X156872438Y-102438095D01*
X156872438Y-102438095D02*
X156824819Y-102533333D01*
X156824819Y-102533333D02*
X156824819Y-102771428D01*
X156824819Y-102771428D02*
X156872438Y-102866666D01*
X156872438Y-102866666D02*
X156920057Y-102914285D01*
X156920057Y-102914285D02*
X157015295Y-102961904D01*
X157015295Y-102961904D02*
X157110533Y-102961904D01*
X157110533Y-102961904D02*
X157253390Y-102914285D01*
X157253390Y-102914285D02*
X157824819Y-102342857D01*
X157824819Y-102342857D02*
X157824819Y-102961904D01*
X82884819Y-72057142D02*
X82408628Y-71723809D01*
X82884819Y-71485714D02*
X81884819Y-71485714D01*
X81884819Y-71485714D02*
X81884819Y-71866666D01*
X81884819Y-71866666D02*
X81932438Y-71961904D01*
X81932438Y-71961904D02*
X81980057Y-72009523D01*
X81980057Y-72009523D02*
X82075295Y-72057142D01*
X82075295Y-72057142D02*
X82218152Y-72057142D01*
X82218152Y-72057142D02*
X82313390Y-72009523D01*
X82313390Y-72009523D02*
X82361009Y-71961904D01*
X82361009Y-71961904D02*
X82408628Y-71866666D01*
X82408628Y-71866666D02*
X82408628Y-71485714D01*
X81884819Y-72390476D02*
X81884819Y-73009523D01*
X81884819Y-73009523D02*
X82265771Y-72676190D01*
X82265771Y-72676190D02*
X82265771Y-72819047D01*
X82265771Y-72819047D02*
X82313390Y-72914285D01*
X82313390Y-72914285D02*
X82361009Y-72961904D01*
X82361009Y-72961904D02*
X82456247Y-73009523D01*
X82456247Y-73009523D02*
X82694342Y-73009523D01*
X82694342Y-73009523D02*
X82789580Y-72961904D01*
X82789580Y-72961904D02*
X82837200Y-72914285D01*
X82837200Y-72914285D02*
X82884819Y-72819047D01*
X82884819Y-72819047D02*
X82884819Y-72533333D01*
X82884819Y-72533333D02*
X82837200Y-72438095D01*
X82837200Y-72438095D02*
X82789580Y-72390476D01*
X81884819Y-73866666D02*
X81884819Y-73676190D01*
X81884819Y-73676190D02*
X81932438Y-73580952D01*
X81932438Y-73580952D02*
X81980057Y-73533333D01*
X81980057Y-73533333D02*
X82122914Y-73438095D01*
X82122914Y-73438095D02*
X82313390Y-73390476D01*
X82313390Y-73390476D02*
X82694342Y-73390476D01*
X82694342Y-73390476D02*
X82789580Y-73438095D01*
X82789580Y-73438095D02*
X82837200Y-73485714D01*
X82837200Y-73485714D02*
X82884819Y-73580952D01*
X82884819Y-73580952D02*
X82884819Y-73771428D01*
X82884819Y-73771428D02*
X82837200Y-73866666D01*
X82837200Y-73866666D02*
X82789580Y-73914285D01*
X82789580Y-73914285D02*
X82694342Y-73961904D01*
X82694342Y-73961904D02*
X82456247Y-73961904D01*
X82456247Y-73961904D02*
X82361009Y-73914285D01*
X82361009Y-73914285D02*
X82313390Y-73866666D01*
X82313390Y-73866666D02*
X82265771Y-73771428D01*
X82265771Y-73771428D02*
X82265771Y-73580952D01*
X82265771Y-73580952D02*
X82313390Y-73485714D01*
X82313390Y-73485714D02*
X82361009Y-73438095D01*
X82361009Y-73438095D02*
X82456247Y-73390476D01*
X127842857Y-89054819D02*
X128176190Y-88578628D01*
X128414285Y-89054819D02*
X128414285Y-88054819D01*
X128414285Y-88054819D02*
X128033333Y-88054819D01*
X128033333Y-88054819D02*
X127938095Y-88102438D01*
X127938095Y-88102438D02*
X127890476Y-88150057D01*
X127890476Y-88150057D02*
X127842857Y-88245295D01*
X127842857Y-88245295D02*
X127842857Y-88388152D01*
X127842857Y-88388152D02*
X127890476Y-88483390D01*
X127890476Y-88483390D02*
X127938095Y-88531009D01*
X127938095Y-88531009D02*
X128033333Y-88578628D01*
X128033333Y-88578628D02*
X128414285Y-88578628D01*
X126890476Y-89054819D02*
X127461904Y-89054819D01*
X127176190Y-89054819D02*
X127176190Y-88054819D01*
X127176190Y-88054819D02*
X127271428Y-88197676D01*
X127271428Y-88197676D02*
X127366666Y-88292914D01*
X127366666Y-88292914D02*
X127461904Y-88340533D01*
X126557142Y-88054819D02*
X125938095Y-88054819D01*
X125938095Y-88054819D02*
X126271428Y-88435771D01*
X126271428Y-88435771D02*
X126128571Y-88435771D01*
X126128571Y-88435771D02*
X126033333Y-88483390D01*
X126033333Y-88483390D02*
X125985714Y-88531009D01*
X125985714Y-88531009D02*
X125938095Y-88626247D01*
X125938095Y-88626247D02*
X125938095Y-88864342D01*
X125938095Y-88864342D02*
X125985714Y-88959580D01*
X125985714Y-88959580D02*
X126033333Y-89007200D01*
X126033333Y-89007200D02*
X126128571Y-89054819D01*
X126128571Y-89054819D02*
X126414285Y-89054819D01*
X126414285Y-89054819D02*
X126509523Y-89007200D01*
X126509523Y-89007200D02*
X126557142Y-88959580D01*
X102966666Y-81554819D02*
X103299999Y-81078628D01*
X103538094Y-81554819D02*
X103538094Y-80554819D01*
X103538094Y-80554819D02*
X103157142Y-80554819D01*
X103157142Y-80554819D02*
X103061904Y-80602438D01*
X103061904Y-80602438D02*
X103014285Y-80650057D01*
X103014285Y-80650057D02*
X102966666Y-80745295D01*
X102966666Y-80745295D02*
X102966666Y-80888152D01*
X102966666Y-80888152D02*
X103014285Y-80983390D01*
X103014285Y-80983390D02*
X103061904Y-81031009D01*
X103061904Y-81031009D02*
X103157142Y-81078628D01*
X103157142Y-81078628D02*
X103538094Y-81078628D01*
X102109523Y-80554819D02*
X102299999Y-80554819D01*
X102299999Y-80554819D02*
X102395237Y-80602438D01*
X102395237Y-80602438D02*
X102442856Y-80650057D01*
X102442856Y-80650057D02*
X102538094Y-80792914D01*
X102538094Y-80792914D02*
X102585713Y-80983390D01*
X102585713Y-80983390D02*
X102585713Y-81364342D01*
X102585713Y-81364342D02*
X102538094Y-81459580D01*
X102538094Y-81459580D02*
X102490475Y-81507200D01*
X102490475Y-81507200D02*
X102395237Y-81554819D01*
X102395237Y-81554819D02*
X102204761Y-81554819D01*
X102204761Y-81554819D02*
X102109523Y-81507200D01*
X102109523Y-81507200D02*
X102061904Y-81459580D01*
X102061904Y-81459580D02*
X102014285Y-81364342D01*
X102014285Y-81364342D02*
X102014285Y-81126247D01*
X102014285Y-81126247D02*
X102061904Y-81031009D01*
X102061904Y-81031009D02*
X102109523Y-80983390D01*
X102109523Y-80983390D02*
X102204761Y-80935771D01*
X102204761Y-80935771D02*
X102395237Y-80935771D01*
X102395237Y-80935771D02*
X102490475Y-80983390D01*
X102490475Y-80983390D02*
X102538094Y-81031009D01*
X102538094Y-81031009D02*
X102585713Y-81126247D01*
X155842857Y-70229580D02*
X155890476Y-70277200D01*
X155890476Y-70277200D02*
X156033333Y-70324819D01*
X156033333Y-70324819D02*
X156128571Y-70324819D01*
X156128571Y-70324819D02*
X156271428Y-70277200D01*
X156271428Y-70277200D02*
X156366666Y-70181961D01*
X156366666Y-70181961D02*
X156414285Y-70086723D01*
X156414285Y-70086723D02*
X156461904Y-69896247D01*
X156461904Y-69896247D02*
X156461904Y-69753390D01*
X156461904Y-69753390D02*
X156414285Y-69562914D01*
X156414285Y-69562914D02*
X156366666Y-69467676D01*
X156366666Y-69467676D02*
X156271428Y-69372438D01*
X156271428Y-69372438D02*
X156128571Y-69324819D01*
X156128571Y-69324819D02*
X156033333Y-69324819D01*
X156033333Y-69324819D02*
X155890476Y-69372438D01*
X155890476Y-69372438D02*
X155842857Y-69420057D01*
X154890476Y-70324819D02*
X155461904Y-70324819D01*
X155176190Y-70324819D02*
X155176190Y-69324819D01*
X155176190Y-69324819D02*
X155271428Y-69467676D01*
X155271428Y-69467676D02*
X155366666Y-69562914D01*
X155366666Y-69562914D02*
X155461904Y-69610533D01*
X154509523Y-69420057D02*
X154461904Y-69372438D01*
X154461904Y-69372438D02*
X154366666Y-69324819D01*
X154366666Y-69324819D02*
X154128571Y-69324819D01*
X154128571Y-69324819D02*
X154033333Y-69372438D01*
X154033333Y-69372438D02*
X153985714Y-69420057D01*
X153985714Y-69420057D02*
X153938095Y-69515295D01*
X153938095Y-69515295D02*
X153938095Y-69610533D01*
X153938095Y-69610533D02*
X153985714Y-69753390D01*
X153985714Y-69753390D02*
X154557142Y-70324819D01*
X154557142Y-70324819D02*
X153938095Y-70324819D01*
X119842857Y-79854819D02*
X120176190Y-79378628D01*
X120414285Y-79854819D02*
X120414285Y-78854819D01*
X120414285Y-78854819D02*
X120033333Y-78854819D01*
X120033333Y-78854819D02*
X119938095Y-78902438D01*
X119938095Y-78902438D02*
X119890476Y-78950057D01*
X119890476Y-78950057D02*
X119842857Y-79045295D01*
X119842857Y-79045295D02*
X119842857Y-79188152D01*
X119842857Y-79188152D02*
X119890476Y-79283390D01*
X119890476Y-79283390D02*
X119938095Y-79331009D01*
X119938095Y-79331009D02*
X120033333Y-79378628D01*
X120033333Y-79378628D02*
X120414285Y-79378628D01*
X118890476Y-79854819D02*
X119461904Y-79854819D01*
X119176190Y-79854819D02*
X119176190Y-78854819D01*
X119176190Y-78854819D02*
X119271428Y-78997676D01*
X119271428Y-78997676D02*
X119366666Y-79092914D01*
X119366666Y-79092914D02*
X119461904Y-79140533D01*
X118271428Y-78854819D02*
X118176190Y-78854819D01*
X118176190Y-78854819D02*
X118080952Y-78902438D01*
X118080952Y-78902438D02*
X118033333Y-78950057D01*
X118033333Y-78950057D02*
X117985714Y-79045295D01*
X117985714Y-79045295D02*
X117938095Y-79235771D01*
X117938095Y-79235771D02*
X117938095Y-79473866D01*
X117938095Y-79473866D02*
X117985714Y-79664342D01*
X117985714Y-79664342D02*
X118033333Y-79759580D01*
X118033333Y-79759580D02*
X118080952Y-79807200D01*
X118080952Y-79807200D02*
X118176190Y-79854819D01*
X118176190Y-79854819D02*
X118271428Y-79854819D01*
X118271428Y-79854819D02*
X118366666Y-79807200D01*
X118366666Y-79807200D02*
X118414285Y-79759580D01*
X118414285Y-79759580D02*
X118461904Y-79664342D01*
X118461904Y-79664342D02*
X118509523Y-79473866D01*
X118509523Y-79473866D02*
X118509523Y-79235771D01*
X118509523Y-79235771D02*
X118461904Y-79045295D01*
X118461904Y-79045295D02*
X118414285Y-78950057D01*
X118414285Y-78950057D02*
X118366666Y-78902438D01*
X118366666Y-78902438D02*
X118271428Y-78854819D01*
X173742857Y-80659580D02*
X173790476Y-80707200D01*
X173790476Y-80707200D02*
X173933333Y-80754819D01*
X173933333Y-80754819D02*
X174028571Y-80754819D01*
X174028571Y-80754819D02*
X174171428Y-80707200D01*
X174171428Y-80707200D02*
X174266666Y-80611961D01*
X174266666Y-80611961D02*
X174314285Y-80516723D01*
X174314285Y-80516723D02*
X174361904Y-80326247D01*
X174361904Y-80326247D02*
X174361904Y-80183390D01*
X174361904Y-80183390D02*
X174314285Y-79992914D01*
X174314285Y-79992914D02*
X174266666Y-79897676D01*
X174266666Y-79897676D02*
X174171428Y-79802438D01*
X174171428Y-79802438D02*
X174028571Y-79754819D01*
X174028571Y-79754819D02*
X173933333Y-79754819D01*
X173933333Y-79754819D02*
X173790476Y-79802438D01*
X173790476Y-79802438D02*
X173742857Y-79850057D01*
X173361904Y-79850057D02*
X173314285Y-79802438D01*
X173314285Y-79802438D02*
X173219047Y-79754819D01*
X173219047Y-79754819D02*
X172980952Y-79754819D01*
X172980952Y-79754819D02*
X172885714Y-79802438D01*
X172885714Y-79802438D02*
X172838095Y-79850057D01*
X172838095Y-79850057D02*
X172790476Y-79945295D01*
X172790476Y-79945295D02*
X172790476Y-80040533D01*
X172790476Y-80040533D02*
X172838095Y-80183390D01*
X172838095Y-80183390D02*
X173409523Y-80754819D01*
X173409523Y-80754819D02*
X172790476Y-80754819D01*
X172314285Y-80754819D02*
X172123809Y-80754819D01*
X172123809Y-80754819D02*
X172028571Y-80707200D01*
X172028571Y-80707200D02*
X171980952Y-80659580D01*
X171980952Y-80659580D02*
X171885714Y-80516723D01*
X171885714Y-80516723D02*
X171838095Y-80326247D01*
X171838095Y-80326247D02*
X171838095Y-79945295D01*
X171838095Y-79945295D02*
X171885714Y-79850057D01*
X171885714Y-79850057D02*
X171933333Y-79802438D01*
X171933333Y-79802438D02*
X172028571Y-79754819D01*
X172028571Y-79754819D02*
X172219047Y-79754819D01*
X172219047Y-79754819D02*
X172314285Y-79802438D01*
X172314285Y-79802438D02*
X172361904Y-79850057D01*
X172361904Y-79850057D02*
X172409523Y-79945295D01*
X172409523Y-79945295D02*
X172409523Y-80183390D01*
X172409523Y-80183390D02*
X172361904Y-80278628D01*
X172361904Y-80278628D02*
X172314285Y-80326247D01*
X172314285Y-80326247D02*
X172219047Y-80373866D01*
X172219047Y-80373866D02*
X172028571Y-80373866D01*
X172028571Y-80373866D02*
X171933333Y-80326247D01*
X171933333Y-80326247D02*
X171885714Y-80278628D01*
X171885714Y-80278628D02*
X171838095Y-80183390D01*
X160242857Y-64759580D02*
X160290476Y-64807200D01*
X160290476Y-64807200D02*
X160433333Y-64854819D01*
X160433333Y-64854819D02*
X160528571Y-64854819D01*
X160528571Y-64854819D02*
X160671428Y-64807200D01*
X160671428Y-64807200D02*
X160766666Y-64711961D01*
X160766666Y-64711961D02*
X160814285Y-64616723D01*
X160814285Y-64616723D02*
X160861904Y-64426247D01*
X160861904Y-64426247D02*
X160861904Y-64283390D01*
X160861904Y-64283390D02*
X160814285Y-64092914D01*
X160814285Y-64092914D02*
X160766666Y-63997676D01*
X160766666Y-63997676D02*
X160671428Y-63902438D01*
X160671428Y-63902438D02*
X160528571Y-63854819D01*
X160528571Y-63854819D02*
X160433333Y-63854819D01*
X160433333Y-63854819D02*
X160290476Y-63902438D01*
X160290476Y-63902438D02*
X160242857Y-63950057D01*
X159290476Y-64854819D02*
X159861904Y-64854819D01*
X159576190Y-64854819D02*
X159576190Y-63854819D01*
X159576190Y-63854819D02*
X159671428Y-63997676D01*
X159671428Y-63997676D02*
X159766666Y-64092914D01*
X159766666Y-64092914D02*
X159861904Y-64140533D01*
X158814285Y-64854819D02*
X158623809Y-64854819D01*
X158623809Y-64854819D02*
X158528571Y-64807200D01*
X158528571Y-64807200D02*
X158480952Y-64759580D01*
X158480952Y-64759580D02*
X158385714Y-64616723D01*
X158385714Y-64616723D02*
X158338095Y-64426247D01*
X158338095Y-64426247D02*
X158338095Y-64045295D01*
X158338095Y-64045295D02*
X158385714Y-63950057D01*
X158385714Y-63950057D02*
X158433333Y-63902438D01*
X158433333Y-63902438D02*
X158528571Y-63854819D01*
X158528571Y-63854819D02*
X158719047Y-63854819D01*
X158719047Y-63854819D02*
X158814285Y-63902438D01*
X158814285Y-63902438D02*
X158861904Y-63950057D01*
X158861904Y-63950057D02*
X158909523Y-64045295D01*
X158909523Y-64045295D02*
X158909523Y-64283390D01*
X158909523Y-64283390D02*
X158861904Y-64378628D01*
X158861904Y-64378628D02*
X158814285Y-64426247D01*
X158814285Y-64426247D02*
X158719047Y-64473866D01*
X158719047Y-64473866D02*
X158528571Y-64473866D01*
X158528571Y-64473866D02*
X158433333Y-64426247D01*
X158433333Y-64426247D02*
X158385714Y-64378628D01*
X158385714Y-64378628D02*
X158338095Y-64283390D01*
X176742857Y-76859580D02*
X176790476Y-76907200D01*
X176790476Y-76907200D02*
X176933333Y-76954819D01*
X176933333Y-76954819D02*
X177028571Y-76954819D01*
X177028571Y-76954819D02*
X177171428Y-76907200D01*
X177171428Y-76907200D02*
X177266666Y-76811961D01*
X177266666Y-76811961D02*
X177314285Y-76716723D01*
X177314285Y-76716723D02*
X177361904Y-76526247D01*
X177361904Y-76526247D02*
X177361904Y-76383390D01*
X177361904Y-76383390D02*
X177314285Y-76192914D01*
X177314285Y-76192914D02*
X177266666Y-76097676D01*
X177266666Y-76097676D02*
X177171428Y-76002438D01*
X177171428Y-76002438D02*
X177028571Y-75954819D01*
X177028571Y-75954819D02*
X176933333Y-75954819D01*
X176933333Y-75954819D02*
X176790476Y-76002438D01*
X176790476Y-76002438D02*
X176742857Y-76050057D01*
X176409523Y-75954819D02*
X175790476Y-75954819D01*
X175790476Y-75954819D02*
X176123809Y-76335771D01*
X176123809Y-76335771D02*
X175980952Y-76335771D01*
X175980952Y-76335771D02*
X175885714Y-76383390D01*
X175885714Y-76383390D02*
X175838095Y-76431009D01*
X175838095Y-76431009D02*
X175790476Y-76526247D01*
X175790476Y-76526247D02*
X175790476Y-76764342D01*
X175790476Y-76764342D02*
X175838095Y-76859580D01*
X175838095Y-76859580D02*
X175885714Y-76907200D01*
X175885714Y-76907200D02*
X175980952Y-76954819D01*
X175980952Y-76954819D02*
X176266666Y-76954819D01*
X176266666Y-76954819D02*
X176361904Y-76907200D01*
X176361904Y-76907200D02*
X176409523Y-76859580D01*
X174885714Y-75954819D02*
X175361904Y-75954819D01*
X175361904Y-75954819D02*
X175409523Y-76431009D01*
X175409523Y-76431009D02*
X175361904Y-76383390D01*
X175361904Y-76383390D02*
X175266666Y-76335771D01*
X175266666Y-76335771D02*
X175028571Y-76335771D01*
X175028571Y-76335771D02*
X174933333Y-76383390D01*
X174933333Y-76383390D02*
X174885714Y-76431009D01*
X174885714Y-76431009D02*
X174838095Y-76526247D01*
X174838095Y-76526247D02*
X174838095Y-76764342D01*
X174838095Y-76764342D02*
X174885714Y-76859580D01*
X174885714Y-76859580D02*
X174933333Y-76907200D01*
X174933333Y-76907200D02*
X175028571Y-76954819D01*
X175028571Y-76954819D02*
X175266666Y-76954819D01*
X175266666Y-76954819D02*
X175361904Y-76907200D01*
X175361904Y-76907200D02*
X175409523Y-76859580D01*
X176742857Y-73959580D02*
X176790476Y-74007200D01*
X176790476Y-74007200D02*
X176933333Y-74054819D01*
X176933333Y-74054819D02*
X177028571Y-74054819D01*
X177028571Y-74054819D02*
X177171428Y-74007200D01*
X177171428Y-74007200D02*
X177266666Y-73911961D01*
X177266666Y-73911961D02*
X177314285Y-73816723D01*
X177314285Y-73816723D02*
X177361904Y-73626247D01*
X177361904Y-73626247D02*
X177361904Y-73483390D01*
X177361904Y-73483390D02*
X177314285Y-73292914D01*
X177314285Y-73292914D02*
X177266666Y-73197676D01*
X177266666Y-73197676D02*
X177171428Y-73102438D01*
X177171428Y-73102438D02*
X177028571Y-73054819D01*
X177028571Y-73054819D02*
X176933333Y-73054819D01*
X176933333Y-73054819D02*
X176790476Y-73102438D01*
X176790476Y-73102438D02*
X176742857Y-73150057D01*
X176409523Y-73054819D02*
X175790476Y-73054819D01*
X175790476Y-73054819D02*
X176123809Y-73435771D01*
X176123809Y-73435771D02*
X175980952Y-73435771D01*
X175980952Y-73435771D02*
X175885714Y-73483390D01*
X175885714Y-73483390D02*
X175838095Y-73531009D01*
X175838095Y-73531009D02*
X175790476Y-73626247D01*
X175790476Y-73626247D02*
X175790476Y-73864342D01*
X175790476Y-73864342D02*
X175838095Y-73959580D01*
X175838095Y-73959580D02*
X175885714Y-74007200D01*
X175885714Y-74007200D02*
X175980952Y-74054819D01*
X175980952Y-74054819D02*
X176266666Y-74054819D01*
X176266666Y-74054819D02*
X176361904Y-74007200D01*
X176361904Y-74007200D02*
X176409523Y-73959580D01*
X175457142Y-73054819D02*
X174838095Y-73054819D01*
X174838095Y-73054819D02*
X175171428Y-73435771D01*
X175171428Y-73435771D02*
X175028571Y-73435771D01*
X175028571Y-73435771D02*
X174933333Y-73483390D01*
X174933333Y-73483390D02*
X174885714Y-73531009D01*
X174885714Y-73531009D02*
X174838095Y-73626247D01*
X174838095Y-73626247D02*
X174838095Y-73864342D01*
X174838095Y-73864342D02*
X174885714Y-73959580D01*
X174885714Y-73959580D02*
X174933333Y-74007200D01*
X174933333Y-74007200D02*
X175028571Y-74054819D01*
X175028571Y-74054819D02*
X175314285Y-74054819D01*
X175314285Y-74054819D02*
X175409523Y-74007200D01*
X175409523Y-74007200D02*
X175457142Y-73959580D01*
X122742857Y-81054819D02*
X123076190Y-80578628D01*
X123314285Y-81054819D02*
X123314285Y-80054819D01*
X123314285Y-80054819D02*
X122933333Y-80054819D01*
X122933333Y-80054819D02*
X122838095Y-80102438D01*
X122838095Y-80102438D02*
X122790476Y-80150057D01*
X122790476Y-80150057D02*
X122742857Y-80245295D01*
X122742857Y-80245295D02*
X122742857Y-80388152D01*
X122742857Y-80388152D02*
X122790476Y-80483390D01*
X122790476Y-80483390D02*
X122838095Y-80531009D01*
X122838095Y-80531009D02*
X122933333Y-80578628D01*
X122933333Y-80578628D02*
X123314285Y-80578628D01*
X121790476Y-81054819D02*
X122361904Y-81054819D01*
X122076190Y-81054819D02*
X122076190Y-80054819D01*
X122076190Y-80054819D02*
X122171428Y-80197676D01*
X122171428Y-80197676D02*
X122266666Y-80292914D01*
X122266666Y-80292914D02*
X122361904Y-80340533D01*
X120838095Y-81054819D02*
X121409523Y-81054819D01*
X121123809Y-81054819D02*
X121123809Y-80054819D01*
X121123809Y-80054819D02*
X121219047Y-80197676D01*
X121219047Y-80197676D02*
X121314285Y-80292914D01*
X121314285Y-80292914D02*
X121409523Y-80340533D01*
X135442857Y-95354819D02*
X135776190Y-94878628D01*
X136014285Y-95354819D02*
X136014285Y-94354819D01*
X136014285Y-94354819D02*
X135633333Y-94354819D01*
X135633333Y-94354819D02*
X135538095Y-94402438D01*
X135538095Y-94402438D02*
X135490476Y-94450057D01*
X135490476Y-94450057D02*
X135442857Y-94545295D01*
X135442857Y-94545295D02*
X135442857Y-94688152D01*
X135442857Y-94688152D02*
X135490476Y-94783390D01*
X135490476Y-94783390D02*
X135538095Y-94831009D01*
X135538095Y-94831009D02*
X135633333Y-94878628D01*
X135633333Y-94878628D02*
X136014285Y-94878628D01*
X134490476Y-95354819D02*
X135061904Y-95354819D01*
X134776190Y-95354819D02*
X134776190Y-94354819D01*
X134776190Y-94354819D02*
X134871428Y-94497676D01*
X134871428Y-94497676D02*
X134966666Y-94592914D01*
X134966666Y-94592914D02*
X135061904Y-94640533D01*
X133633333Y-94354819D02*
X133823809Y-94354819D01*
X133823809Y-94354819D02*
X133919047Y-94402438D01*
X133919047Y-94402438D02*
X133966666Y-94450057D01*
X133966666Y-94450057D02*
X134061904Y-94592914D01*
X134061904Y-94592914D02*
X134109523Y-94783390D01*
X134109523Y-94783390D02*
X134109523Y-95164342D01*
X134109523Y-95164342D02*
X134061904Y-95259580D01*
X134061904Y-95259580D02*
X134014285Y-95307200D01*
X134014285Y-95307200D02*
X133919047Y-95354819D01*
X133919047Y-95354819D02*
X133728571Y-95354819D01*
X133728571Y-95354819D02*
X133633333Y-95307200D01*
X133633333Y-95307200D02*
X133585714Y-95259580D01*
X133585714Y-95259580D02*
X133538095Y-95164342D01*
X133538095Y-95164342D02*
X133538095Y-94926247D01*
X133538095Y-94926247D02*
X133585714Y-94831009D01*
X133585714Y-94831009D02*
X133633333Y-94783390D01*
X133633333Y-94783390D02*
X133728571Y-94735771D01*
X133728571Y-94735771D02*
X133919047Y-94735771D01*
X133919047Y-94735771D02*
X134014285Y-94783390D01*
X134014285Y-94783390D02*
X134061904Y-94831009D01*
X134061904Y-94831009D02*
X134109523Y-94926247D01*
X180859580Y-105857142D02*
X180907200Y-105809523D01*
X180907200Y-105809523D02*
X180954819Y-105666666D01*
X180954819Y-105666666D02*
X180954819Y-105571428D01*
X180954819Y-105571428D02*
X180907200Y-105428571D01*
X180907200Y-105428571D02*
X180811961Y-105333333D01*
X180811961Y-105333333D02*
X180716723Y-105285714D01*
X180716723Y-105285714D02*
X180526247Y-105238095D01*
X180526247Y-105238095D02*
X180383390Y-105238095D01*
X180383390Y-105238095D02*
X180192914Y-105285714D01*
X180192914Y-105285714D02*
X180097676Y-105333333D01*
X180097676Y-105333333D02*
X180002438Y-105428571D01*
X180002438Y-105428571D02*
X179954819Y-105571428D01*
X179954819Y-105571428D02*
X179954819Y-105666666D01*
X179954819Y-105666666D02*
X180002438Y-105809523D01*
X180002438Y-105809523D02*
X180050057Y-105857142D01*
X179954819Y-106190476D02*
X179954819Y-106809523D01*
X179954819Y-106809523D02*
X180335771Y-106476190D01*
X180335771Y-106476190D02*
X180335771Y-106619047D01*
X180335771Y-106619047D02*
X180383390Y-106714285D01*
X180383390Y-106714285D02*
X180431009Y-106761904D01*
X180431009Y-106761904D02*
X180526247Y-106809523D01*
X180526247Y-106809523D02*
X180764342Y-106809523D01*
X180764342Y-106809523D02*
X180859580Y-106761904D01*
X180859580Y-106761904D02*
X180907200Y-106714285D01*
X180907200Y-106714285D02*
X180954819Y-106619047D01*
X180954819Y-106619047D02*
X180954819Y-106333333D01*
X180954819Y-106333333D02*
X180907200Y-106238095D01*
X180907200Y-106238095D02*
X180859580Y-106190476D01*
X179954819Y-107666666D02*
X179954819Y-107476190D01*
X179954819Y-107476190D02*
X180002438Y-107380952D01*
X180002438Y-107380952D02*
X180050057Y-107333333D01*
X180050057Y-107333333D02*
X180192914Y-107238095D01*
X180192914Y-107238095D02*
X180383390Y-107190476D01*
X180383390Y-107190476D02*
X180764342Y-107190476D01*
X180764342Y-107190476D02*
X180859580Y-107238095D01*
X180859580Y-107238095D02*
X180907200Y-107285714D01*
X180907200Y-107285714D02*
X180954819Y-107380952D01*
X180954819Y-107380952D02*
X180954819Y-107571428D01*
X180954819Y-107571428D02*
X180907200Y-107666666D01*
X180907200Y-107666666D02*
X180859580Y-107714285D01*
X180859580Y-107714285D02*
X180764342Y-107761904D01*
X180764342Y-107761904D02*
X180526247Y-107761904D01*
X180526247Y-107761904D02*
X180431009Y-107714285D01*
X180431009Y-107714285D02*
X180383390Y-107666666D01*
X180383390Y-107666666D02*
X180335771Y-107571428D01*
X180335771Y-107571428D02*
X180335771Y-107380952D01*
X180335771Y-107380952D02*
X180383390Y-107285714D01*
X180383390Y-107285714D02*
X180431009Y-107238095D01*
X180431009Y-107238095D02*
X180526247Y-107190476D01*
X160242857Y-88459580D02*
X160290476Y-88507200D01*
X160290476Y-88507200D02*
X160433333Y-88554819D01*
X160433333Y-88554819D02*
X160528571Y-88554819D01*
X160528571Y-88554819D02*
X160671428Y-88507200D01*
X160671428Y-88507200D02*
X160766666Y-88411961D01*
X160766666Y-88411961D02*
X160814285Y-88316723D01*
X160814285Y-88316723D02*
X160861904Y-88126247D01*
X160861904Y-88126247D02*
X160861904Y-87983390D01*
X160861904Y-87983390D02*
X160814285Y-87792914D01*
X160814285Y-87792914D02*
X160766666Y-87697676D01*
X160766666Y-87697676D02*
X160671428Y-87602438D01*
X160671428Y-87602438D02*
X160528571Y-87554819D01*
X160528571Y-87554819D02*
X160433333Y-87554819D01*
X160433333Y-87554819D02*
X160290476Y-87602438D01*
X160290476Y-87602438D02*
X160242857Y-87650057D01*
X159861904Y-87650057D02*
X159814285Y-87602438D01*
X159814285Y-87602438D02*
X159719047Y-87554819D01*
X159719047Y-87554819D02*
X159480952Y-87554819D01*
X159480952Y-87554819D02*
X159385714Y-87602438D01*
X159385714Y-87602438D02*
X159338095Y-87650057D01*
X159338095Y-87650057D02*
X159290476Y-87745295D01*
X159290476Y-87745295D02*
X159290476Y-87840533D01*
X159290476Y-87840533D02*
X159338095Y-87983390D01*
X159338095Y-87983390D02*
X159909523Y-88554819D01*
X159909523Y-88554819D02*
X159290476Y-88554819D01*
X158957142Y-87554819D02*
X158338095Y-87554819D01*
X158338095Y-87554819D02*
X158671428Y-87935771D01*
X158671428Y-87935771D02*
X158528571Y-87935771D01*
X158528571Y-87935771D02*
X158433333Y-87983390D01*
X158433333Y-87983390D02*
X158385714Y-88031009D01*
X158385714Y-88031009D02*
X158338095Y-88126247D01*
X158338095Y-88126247D02*
X158338095Y-88364342D01*
X158338095Y-88364342D02*
X158385714Y-88459580D01*
X158385714Y-88459580D02*
X158433333Y-88507200D01*
X158433333Y-88507200D02*
X158528571Y-88554819D01*
X158528571Y-88554819D02*
X158814285Y-88554819D01*
X158814285Y-88554819D02*
X158909523Y-88507200D01*
X158909523Y-88507200D02*
X158957142Y-88459580D01*
X148642857Y-75359580D02*
X148690476Y-75407200D01*
X148690476Y-75407200D02*
X148833333Y-75454819D01*
X148833333Y-75454819D02*
X148928571Y-75454819D01*
X148928571Y-75454819D02*
X149071428Y-75407200D01*
X149071428Y-75407200D02*
X149166666Y-75311961D01*
X149166666Y-75311961D02*
X149214285Y-75216723D01*
X149214285Y-75216723D02*
X149261904Y-75026247D01*
X149261904Y-75026247D02*
X149261904Y-74883390D01*
X149261904Y-74883390D02*
X149214285Y-74692914D01*
X149214285Y-74692914D02*
X149166666Y-74597676D01*
X149166666Y-74597676D02*
X149071428Y-74502438D01*
X149071428Y-74502438D02*
X148928571Y-74454819D01*
X148928571Y-74454819D02*
X148833333Y-74454819D01*
X148833333Y-74454819D02*
X148690476Y-74502438D01*
X148690476Y-74502438D02*
X148642857Y-74550057D01*
X148309523Y-74454819D02*
X147690476Y-74454819D01*
X147690476Y-74454819D02*
X148023809Y-74835771D01*
X148023809Y-74835771D02*
X147880952Y-74835771D01*
X147880952Y-74835771D02*
X147785714Y-74883390D01*
X147785714Y-74883390D02*
X147738095Y-74931009D01*
X147738095Y-74931009D02*
X147690476Y-75026247D01*
X147690476Y-75026247D02*
X147690476Y-75264342D01*
X147690476Y-75264342D02*
X147738095Y-75359580D01*
X147738095Y-75359580D02*
X147785714Y-75407200D01*
X147785714Y-75407200D02*
X147880952Y-75454819D01*
X147880952Y-75454819D02*
X148166666Y-75454819D01*
X148166666Y-75454819D02*
X148261904Y-75407200D01*
X148261904Y-75407200D02*
X148309523Y-75359580D01*
X147071428Y-74454819D02*
X146976190Y-74454819D01*
X146976190Y-74454819D02*
X146880952Y-74502438D01*
X146880952Y-74502438D02*
X146833333Y-74550057D01*
X146833333Y-74550057D02*
X146785714Y-74645295D01*
X146785714Y-74645295D02*
X146738095Y-74835771D01*
X146738095Y-74835771D02*
X146738095Y-75073866D01*
X146738095Y-75073866D02*
X146785714Y-75264342D01*
X146785714Y-75264342D02*
X146833333Y-75359580D01*
X146833333Y-75359580D02*
X146880952Y-75407200D01*
X146880952Y-75407200D02*
X146976190Y-75454819D01*
X146976190Y-75454819D02*
X147071428Y-75454819D01*
X147071428Y-75454819D02*
X147166666Y-75407200D01*
X147166666Y-75407200D02*
X147214285Y-75359580D01*
X147214285Y-75359580D02*
X147261904Y-75264342D01*
X147261904Y-75264342D02*
X147309523Y-75073866D01*
X147309523Y-75073866D02*
X147309523Y-74835771D01*
X147309523Y-74835771D02*
X147261904Y-74645295D01*
X147261904Y-74645295D02*
X147214285Y-74550057D01*
X147214285Y-74550057D02*
X147166666Y-74502438D01*
X147166666Y-74502438D02*
X147071428Y-74454819D01*
X158942857Y-75359580D02*
X158990476Y-75407200D01*
X158990476Y-75407200D02*
X159133333Y-75454819D01*
X159133333Y-75454819D02*
X159228571Y-75454819D01*
X159228571Y-75454819D02*
X159371428Y-75407200D01*
X159371428Y-75407200D02*
X159466666Y-75311961D01*
X159466666Y-75311961D02*
X159514285Y-75216723D01*
X159514285Y-75216723D02*
X159561904Y-75026247D01*
X159561904Y-75026247D02*
X159561904Y-74883390D01*
X159561904Y-74883390D02*
X159514285Y-74692914D01*
X159514285Y-74692914D02*
X159466666Y-74597676D01*
X159466666Y-74597676D02*
X159371428Y-74502438D01*
X159371428Y-74502438D02*
X159228571Y-74454819D01*
X159228571Y-74454819D02*
X159133333Y-74454819D01*
X159133333Y-74454819D02*
X158990476Y-74502438D01*
X158990476Y-74502438D02*
X158942857Y-74550057D01*
X158561904Y-74550057D02*
X158514285Y-74502438D01*
X158514285Y-74502438D02*
X158419047Y-74454819D01*
X158419047Y-74454819D02*
X158180952Y-74454819D01*
X158180952Y-74454819D02*
X158085714Y-74502438D01*
X158085714Y-74502438D02*
X158038095Y-74550057D01*
X158038095Y-74550057D02*
X157990476Y-74645295D01*
X157990476Y-74645295D02*
X157990476Y-74740533D01*
X157990476Y-74740533D02*
X158038095Y-74883390D01*
X158038095Y-74883390D02*
X158609523Y-75454819D01*
X158609523Y-75454819D02*
X157990476Y-75454819D01*
X157085714Y-74454819D02*
X157561904Y-74454819D01*
X157561904Y-74454819D02*
X157609523Y-74931009D01*
X157609523Y-74931009D02*
X157561904Y-74883390D01*
X157561904Y-74883390D02*
X157466666Y-74835771D01*
X157466666Y-74835771D02*
X157228571Y-74835771D01*
X157228571Y-74835771D02*
X157133333Y-74883390D01*
X157133333Y-74883390D02*
X157085714Y-74931009D01*
X157085714Y-74931009D02*
X157038095Y-75026247D01*
X157038095Y-75026247D02*
X157038095Y-75264342D01*
X157038095Y-75264342D02*
X157085714Y-75359580D01*
X157085714Y-75359580D02*
X157133333Y-75407200D01*
X157133333Y-75407200D02*
X157228571Y-75454819D01*
X157228571Y-75454819D02*
X157466666Y-75454819D01*
X157466666Y-75454819D02*
X157561904Y-75407200D01*
X157561904Y-75407200D02*
X157609523Y-75359580D01*
X165042857Y-64729580D02*
X165090476Y-64777200D01*
X165090476Y-64777200D02*
X165233333Y-64824819D01*
X165233333Y-64824819D02*
X165328571Y-64824819D01*
X165328571Y-64824819D02*
X165471428Y-64777200D01*
X165471428Y-64777200D02*
X165566666Y-64681961D01*
X165566666Y-64681961D02*
X165614285Y-64586723D01*
X165614285Y-64586723D02*
X165661904Y-64396247D01*
X165661904Y-64396247D02*
X165661904Y-64253390D01*
X165661904Y-64253390D02*
X165614285Y-64062914D01*
X165614285Y-64062914D02*
X165566666Y-63967676D01*
X165566666Y-63967676D02*
X165471428Y-63872438D01*
X165471428Y-63872438D02*
X165328571Y-63824819D01*
X165328571Y-63824819D02*
X165233333Y-63824819D01*
X165233333Y-63824819D02*
X165090476Y-63872438D01*
X165090476Y-63872438D02*
X165042857Y-63920057D01*
X164090476Y-64824819D02*
X164661904Y-64824819D01*
X164376190Y-64824819D02*
X164376190Y-63824819D01*
X164376190Y-63824819D02*
X164471428Y-63967676D01*
X164471428Y-63967676D02*
X164566666Y-64062914D01*
X164566666Y-64062914D02*
X164661904Y-64110533D01*
X163757142Y-63824819D02*
X163138095Y-63824819D01*
X163138095Y-63824819D02*
X163471428Y-64205771D01*
X163471428Y-64205771D02*
X163328571Y-64205771D01*
X163328571Y-64205771D02*
X163233333Y-64253390D01*
X163233333Y-64253390D02*
X163185714Y-64301009D01*
X163185714Y-64301009D02*
X163138095Y-64396247D01*
X163138095Y-64396247D02*
X163138095Y-64634342D01*
X163138095Y-64634342D02*
X163185714Y-64729580D01*
X163185714Y-64729580D02*
X163233333Y-64777200D01*
X163233333Y-64777200D02*
X163328571Y-64824819D01*
X163328571Y-64824819D02*
X163614285Y-64824819D01*
X163614285Y-64824819D02*
X163709523Y-64777200D01*
X163709523Y-64777200D02*
X163757142Y-64729580D01*
D11*
X138137970Y-51137970D02*
X185862030Y-51137970D01*
X138137970Y-98862030D02*
X138137970Y-51137970D01*
X138137970Y-98862030D02*
X185862030Y-98862030D01*
X185862030Y-98862030D02*
X185862030Y-51137970D01*
D12*
X173577500Y-101762742D02*
X173577500Y-102237258D01*
X174622500Y-101762742D02*
X174622500Y-102237258D01*
X104977500Y-86312258D02*
X104977500Y-85837742D01*
X106022500Y-86312258D02*
X106022500Y-85837742D01*
X50190000Y-106940580D02*
X50190000Y-106659420D01*
X51210000Y-106940580D02*
X51210000Y-106659420D01*
X47990000Y-106940580D02*
X47990000Y-106659420D01*
X49010000Y-106940580D02*
X49010000Y-106659420D01*
X159740580Y-67990000D02*
X159459420Y-67990000D01*
X159740580Y-69010000D02*
X159459420Y-69010000D01*
X164259420Y-85990000D02*
X164540580Y-85990000D01*
X164259420Y-87010000D02*
X164540580Y-87010000D01*
X107477500Y-89062258D02*
X107477500Y-88587742D01*
X108522500Y-89062258D02*
X108522500Y-88587742D01*
X123977500Y-88362258D02*
X123977500Y-87887742D01*
X125022500Y-88362258D02*
X125022500Y-87887742D01*
X150962742Y-70377500D02*
X151437258Y-70377500D01*
X150962742Y-71422500D02*
X151437258Y-71422500D01*
X164259420Y-67990000D02*
X164540580Y-67990000D01*
X164259420Y-69010000D02*
X164540580Y-69010000D01*
X159459420Y-83190000D02*
X159740580Y-83190000D01*
X159459420Y-84210000D02*
X159740580Y-84210000D01*
X97227500Y-78062258D02*
X97227500Y-77587742D01*
X98272500Y-78062258D02*
X98272500Y-77587742D01*
D13*
X48066410Y-102970010D02*
X48066410Y-47190010D01*
X54646410Y-102970010D02*
X48066410Y-102970010D01*
X54646410Y-103860010D02*
X54646410Y-102970010D01*
X56166410Y-102970010D02*
X56166410Y-103860010D01*
X56166410Y-103860010D02*
X54646410Y-103860010D01*
X57656410Y-47190010D02*
X48056410Y-47190010D01*
X59256410Y-47190010D02*
X62756410Y-47190010D01*
X62746410Y-47190010D02*
X62746410Y-102970010D01*
X62746410Y-102970010D02*
X56166410Y-102970010D01*
D14*
X52306410Y-103680010D02*
G75*
G02*
X52106410Y-103680010I-100000J0D01*
G01*
X52106410Y-103680010D02*
G75*
G02*
X52306410Y-103680010I100000J0D01*
G01*
D12*
X78477500Y-73862258D02*
X78477500Y-73387742D01*
X79522500Y-73862258D02*
X79522500Y-73387742D01*
X94477500Y-76812258D02*
X94477500Y-76337742D01*
X95522500Y-76812258D02*
X95522500Y-76337742D01*
X52790000Y-106940580D02*
X52790000Y-106659420D01*
X53810000Y-106940580D02*
X53810000Y-106659420D01*
X68477500Y-74762258D02*
X68477500Y-74287742D01*
X69522500Y-74762258D02*
X69522500Y-74287742D01*
X150959420Y-76390000D02*
X151240580Y-76390000D01*
X150959420Y-77410000D02*
X151240580Y-77410000D01*
X99727500Y-82562258D02*
X99727500Y-82087742D01*
X100772500Y-82562258D02*
X100772500Y-82087742D01*
X169340580Y-78190000D02*
X169059420Y-78190000D01*
X169340580Y-79210000D02*
X169059420Y-79210000D01*
X173240580Y-70890000D02*
X172959420Y-70890000D01*
X173240580Y-71910000D02*
X172959420Y-71910000D01*
X131477500Y-92337258D02*
X131477500Y-91862742D01*
X132522500Y-92337258D02*
X132522500Y-91862742D01*
X164259420Y-83222410D02*
X164540580Y-83222410D01*
X164259420Y-84242410D02*
X164540580Y-84242410D01*
X71977500Y-76062258D02*
X71977500Y-75587742D01*
X73022500Y-76062258D02*
X73022500Y-75587742D01*
X169340580Y-70890000D02*
X169059420Y-70890000D01*
X169340580Y-71910000D02*
X169059420Y-71910000D01*
X169340580Y-72990000D02*
X169059420Y-72990000D01*
X169340580Y-74010000D02*
X169059420Y-74010000D01*
X150959420Y-78190000D02*
X151240580Y-78190000D01*
X150959420Y-79210000D02*
X151240580Y-79210000D01*
X155059420Y-78190000D02*
X155340580Y-78190000D01*
X155059420Y-79210000D02*
X155340580Y-79210000D01*
X169340580Y-75990000D02*
X169059420Y-75990000D01*
X169340580Y-77010000D02*
X169059420Y-77010000D01*
X116227500Y-77487258D02*
X116227500Y-77012742D01*
X117272500Y-77487258D02*
X117272500Y-77012742D01*
X129177500Y-91637258D02*
X129177500Y-91162742D01*
X130222500Y-91637258D02*
X130222500Y-91162742D01*
X155059420Y-76390000D02*
X155340580Y-76390000D01*
X155059420Y-77410000D02*
X155340580Y-77410000D01*
X153640580Y-72690000D02*
X153359420Y-72690000D01*
X153640580Y-73710000D02*
X153359420Y-73710000D01*
X45390000Y-106915580D02*
X45390000Y-106634420D01*
X46410000Y-106915580D02*
X46410000Y-106634420D01*
X158277500Y-101937258D02*
X158277500Y-101462742D01*
X159322500Y-101937258D02*
X159322500Y-101462742D01*
X80477500Y-72462742D02*
X80477500Y-72937258D01*
X81522500Y-72462742D02*
X81522500Y-72937258D01*
X126677500Y-91037258D02*
X126677500Y-90562742D01*
X127722500Y-91037258D02*
X127722500Y-90562742D01*
X102227500Y-83562258D02*
X102227500Y-83087742D01*
X103272500Y-83562258D02*
X103272500Y-83087742D01*
X155059420Y-70790000D02*
X155340580Y-70790000D01*
X155059420Y-71810000D02*
X155340580Y-71810000D01*
X118677500Y-81837258D02*
X118677500Y-81362742D01*
X119722500Y-81837258D02*
X119722500Y-81362742D01*
X173240580Y-78190000D02*
X172959420Y-78190000D01*
X173240580Y-79210000D02*
X172959420Y-79210000D01*
X159740580Y-65290000D02*
X159459420Y-65290000D01*
X159740580Y-66310000D02*
X159459420Y-66310000D01*
X173240580Y-75990000D02*
X172959420Y-75990000D01*
X173240580Y-77010000D02*
X172959420Y-77010000D01*
X173240580Y-72990000D02*
X172959420Y-72990000D01*
X173240580Y-74010000D02*
X172959420Y-74010000D01*
X121577500Y-83062258D02*
X121577500Y-82587742D01*
X122622500Y-83062258D02*
X122622500Y-82587742D01*
X134277500Y-92862258D02*
X134277500Y-92387742D01*
X135322500Y-92862258D02*
X135322500Y-92387742D01*
X178490000Y-106359420D02*
X178490000Y-106640580D01*
X179510000Y-106359420D02*
X179510000Y-106640580D01*
X159459420Y-85990000D02*
X159740580Y-85990000D01*
X159459420Y-87010000D02*
X159740580Y-87010000D01*
X150959420Y-74490000D02*
X151240580Y-74490000D01*
X150959420Y-75510000D02*
X151240580Y-75510000D01*
X155059420Y-74490000D02*
X155340580Y-74490000D01*
X155059420Y-75510000D02*
X155340580Y-75510000D01*
X164259420Y-65290000D02*
X164540580Y-65290000D01*
X164259420Y-66310000D02*
X164540580Y-66310000D01*
%LPC*%
D15*
X140637580Y-53637580D03*
X140637580Y-75000000D03*
D16*
X140637580Y-91282420D03*
D15*
X140637580Y-96362420D03*
X162000000Y-53637580D03*
X162000000Y-96362420D03*
X183362420Y-53637580D03*
D16*
X183362420Y-56177580D03*
D15*
X183362420Y-75000000D03*
X183362420Y-96362420D03*
D17*
X134836410Y-105080010D03*
D18*
X134836410Y-107620010D03*
X132296410Y-105080010D03*
X132296410Y-107620010D03*
X129756410Y-105080010D03*
X129756410Y-107620010D03*
X127216410Y-105080010D03*
X127216410Y-107620010D03*
X124676410Y-105080010D03*
X124676410Y-107620010D03*
X122136410Y-105080010D03*
X122136410Y-107620010D03*
X119596410Y-105080010D03*
X119596410Y-107620010D03*
X117056410Y-105080010D03*
X117056410Y-107620010D03*
X114516410Y-105080010D03*
X114516410Y-107620010D03*
X111976410Y-105080010D03*
X111976410Y-107620010D03*
D19*
X105000000Y-60750000D03*
X105000000Y-45250000D03*
D20*
X67500000Y-97000000D03*
D21*
X64775000Y-94275000D03*
X64775000Y-99725000D03*
X70225000Y-94275000D03*
X70225000Y-99725000D03*
D22*
X43200000Y-108240000D03*
D18*
X43200000Y-105700000D03*
X43200000Y-103160000D03*
D20*
X171275000Y-45000000D03*
D21*
X168550000Y-42275000D03*
X168550000Y-47725000D03*
X174000000Y-42275000D03*
X174000000Y-47725000D03*
D17*
X107946410Y-105080010D03*
D18*
X107946410Y-107620010D03*
X105406410Y-105080010D03*
X105406410Y-107620010D03*
X102866410Y-105080010D03*
X102866410Y-107620010D03*
X100326410Y-105080010D03*
X100326410Y-107620010D03*
X97786410Y-105080010D03*
X97786410Y-107620010D03*
X95246410Y-105080010D03*
X95246410Y-107620010D03*
X92706410Y-105080010D03*
X92706410Y-107620010D03*
X90166410Y-105080010D03*
X90166410Y-107620010D03*
X87626410Y-105080010D03*
X87626410Y-107620010D03*
X85086410Y-105080010D03*
X85086410Y-107620010D03*
D17*
X176646410Y-105080010D03*
D18*
X176646410Y-107620010D03*
X174106410Y-105080010D03*
X174106410Y-107620010D03*
X171566410Y-105080010D03*
X171566410Y-107620010D03*
X169026410Y-105080010D03*
X169026410Y-107620010D03*
X166486410Y-105080010D03*
X166486410Y-107620010D03*
X163946410Y-105080010D03*
X163946410Y-107620010D03*
X161406410Y-105080010D03*
X161406410Y-107620010D03*
X158866410Y-105080010D03*
X158866410Y-107620010D03*
X156326410Y-105080010D03*
X156326410Y-107620010D03*
X153786410Y-105080010D03*
X153786410Y-107620010D03*
D23*
X76710000Y-102000000D03*
D18*
X79250000Y-102000000D03*
X81790000Y-102000000D03*
D24*
X140975000Y-106000000D03*
X141568109Y-104568109D03*
X141568109Y-107431891D03*
X143000000Y-103975000D03*
D25*
X143000000Y-106000000D03*
D24*
X143000000Y-108025000D03*
X144431891Y-104568109D03*
X144431891Y-107431891D03*
X145025000Y-106000000D03*
X134975000Y-44000000D03*
X135568109Y-42568109D03*
X135568109Y-45431891D03*
X137000000Y-41975000D03*
D25*
X137000000Y-44000000D03*
D24*
X137000000Y-46025000D03*
X138431891Y-42568109D03*
X138431891Y-45431891D03*
X139025000Y-44000000D03*
X185975000Y-44000000D03*
X186568109Y-42568109D03*
X186568109Y-45431891D03*
X188000000Y-41975000D03*
D25*
X188000000Y-44000000D03*
D24*
X188000000Y-46025000D03*
X189431891Y-42568109D03*
X189431891Y-45431891D03*
X190025000Y-44000000D03*
D20*
X67275000Y-86525000D03*
D21*
X64550000Y-83800000D03*
X64550000Y-89250000D03*
X70000000Y-83800000D03*
X70000000Y-89250000D03*
D26*
X124000000Y-60750000D03*
X124000000Y-45250000D03*
D23*
X72160000Y-68700000D03*
D18*
X74700000Y-68700000D03*
X77240000Y-68700000D03*
D24*
X185975000Y-106000000D03*
X186568109Y-104568109D03*
X186568109Y-107431891D03*
X188000000Y-103975000D03*
D25*
X188000000Y-106000000D03*
D24*
X188000000Y-108025000D03*
X189431891Y-104568109D03*
X189431891Y-107431891D03*
X190025000Y-106000000D03*
D27*
X66000000Y-57540010D03*
D18*
X66000000Y-60080010D03*
X66000000Y-62620010D03*
D17*
X106500000Y-70750000D03*
D18*
X103960000Y-70750000D03*
X101420000Y-70750000D03*
D27*
X66000000Y-48460000D03*
D18*
X66000000Y-51000000D03*
X66000000Y-53540000D03*
D23*
X76710000Y-96750000D03*
D18*
X79250000Y-96750000D03*
X81790000Y-96750000D03*
D28*
X68840000Y-105400000D03*
D29*
X71380000Y-105400000D03*
X73920000Y-105400000D03*
X76460000Y-105400000D03*
X79000000Y-105400000D03*
X81540000Y-105400000D03*
D19*
X86000000Y-60750000D03*
X86000000Y-45250000D03*
D22*
X132800000Y-55840000D03*
D18*
X132800000Y-53300000D03*
X132800000Y-50760000D03*
D20*
X149000000Y-45000000D03*
D21*
X146275000Y-42275000D03*
X146275000Y-47725000D03*
X151725000Y-42275000D03*
X151725000Y-47725000D03*
D30*
X174100000Y-102825000D03*
X174100000Y-101175000D03*
D31*
X105500000Y-85250000D03*
X105500000Y-86900000D03*
D32*
X50700000Y-106025000D03*
X50700000Y-107575000D03*
X48500000Y-106025000D03*
X48500000Y-107575000D03*
D33*
X158825000Y-68500000D03*
X160375000Y-68500000D03*
D34*
X165175000Y-86500000D03*
X163625000Y-86500000D03*
D31*
X108000000Y-88000000D03*
X108000000Y-89650000D03*
X124500000Y-87300000D03*
X124500000Y-88950000D03*
D35*
X152025000Y-70900000D03*
X150375000Y-70900000D03*
D34*
X165175000Y-68500000D03*
X163625000Y-68500000D03*
X160375000Y-83700000D03*
X158825000Y-83700000D03*
D31*
X97750000Y-77000000D03*
X97750000Y-78650000D03*
D36*
X57406410Y-43600010D03*
D37*
X58456410Y-47889010D03*
X55406410Y-102270010D03*
D36*
X57406410Y-106600010D03*
D38*
X52231410Y-99845010D03*
X52231410Y-98575010D03*
X52231410Y-97305010D03*
X52231410Y-96035010D03*
X52231410Y-94765010D03*
X52231410Y-93495010D03*
X52231410Y-92225010D03*
X52231410Y-90955010D03*
X52231410Y-89685010D03*
X52231410Y-88415010D03*
X52231410Y-87145010D03*
X52231410Y-85875010D03*
X52231410Y-84605010D03*
X52231410Y-83335010D03*
X52231410Y-82065010D03*
X52231410Y-80795010D03*
X52231410Y-79525010D03*
X52231410Y-78255010D03*
X52231410Y-76985010D03*
X52231410Y-75715010D03*
X52231410Y-74445010D03*
X52231410Y-73175010D03*
X52231410Y-71905010D03*
X52231410Y-70635010D03*
X52231410Y-69365010D03*
X52231410Y-68095010D03*
X52231410Y-66825010D03*
X52231410Y-65555010D03*
X52231410Y-64285010D03*
X52231410Y-63015010D03*
X52231410Y-61745010D03*
X52231410Y-60475010D03*
X52231410Y-59205010D03*
X52231410Y-57935010D03*
X52231410Y-56665010D03*
X52231410Y-55395010D03*
X52231410Y-54125010D03*
X52231410Y-52855010D03*
X52231410Y-51585010D03*
X52231410Y-50315010D03*
X53501410Y-99845010D03*
X53501410Y-98575010D03*
X53501410Y-97305010D03*
X53501410Y-96035010D03*
X53501410Y-94765010D03*
X53501410Y-93495010D03*
X53501410Y-92225010D03*
X53501410Y-90955010D03*
X53501410Y-89685010D03*
X53501410Y-88415010D03*
X53501410Y-87145010D03*
X53501410Y-85875010D03*
X53501410Y-84605010D03*
X53501410Y-83335010D03*
X53501410Y-82065010D03*
X53501410Y-80795010D03*
X53501410Y-79525010D03*
X53501410Y-78255010D03*
X53501410Y-76985010D03*
X53501410Y-75715010D03*
X53501410Y-74445010D03*
X53501410Y-73175010D03*
X53501410Y-71905010D03*
X53501410Y-70635010D03*
X53501410Y-69365010D03*
X53501410Y-68095010D03*
X53501410Y-66825010D03*
X53501410Y-65555010D03*
X53501410Y-64285010D03*
X53501410Y-63015010D03*
X53501410Y-61745010D03*
X53501410Y-60475010D03*
X53501410Y-59205010D03*
X53501410Y-57935010D03*
X53501410Y-56665010D03*
X53501410Y-55395010D03*
X53501410Y-54125010D03*
X53501410Y-52855010D03*
X53501410Y-51585010D03*
X53501410Y-50315010D03*
X57311410Y-99845010D03*
X57311410Y-98575010D03*
X57311410Y-97305010D03*
X57311410Y-96035010D03*
X57311410Y-94765010D03*
X57311410Y-93495010D03*
X57311410Y-92225010D03*
X57311410Y-90955010D03*
X57311410Y-89685010D03*
X57311410Y-88415010D03*
X57311410Y-87145010D03*
X57311410Y-85875010D03*
X57311410Y-84605010D03*
X57311410Y-83335010D03*
X57311410Y-82065010D03*
X57311410Y-80795010D03*
X57311410Y-79525010D03*
X57311410Y-78255010D03*
X57311410Y-76985010D03*
X57311410Y-75715010D03*
X57311410Y-74445010D03*
X57311410Y-73175010D03*
X57311410Y-71905010D03*
X57311410Y-70635010D03*
X57311410Y-69365010D03*
X57311410Y-68095010D03*
X57311410Y-66825010D03*
X57311410Y-65555010D03*
X57311410Y-64285010D03*
X57311410Y-63015010D03*
X57311410Y-61745010D03*
X57311410Y-60475010D03*
X57311410Y-59205010D03*
X57311410Y-57935010D03*
X57311410Y-56665010D03*
X57311410Y-55395010D03*
X57311410Y-54125010D03*
X57311410Y-52855010D03*
X57311410Y-51585010D03*
X57311410Y-50315010D03*
X58581410Y-99845010D03*
X58581410Y-98575010D03*
X58581410Y-97305010D03*
X58581410Y-96035010D03*
X58581410Y-94765010D03*
X58581410Y-93495010D03*
X58581410Y-92225010D03*
X58581410Y-90955010D03*
X58581410Y-89685010D03*
X58581410Y-88415010D03*
X58581410Y-87145010D03*
X58581410Y-85875010D03*
X58581410Y-84605010D03*
X58581410Y-83335010D03*
X58581410Y-82065010D03*
X58581410Y-80795010D03*
X58581410Y-79525010D03*
X58581410Y-78255010D03*
X58581410Y-76985010D03*
X58581410Y-75715010D03*
X58581410Y-74445010D03*
X58581410Y-73175010D03*
X58581410Y-71905010D03*
X58581410Y-70635010D03*
X58581410Y-69365010D03*
X58581410Y-68095010D03*
X58581410Y-66825010D03*
X58581410Y-65555010D03*
X58581410Y-64285010D03*
X58581410Y-63015010D03*
X58581410Y-61745010D03*
X58581410Y-60475010D03*
X58581410Y-59205010D03*
X58581410Y-57935010D03*
X58581410Y-56665010D03*
X58581410Y-55395010D03*
X58581410Y-54125010D03*
X58581410Y-52855010D03*
X58581410Y-51585010D03*
X58581410Y-50315010D03*
D31*
X79000000Y-72800000D03*
X79000000Y-74450000D03*
X95000000Y-75750000D03*
X95000000Y-77400000D03*
D32*
X53300000Y-106025000D03*
X53300000Y-107575000D03*
D31*
X69000000Y-73700000D03*
X69000000Y-75350000D03*
D34*
X151875000Y-76900000D03*
X150325000Y-76900000D03*
D31*
X100250000Y-81500000D03*
X100250000Y-83150000D03*
D33*
X168425000Y-78700000D03*
X169975000Y-78700000D03*
X172325000Y-71400000D03*
X173875000Y-71400000D03*
D31*
X132000000Y-91275000D03*
X132000000Y-92925000D03*
D34*
X165175000Y-83732410D03*
X163625000Y-83732410D03*
D31*
X72500000Y-75000000D03*
X72500000Y-76650000D03*
D33*
X168425000Y-71400000D03*
X169975000Y-71400000D03*
X168425000Y-73500000D03*
X169975000Y-73500000D03*
D34*
X151875000Y-78700000D03*
X150325000Y-78700000D03*
X155975000Y-78700000D03*
X154425000Y-78700000D03*
D33*
X168425000Y-76500000D03*
X169975000Y-76500000D03*
D31*
X116750000Y-76425000D03*
X116750000Y-78075000D03*
X129700000Y-90575000D03*
X129700000Y-92225000D03*
D34*
X155975000Y-76900000D03*
X154425000Y-76900000D03*
D33*
X152725000Y-73200000D03*
X154275000Y-73200000D03*
D32*
X45900000Y-106000000D03*
X45900000Y-107550000D03*
D31*
X158800000Y-100875000D03*
X158800000Y-102525000D03*
D30*
X81000000Y-73525000D03*
X81000000Y-71875000D03*
D31*
X127200000Y-89975000D03*
X127200000Y-91625000D03*
X102750000Y-82500000D03*
X102750000Y-84150000D03*
D34*
X155975000Y-71300000D03*
X154425000Y-71300000D03*
D31*
X119200000Y-80775000D03*
X119200000Y-82425000D03*
D33*
X172325000Y-78700000D03*
X173875000Y-78700000D03*
X158825000Y-65800000D03*
X160375000Y-65800000D03*
X172325000Y-76500000D03*
X173875000Y-76500000D03*
X172325000Y-73500000D03*
X173875000Y-73500000D03*
D31*
X122100000Y-82000000D03*
X122100000Y-83650000D03*
X134800000Y-91800000D03*
X134800000Y-93450000D03*
D39*
X179000000Y-107275000D03*
X179000000Y-105725000D03*
D34*
X160375000Y-86500000D03*
X158825000Y-86500000D03*
X151875000Y-75000000D03*
X150325000Y-75000000D03*
X155975000Y-75000000D03*
X154425000Y-75000000D03*
X165175000Y-65800000D03*
X163625000Y-65800000D03*
%LPD*%
M02*
